<svg width="60" height="60" viewBox="0 0 60 60" fill="none" xmlns="http://www.w3.org/2000/svg">
<rect width="60" height="60" rx="10" fill="#F4F4F4"/>
<rect x="2.5" y="2.5" width="55" height="55" rx="8.5" fill="#F4F4F4" stroke="#CFCFCF" stroke-dasharray="5 5"/>
<path d="M8.23193 36.4909L13.201 31.2454C14.9279 29.4145 17.8059 29.3267 19.6401 31.0503C19.6953 31.1056 22.6872 34.1462 22.6872 34.1462C24.4921 35.9836 27.4417 36.0129 29.2791 34.2113C29.3994 34.0942 36.8693 25.034 36.8693 25.034C38.7945 22.6958 42.2514 22.3609 44.5929 24.2893C44.749 24.4194 51.8059 31.6617 51.8059 31.6617" stroke="#CFCFCF" stroke-width="1.5" stroke-linecap="round" stroke-linejoin="round"/>
<path fill-rule="evenodd" clip-rule="evenodd" d="M24.5942 15.7578C24.5942 18.909 22.0413 21.4618 18.8901 21.4618C15.7389 21.4618 13.186 18.909 13.186 15.7578C13.186 12.6066 15.7389 10.0537 18.8901 10.0537C22.0413 10.057 24.5942 12.6066 24.5942 15.7578Z" stroke="#CFCFCF" stroke-width="1.5" stroke-linecap="round" stroke-linejoin="round"/>
<path d="M18.268 50.896H21.088V52H16.9V43.66H18.268V50.896ZM25.1 52.108C24.476 52.108 23.912 51.968 23.408 51.688C22.904 51.4 22.508 51 22.22 50.488C21.932 49.968 21.788 49.368 21.788 48.688C21.788 48.016 21.936 47.42 22.232 46.9C22.528 46.38 22.932 45.98 23.444 45.7C23.956 45.42 24.528 45.28 25.16 45.28C25.792 45.28 26.364 45.42 26.876 45.7C27.388 45.98 27.792 46.38 28.088 46.9C28.384 47.42 28.532 48.016 28.532 48.688C28.532 49.36 28.38 49.956 28.076 50.476C27.772 50.996 27.356 51.4 26.828 51.688C26.308 51.968 25.732 52.108 25.1 52.108ZM25.1 50.92C25.452 50.92 25.78 50.836 26.084 50.668C26.396 50.5 26.648 50.248 26.84 49.912C27.032 49.576 27.128 49.168 27.128 48.688C27.128 48.208 27.036 47.804 26.852 47.476C26.668 47.14 26.424 46.888 26.12 46.72C25.816 46.552 25.488 46.468 25.136 46.468C24.784 46.468 24.456 46.552 24.152 46.72C23.856 46.888 23.62 47.14 23.444 47.476C23.268 47.804 23.18 48.208 23.18 48.688C23.18 49.4 23.36 49.952 23.72 50.344C24.088 50.728 24.548 50.92 25.1 50.92ZM32.5484 45.28C33.0604 45.28 33.5124 45.384 33.9044 45.592C34.3044 45.792 34.6164 46.044 34.8404 46.348V45.388H36.2204V52.108C36.2204 52.716 36.0924 53.256 35.8364 53.728C35.5804 54.208 35.2084 54.584 34.7204 54.856C34.2404 55.128 33.6644 55.264 32.9924 55.264C32.0964 55.264 31.3524 55.052 30.7604 54.628C30.1684 54.212 29.8324 53.644 29.7524 52.924H31.1084C31.2124 53.268 31.4324 53.544 31.7684 53.752C32.1124 53.968 32.5204 54.076 32.9924 54.076C33.5444 54.076 33.9884 53.908 34.3244 53.572C34.6684 53.236 34.8404 52.748 34.8404 52.108V51.004C34.6084 51.316 34.2924 51.58 33.8924 51.796C33.5004 52.004 33.0524 52.108 32.5484 52.108C31.9724 52.108 31.4444 51.964 30.9644 51.676C30.4924 51.38 30.1164 50.972 29.8364 50.452C29.5644 49.924 29.4284 49.328 29.4284 48.664C29.4284 48 29.5644 47.412 29.8364 46.9C30.1164 46.388 30.4924 45.992 30.9644 45.712C31.4444 45.424 31.9724 45.28 32.5484 45.28ZM34.8404 48.688C34.8404 48.232 34.7444 47.836 34.5524 47.5C34.3684 47.164 34.1244 46.908 33.8204 46.732C33.5164 46.556 33.1884 46.468 32.8364 46.468C32.4844 46.468 32.1564 46.556 31.8524 46.732C31.5484 46.9 31.3004 47.152 31.1084 47.488C30.9244 47.816 30.8324 48.208 30.8324 48.664C30.8324 49.12 30.9244 49.52 31.1084 49.864C31.3004 50.208 31.5484 50.472 31.8524 50.656C32.1644 50.832 32.4924 50.92 32.8364 50.92C33.1884 50.92 33.5164 50.832 33.8204 50.656C34.1244 50.48 34.3684 50.224 34.5524 49.888C34.7444 49.544 34.8404 49.144 34.8404 48.688ZM40.8852 52.108C40.2612 52.108 39.6972 51.968 39.1932 51.688C38.6892 51.4 38.2932 51 38.0052 50.488C37.7172 49.968 37.5732 49.368 37.5732 48.688C37.5732 48.016 37.7212 47.42 38.0172 46.9C38.3132 46.38 38.7172 45.98 39.2292 45.7C39.7412 45.42 40.3132 45.28 40.9452 45.28C41.5772 45.28 42.1492 45.42 42.6612 45.7C43.1732 45.98 43.5772 46.38 43.8732 46.9C44.1692 47.42 44.3172 48.016 44.3172 48.688C44.3172 49.36 44.1652 49.956 43.8612 50.476C43.5572 50.996 43.1412 51.4 42.6132 51.688C42.0932 51.968 41.5172 52.108 40.8852 52.108ZM40.8852 50.92C41.2372 50.92 41.5652 50.836 41.8692 50.668C42.1812 50.5 42.4332 50.248 42.6252 49.912C42.8172 49.576 42.9132 49.168 42.9132 48.688C42.9132 48.208 42.8212 47.804 42.6372 47.476C42.4532 47.14 42.2092 46.888 41.9052 46.72C41.6012 46.552 41.2732 46.468 40.9212 46.468C40.5692 46.468 40.2412 46.552 39.9372 46.72C39.6412 46.888 39.4052 47.14 39.2292 47.476C39.0532 47.804 38.9652 48.208 38.9652 48.688C38.9652 49.4 39.1452 49.952 39.5052 50.344C39.8732 50.728 40.3332 50.92 40.8852 50.92Z" fill="#CFCFCF"/>
</svg>
