<svg width="332" height="558" viewBox="0 0 332 558" fill="none" xmlns="http://www.w3.org/2000/svg">
<g clip-path="url(#clip0_498_5127)">
<path d="M303.098 391.301C269.863 465.214 185.014 495.728 119.068 489.122C101.062 487.322 64.8331 483.691 36.974 456.468C-16.5298 404.187 -6.27151 297.038 46.9132 234.776C53.763 226.757 101.142 173.063 173.469 175.054C226.423 176.516 263.075 207.012 267.531 210.81C273.159 215.607 285.558 226.991 296.599 244.897C322.541 286.979 323.867 345.113 303.098 391.301Z" fill="url(#paint0_linear_498_5127)"/>
<path d="M22.0185 451.17C22.0229 452.496 22.5534 453.767 23.494 454.704C24.4346 455.642 25.7088 456.169 27.0383 456.172H298.461C299.79 456.169 301.064 455.642 302.005 454.704C302.945 453.767 303.476 452.496 303.48 451.17L305.736 295.539C305.736 292.788 302.486 287.416 296.531 287.82L31.2699 280.975C29.5571 280.93 27.8531 281.233 26.2612 281.865C24.6693 282.497 23.2226 283.445 22.0089 284.652C20.7953 285.858 19.8399 287.298 19.2008 288.885C18.5616 290.471 18.2521 292.17 18.2908 293.879L22.0185 451.17Z" fill="#202A43"/>
<path d="M26.974 446.369C26.9776 447.625 27.4791 448.828 28.369 449.716C29.2589 450.604 30.4648 451.104 31.7232 451.108H291.921C293.179 451.104 294.385 450.604 295.275 449.716C296.165 448.828 296.667 447.625 296.67 446.369L298.799 305.087C298.548 296.586 291.078 293.529 286.548 293.71L32.3129 286.905C31.1087 286.873 29.9106 287.086 28.7914 287.531C27.6723 287.975 26.6553 288.642 25.8024 289.491C24.9495 290.34 24.2784 291.353 23.8299 292.468C23.3814 293.584 23.1649 294.779 23.1934 295.98L26.974 446.369Z" fill="#3B7AB4"/>
<path d="M293.855 379.251H293.845C293.753 379.249 293.663 379.23 293.579 379.194C293.495 379.158 293.419 379.105 293.355 379.04C293.292 378.974 293.242 378.897 293.208 378.812C293.174 378.727 293.158 378.636 293.159 378.545L293.327 367.088C293.33 366.906 293.404 366.732 293.535 366.604C293.665 366.476 293.84 366.404 294.023 366.404H294.033C294.124 366.405 294.215 366.425 294.299 366.461C294.382 366.497 294.458 366.549 294.522 366.615C294.586 366.68 294.636 366.757 294.67 366.842C294.703 366.927 294.72 367.017 294.719 367.108L294.551 378.567C294.548 378.749 294.474 378.923 294.343 379.051C294.213 379.179 294.038 379.251 293.855 379.251V379.251Z" fill="#91B3FA"/>
<path d="M294.269 351.175H294.258C294.074 351.172 293.898 351.097 293.769 350.965C293.64 350.833 293.569 350.655 293.572 350.471L294.218 306.587C294.205 303.98 293.413 301.899 291.86 300.415C288.963 297.645 284.363 297.787 284.169 297.796L202.911 295.621C202.82 295.619 202.73 295.599 202.646 295.562C202.563 295.525 202.488 295.471 202.425 295.405C202.362 295.339 202.313 295.261 202.28 295.176C202.248 295.091 202.232 295 202.235 294.909C202.233 294.817 202.251 294.725 202.286 294.64C202.322 294.555 202.376 294.478 202.443 294.414C202.51 294.351 202.59 294.302 202.677 294.271C202.764 294.24 202.857 294.227 202.949 294.234L284.16 296.409C284.665 296.378 289.563 296.296 292.824 299.413C294.66 301.166 295.597 303.583 295.61 306.593L294.965 350.489C294.963 350.672 294.889 350.846 294.758 350.975C294.628 351.103 294.452 351.175 294.269 351.175V351.175Z" fill="#91B3FA"/>
<path d="M0.636108 469.092L319.362 469.092C319.714 469.092 319.999 468.807 319.999 468.456V456.053C319.999 455.702 319.714 455.418 319.362 455.418L0.636108 455.418C0.284271 455.418 -0.000976562 455.702 -0.000976562 456.053V468.456C-0.000976562 468.807 0.284271 469.092 0.636108 469.092Z" fill="#202A43"/>
<path d="M238.663 212.17L75.8548 211.175C74.5873 211.168 73.3315 211.418 72.1643 211.911C70.9971 212.404 69.9429 213.129 69.0663 214.043C68.1897 214.956 67.509 216.038 67.0659 217.223C66.6229 218.408 66.4267 219.671 66.4895 220.934L77.6893 451.725H258.865L268.925 245.525L238.663 212.17Z" fill="#91B3FA"/>
<path d="M245.433 244.537C244.175 244.493 242.94 244.195 241.801 243.662C240.662 243.129 239.643 242.371 238.806 241.434C237.969 240.498 237.33 239.401 236.928 238.212C236.527 237.022 236.371 235.764 236.47 234.512L238.215 212.475L268.956 245.391L245.433 244.537Z" fill="#7D97F4"/>
<path d="M103.152 358.713C125.722 358.348 212.359 356.856 234.235 356.479C236.995 356.432 239.264 358.1 239.249 360.161C239.236 362.123 237.145 363.72 234.514 363.774L103.518 366.475C100.994 366.528 98.825 365.135 98.5138 363.263L98.4348 362.791C98.0797 360.652 100.267 358.756 103.152 358.713Z" fill="#BDD0FB"/>
<path d="M101.573 381.623C101.953 382.105 102.65 382.399 103.398 382.393L193.343 381.568C194.47 381.558 195.38 380.875 195.387 380.031L195.419 375.604C195.419 374.725 194.451 374.014 193.276 374.038L105.832 375.862C101.931 375.943 99.5952 379.11 101.573 381.623Z" fill="#BDD0FB"/>
<path d="M102.721 398.762C125.29 398.398 211.926 396.906 233.804 396.529C236.563 396.482 238.831 398.149 238.817 400.211C238.803 402.173 236.714 403.769 234.087 403.824L103.083 406.525C100.559 406.578 98.3912 405.185 98.08 403.313L98.001 402.839C97.647 400.701 99.8322 398.805 102.721 398.762Z" fill="#BDD0FB"/>
<path d="M101.142 421.671C101.522 422.153 102.219 422.447 102.967 422.44L192.911 421.617C194.039 421.607 194.95 420.924 194.955 420.08L194.987 415.652C194.993 414.772 194.02 414.062 192.845 414.087L105.4 415.911C101.5 415.992 99.1601 419.159 101.142 421.671Z" fill="#BDD0FB"/>
<path opacity="0.81" d="M165.25 347.834C130.998 347.834 103.133 320.031 103.133 285.857C103.133 251.683 130.994 223.879 165.25 223.879C199.507 223.879 227.367 251.681 227.367 285.857C227.367 320.032 199.497 347.834 165.25 347.834ZM165.25 226.963C132.703 226.963 106.224 253.382 106.224 285.857C106.224 318.331 132.703 344.75 165.25 344.75C197.798 344.75 224.277 318.331 224.277 285.857C224.277 253.382 197.793 226.963 165.25 226.963V226.963Z" fill="white"/>
<ellipse cx="153.737" cy="271.93" rx="12.2778" ry="12.2505" fill="white"/>
<ellipse cx="182.385" cy="276.014" rx="8.18519" ry="8.16697" fill="white"/>
<path d="M164.135 271.743C164.135 272.295 164.1 272.847 164.023 273.392C164.051 273.204 164.072 273.022 164.1 272.833C163.946 273.924 163.659 274.986 163.231 276.006L163.441 275.503C163.14 276.209 162.769 276.886 162.342 277.529C162.23 277.697 162.111 277.858 161.999 278.019C161.74 278.382 162.307 277.641 162.076 277.921C162.02 277.991 161.964 278.06 161.901 278.137C161.656 278.431 161.396 278.71 161.13 278.983C160.857 279.255 160.577 279.507 160.283 279.752C160.213 279.807 160.143 279.87 160.066 279.926C159.786 280.157 160.479 279.619 160.199 279.821C160.038 279.94 159.877 280.052 159.709 280.164C159.057 280.604 158.364 280.975 157.642 281.282C157.81 281.212 157.979 281.142 158.147 281.072C157.131 281.499 156.067 281.792 154.967 281.939C155.156 281.911 155.338 281.89 155.527 281.862C154.428 282.002 153.321 282.002 152.222 281.862C152.411 281.89 152.593 281.911 152.782 281.939C151.689 281.785 150.625 281.499 149.602 281.072C149.77 281.142 149.938 281.212 150.106 281.282C149.399 280.981 148.72 280.611 148.075 280.185C147.907 280.073 147.746 279.954 147.585 279.842C147.221 279.584 147.963 280.15 147.683 279.919C147.613 279.863 147.543 279.807 147.466 279.745C147.172 279.5 146.892 279.241 146.619 278.976C146.345 278.703 146.093 278.424 145.848 278.13C145.792 278.06 145.729 277.991 145.673 277.914C145.442 277.634 145.981 278.326 145.778 278.046C145.659 277.886 145.547 277.725 145.435 277.557C144.994 276.907 144.623 276.216 144.314 275.496C144.384 275.663 144.454 275.831 144.525 275.999C144.097 274.986 143.803 273.923 143.656 272.826C143.684 273.015 143.705 273.197 143.733 273.385C143.593 272.288 143.593 271.184 143.733 270.087C143.705 270.276 143.684 270.457 143.656 270.646C143.81 269.556 144.097 268.494 144.525 267.473C144.454 267.641 144.384 267.809 144.314 267.977C144.616 267.271 144.987 266.593 145.414 265.95C145.526 265.782 145.645 265.622 145.757 265.461C146.016 265.098 145.449 265.838 145.68 265.559C145.736 265.489 145.792 265.419 145.855 265.342C146.1 265.049 146.359 264.769 146.626 264.497C146.892 264.224 147.179 263.972 147.473 263.728C147.543 263.672 147.613 263.609 147.69 263.553C147.97 263.323 147.277 263.861 147.557 263.658C147.718 263.539 147.879 263.427 148.047 263.316C148.699 262.875 149.392 262.505 150.114 262.197L149.609 262.407C150.625 261.981 151.689 261.687 152.789 261.541C152.6 261.569 152.418 261.59 152.229 261.617C153.328 261.478 154.435 261.478 155.534 261.617C155.345 261.59 155.163 261.569 154.974 261.541C156.067 261.694 157.131 261.981 158.154 262.407L157.649 262.197C158.357 262.498 159.036 262.868 159.68 263.295C159.849 263.406 160.01 263.525 160.171 263.637C160.535 263.896 159.793 263.33 160.073 263.56C160.143 263.616 160.213 263.672 160.29 263.735C160.584 263.979 160.864 264.238 161.137 264.504C161.41 264.776 161.663 265.056 161.908 265.349C161.964 265.419 162.027 265.489 162.083 265.566C162.314 265.845 161.775 265.153 161.978 265.433C162.097 265.594 162.209 265.754 162.321 265.922C162.762 266.572 163.133 267.264 163.441 267.984L163.231 267.481C163.659 268.494 163.953 269.556 164.1 270.653C164.072 270.464 164.051 270.283 164.023 270.094C164.1 270.639 164.135 271.191 164.135 271.743C164.142 272.84 165.101 273.889 166.236 273.84C167.371 273.791 168.344 272.917 168.337 271.743C168.323 268.829 167.448 265.873 165.739 263.504C163.96 261.037 161.571 259.206 158.707 258.151C153.181 256.125 146.555 257.914 142.829 262.463C140.868 264.86 139.705 267.683 139.46 270.772C139.229 273.679 139.978 276.698 141.491 279.185C142.955 281.589 145.154 283.63 147.732 284.797C150.617 286.097 153.734 286.474 156.843 285.866C162.509 284.748 167.237 279.905 168.112 274.196C168.238 273.385 168.33 272.575 168.33 271.75C168.337 270.653 167.363 269.605 166.228 269.654C165.094 269.696 164.141 270.562 164.134 271.743L164.135 271.743Z" fill="white"/>
<path d="M188.949 275.621C188.949 276.041 188.921 276.46 188.865 276.879C188.893 276.691 188.914 276.509 188.942 276.32C188.83 277.131 188.613 277.914 188.291 278.668L188.501 278.165C188.277 278.689 188.011 279.185 187.689 279.661C187.605 279.786 187.514 279.912 187.423 280.038C187.374 280.101 187.227 280.296 187.451 280.01C187.682 279.709 187.5 279.94 187.444 280.01C187.262 280.234 187.065 280.443 186.862 280.653C186.666 280.849 186.463 281.03 186.253 281.205C186.232 281.226 186.106 281.359 186.078 281.352C186.078 281.352 186.519 281.023 186.288 281.191C186.162 281.282 186.043 281.373 185.917 281.456C185.434 281.785 184.915 282.057 184.383 282.288C184.551 282.218 184.719 282.148 184.887 282.078C184.131 282.393 183.346 282.61 182.534 282.728C182.723 282.7 182.905 282.679 183.094 282.651C182.254 282.763 181.413 282.763 180.573 282.651C180.762 282.679 180.944 282.7 181.133 282.728C180.321 282.617 179.536 282.4 178.78 282.078C178.948 282.148 179.116 282.218 179.284 282.288C178.759 282.064 178.262 281.799 177.785 281.477C177.659 281.394 177.533 281.303 177.407 281.212C177.344 281.163 177.148 281.016 177.435 281.24C177.736 281.47 177.505 281.289 177.435 281.233C177.211 281.051 177.001 280.855 176.791 280.653C176.595 280.457 176.413 280.255 176.238 280.045C176.217 280.024 176.084 279.898 176.091 279.87C176.091 279.87 176.42 280.31 176.252 280.08C176.161 279.954 176.07 279.835 175.985 279.709C175.656 279.227 175.383 278.71 175.152 278.179L175.362 278.682C175.047 277.927 174.83 277.145 174.711 276.334C174.739 276.523 174.76 276.704 174.788 276.893C174.676 276.055 174.676 275.216 174.788 274.377C174.76 274.566 174.739 274.748 174.711 274.936C174.823 274.126 175.04 273.343 175.362 272.588L175.152 273.092C175.376 272.567 175.642 272.071 175.964 271.596C176.049 271.47 176.14 271.345 176.231 271.219C176.28 271.156 176.427 270.96 176.203 271.247C175.971 271.547 176.154 271.317 176.21 271.247C176.392 271.023 176.588 270.813 176.791 270.604C176.987 270.408 177.19 270.226 177.4 270.052C177.421 270.031 177.547 269.898 177.575 269.905C177.575 269.905 177.134 270.233 177.365 270.066C177.491 269.975 177.61 269.884 177.736 269.8C178.22 269.472 178.738 269.199 179.27 268.969C179.102 269.038 178.934 269.108 178.766 269.178C179.522 268.864 180.307 268.647 181.119 268.528C180.93 268.556 180.748 268.577 180.559 268.605C181.399 268.493 182.24 268.493 183.08 268.605C182.891 268.577 182.709 268.556 182.52 268.528C183.333 268.64 184.117 268.857 184.873 269.178C184.705 269.108 184.537 269.038 184.369 268.969C184.894 269.192 185.392 269.458 185.868 269.779C185.994 269.863 186.12 269.954 186.246 270.045C186.309 270.094 186.505 270.24 186.218 270.017C185.917 269.786 186.148 269.968 186.218 270.024C186.442 270.205 186.652 270.401 186.862 270.604C187.058 270.799 187.241 271.002 187.416 271.212C187.437 271.233 187.57 271.359 187.563 271.386C187.563 271.386 187.234 270.946 187.402 271.177C187.493 271.303 187.584 271.421 187.668 271.547C187.997 272.029 188.27 272.546 188.501 273.078L188.291 272.575C188.606 273.329 188.823 274.112 188.942 274.923C188.914 274.734 188.893 274.552 188.865 274.363C188.921 274.783 188.949 275.202 188.949 275.621C188.956 276.718 189.909 277.767 191.051 277.718C192.185 277.669 193.159 276.795 193.152 275.621C193.138 273.364 192.465 271.044 191.142 269.199C189.727 267.236 187.85 265.789 185.567 264.957C181.287 263.392 176.098 264.79 173.212 268.305C171.657 270.198 170.747 272.393 170.544 274.839C170.355 277.103 170.943 279.479 172.12 281.428C173.254 283.308 174.977 284.923 176.994 285.824C179.291 286.858 181.743 287.159 184.215 286.663C188.599 285.782 192.297 282.001 192.977 277.578C193.075 276.928 193.152 276.278 193.159 275.621C193.166 274.524 192.185 273.476 191.058 273.525C189.909 273.574 188.957 274.447 188.949 275.621L188.949 275.621Z" fill="white"/>
<path d="M148.28 290.986C133.001 290.986 132.341 305.959 133.705 312.765H174.631C176.814 299.698 169.174 293.709 165.082 292.348C165.991 292.348 163.559 290.986 148.28 290.986Z" fill="white"/>
<path d="M172.918 304.456V307.111C172.918 308.02 172.995 308.97 172.89 309.879C172.918 309.69 172.939 309.508 172.967 309.319C172.932 309.571 172.869 309.809 172.771 310.039L172.981 309.536C172.904 309.704 172.813 309.865 172.722 310.018C172.561 310.298 173.03 309.683 172.862 309.851C172.799 309.913 172.743 309.99 172.68 310.053C172.624 310.109 172.568 310.158 172.512 310.207C172.26 310.445 172.953 309.927 172.645 310.095C172.484 310.186 172.33 310.277 172.162 310.354C172.33 310.284 172.498 310.214 172.666 310.144C172.428 310.235 172.197 310.298 171.945 310.34C172.134 310.312 172.316 310.291 172.505 310.263C172.085 310.312 171.651 310.291 171.223 310.291H168.604H159.849H149.211H140.043C138.593 310.291 137.15 310.305 135.7 310.291C135.56 310.291 135.413 310.284 135.273 310.263C135.462 310.291 135.644 310.312 135.834 310.34C135.581 310.305 135.343 310.242 135.112 310.144C135.28 310.214 135.448 310.284 135.616 310.354C135.448 310.277 135.287 310.186 135.133 310.095C134.853 309.934 135.469 310.403 135.301 310.235C135.238 310.172 135.161 310.116 135.098 310.053C135.042 309.997 134.993 309.941 134.944 309.886C134.706 309.634 135.224 310.326 135.056 310.018C134.965 309.858 134.874 309.704 134.797 309.536L135.007 310.039C134.916 309.802 134.853 309.564 134.811 309.319C134.839 309.508 134.86 309.69 134.888 309.879C134.783 309.082 134.853 308.25 134.853 307.454V304.581C134.853 303.918 134.888 303.261 134.972 302.604C134.944 302.792 134.923 302.974 134.895 303.163C135.063 301.912 135.392 300.696 135.883 299.536C135.813 299.704 135.742 299.871 135.672 300.039C136.023 299.221 136.45 298.432 136.947 297.691C137.066 297.516 137.192 297.342 137.318 297.167C137.626 296.755 137.052 297.495 137.269 297.23C137.346 297.132 137.423 297.041 137.5 296.943C137.774 296.615 138.061 296.3 138.369 296C138.67 295.699 138.985 295.413 139.314 295.133C139.405 295.056 139.503 294.98 139.602 294.903C139.889 294.672 139.146 295.238 139.503 294.98C139.693 294.847 139.875 294.707 140.064 294.581C140.806 294.085 141.591 293.659 142.417 293.309L141.913 293.519C143.075 293.03 144.294 292.701 145.548 292.534C145.359 292.562 145.177 292.583 144.987 292.611C145.912 292.492 146.829 292.492 147.754 292.492H151.249H159.569C160.662 292.492 161.754 292.478 162.847 292.618C162.658 292.59 162.476 292.569 162.287 292.541C163.519 292.715 164.717 293.044 165.866 293.519L165.361 293.309C166.237 293.68 167.07 294.134 167.848 294.672C168.037 294.798 168.212 294.938 168.394 295.07C167.806 294.644 168.394 295.077 168.541 295.196C168.87 295.476 169.192 295.769 169.494 296.084C169.795 296.391 170.089 296.72 170.362 297.055C170.425 297.132 170.495 297.216 170.558 297.3C170.488 297.216 170.425 297.125 170.355 297.041C170.397 297.097 170.439 297.153 170.481 297.209C170.607 297.377 170.726 297.551 170.838 297.719C171.322 298.446 171.742 299.221 172.085 300.025L171.875 299.522C172.358 300.675 172.694 301.884 172.862 303.128C172.834 302.939 172.813 302.757 172.785 302.569C172.876 303.198 172.918 303.827 172.918 304.456C172.925 305.553 173.885 306.601 175.02 306.552C176.154 306.503 177.128 305.63 177.121 304.456C177.114 302.646 176.826 300.808 176.203 299.103C175.552 297.321 174.648 295.741 173.472 294.253C171.23 291.423 167.869 289.382 164.332 288.655C162.623 288.306 160.935 288.292 159.205 288.292H153.497H148.069C146.339 288.292 144.623 288.355 142.928 288.767C136.849 290.256 131.884 295.476 130.903 301.675C130.581 303.694 130.651 305.721 130.651 307.761C130.651 308.432 130.609 309.117 130.665 309.788C130.847 311.926 132.339 313.925 134.524 314.358C135.301 314.512 136.051 314.491 136.828 314.491H140.323H151.473H163.722H171.462H172.071C173.437 314.484 174.823 313.946 175.748 312.933C176.56 312.045 177.002 310.983 177.107 309.788C177.128 309.55 177.121 309.313 177.121 309.068V306.259V304.456C177.121 303.359 176.154 302.311 175.019 302.36C173.885 302.409 172.918 303.275 172.918 304.456L172.918 304.456Z" fill="white"/>
<path d="M195.506 300.78V303.211C195.506 304.029 195.562 304.875 195.492 305.692C195.52 305.504 195.541 305.322 195.569 305.133C195.548 305.287 195.513 305.434 195.457 305.58C195.527 305.413 195.597 305.245 195.667 305.077C195.632 305.161 195.583 305.238 195.548 305.322C195.394 305.636 195.926 304.91 195.625 305.217C195.338 305.504 195.954 305.042 195.772 305.112C195.674 305.147 195.59 305.217 195.492 305.259L195.996 305.049C195.849 305.105 195.702 305.14 195.548 305.161C195.737 305.133 195.919 305.112 196.108 305.084C195.38 305.147 194.63 305.098 193.902 305.098H188.908L177.619 305.315H175.007L177.108 307.411C177.108 306.021 177.178 304.609 177.038 303.225C176.751 300.388 175.805 297.621 174.103 295.308C173.067 293.896 171.897 292.729 170.51 291.667C170.651 292.764 170.791 293.861 170.938 294.959C171.05 294.861 171.162 294.77 171.274 294.679C171.589 294.413 170.861 294.973 171.197 294.742C171.407 294.595 171.617 294.448 171.834 294.309C172.275 294.036 172.738 293.799 173.214 293.596L172.71 293.806C173.515 293.47 174.356 293.239 175.217 293.114C175.028 293.142 174.846 293.163 174.657 293.191C175.406 293.093 176.148 293.093 176.905 293.093H179.825L186.534 292.876C187.34 292.876 188.138 292.862 188.943 292.967C188.754 292.939 188.572 292.918 188.383 292.89C189.258 293.016 190.106 293.246 190.925 293.582C190.757 293.512 190.589 293.442 190.421 293.372C191.002 293.624 191.563 293.917 192.088 294.267C192.214 294.35 192.34 294.441 192.466 294.532C192.767 294.749 192.333 294.399 192.298 294.399C192.333 294.399 192.445 294.518 192.473 294.546C192.718 294.749 192.957 294.965 193.188 295.189C193.405 295.406 193.608 295.629 193.804 295.867C193.853 295.923 193.902 295.986 193.951 296.042C194.105 296.23 193.629 295.608 193.818 295.874C193.909 296 194 296.118 194.084 296.244C194.448 296.782 194.756 297.348 195.009 297.942C194.939 297.775 194.869 297.607 194.799 297.439C195.142 298.25 195.373 299.102 195.492 299.976C195.464 299.787 195.443 299.606 195.415 299.417C195.478 299.871 195.506 300.325 195.506 300.78C195.513 301.877 196.465 302.925 197.607 302.876C198.742 302.827 199.715 301.954 199.708 300.78C199.694 297.341 198.195 293.903 195.548 291.667C193.258 289.724 190.435 288.683 187.424 288.683H178.938C178.007 288.683 177.096 288.718 176.172 288.858C173.874 289.193 169.705 290.493 167.961 292.003C167.464 292.436 167.303 293.142 167.38 293.764C167.478 294.462 167.835 294.875 168.381 295.294C168.346 295.266 167.989 294.98 168.206 295.161C168.262 295.203 168.311 295.245 168.367 295.294C168.486 295.392 168.605 295.497 168.724 295.595C168.948 295.79 169.159 295.993 169.369 296.195C169.579 296.405 169.782 296.615 169.978 296.838C170.16 297.048 170.335 297.342 170.545 297.516C170.51 297.488 170.244 297.111 170.405 297.342C170.447 297.397 170.489 297.453 170.531 297.509C170.615 297.621 170.692 297.733 170.769 297.852C170.938 298.096 171.092 298.348 171.246 298.599C171.561 299.131 171.834 299.676 172.072 300.242L171.862 299.739C172.345 300.892 172.681 302.1 172.85 303.344C172.822 303.156 172.801 302.974 172.772 302.785C172.969 304.309 172.899 305.867 172.899 307.405C172.899 308.537 173.858 309.501 175 309.501H178.368L185.77 309.284H192.97H195.219C195.954 309.284 196.647 309.277 197.348 308.977C198.776 308.376 199.659 307.034 199.694 305.49C199.701 305.147 199.694 304.798 199.694 304.448V301.01V300.766C199.694 299.669 198.727 298.62 197.593 298.669C196.472 298.732 195.506 299.606 195.506 300.78Z" fill="white"/>
<path d="M153.917 309.627C153.616 309.651 153.313 309.591 153.043 309.454C152.773 309.317 152.545 309.108 152.383 308.85L146.935 300.031C146.425 299.206 146.7 298.073 147.55 297.507C148.4 296.94 149.5 297.146 150.01 297.971L153.788 304.093L158.774 293.858C159.221 292.94 160.296 292.521 161.174 292.916C162.052 293.312 162.401 294.382 161.954 295.3L155.512 308.531C155.368 308.828 155.153 309.084 154.885 309.274C154.617 309.464 154.306 309.583 153.981 309.62L153.917 309.627Z" fill="#687FBB"/>
<path d="M49.1626 343.37C48.9116 343.37 48.6705 343.272 48.4903 343.098C48.3101 342.924 48.205 342.686 48.1974 342.436C48.1873 342.085 47.964 333.756 50.422 324.859C53.7325 312.878 60.3725 305.776 69.6251 304.323C74.1578 303.61 78.1944 304.679 81.6322 307.496C92.8241 316.681 93.8885 341.326 93.9291 342.371C93.9379 342.5 93.9206 342.629 93.8785 342.751C93.8363 342.873 93.77 342.985 93.6835 343.081C93.597 343.177 93.4921 343.254 93.375 343.309C93.2579 343.364 93.1309 343.395 93.0017 343.4C92.8724 343.404 92.7435 343.383 92.6226 343.338C92.5017 343.292 92.3912 343.222 92.2976 343.133C92.2041 343.044 92.1295 342.937 92.0781 342.819C92.0268 342.7 91.9998 342.573 91.9988 342.444C91.9886 342.198 90.9265 317.619 80.4032 308.984C77.4141 306.533 73.8894 305.609 69.925 306.228C49.3656 309.457 50.1221 342.048 50.1323 342.378C50.1362 342.504 50.1151 342.63 50.0701 342.748C50.0252 342.867 49.9574 342.975 49.8704 343.067C49.7835 343.159 49.6793 343.233 49.5636 343.285C49.448 343.337 49.3232 343.366 49.1964 343.37H49.1626Z" fill="#202A43"/>
<path d="M8.47891 448.893L25.0762 334.693L87.4289 333.646L107.524 455.237H13.8775C10.5468 455.237 7.99294 452.237 8.47891 448.893Z" fill="#425891"/>
<path d="M99.5363 334.693L87.4277 333.646L107.524 455.237H119.546C121.983 455.237 123.804 452.965 123.308 450.543L99.5363 334.693Z" fill="#293B69"/>
<path d="M79.5692 343.109C79.3195 343.109 79.0794 343.012 78.8995 342.839C78.7196 342.666 78.6137 342.431 78.6041 342.182C78.595 341.934 77.5318 317.355 67.0085 308.722C64.0205 306.271 60.4959 305.347 56.5314 305.966C35.9844 309.192 36.7252 341.787 36.7342 342.115C36.738 342.242 36.7169 342.368 36.6719 342.486C36.627 342.604 36.5591 342.713 36.4722 342.805C36.3853 342.897 36.2811 342.971 36.1655 343.023C36.0498 343.075 35.9251 343.104 35.7983 343.108C35.6716 343.111 35.5453 343.09 35.4268 343.045C35.3082 343.001 35.1996 342.933 35.1073 342.846C35.0149 342.76 34.9406 342.656 34.8885 342.54C34.8365 342.425 34.8077 342.3 34.8039 342.174C34.7926 341.824 34.5693 333.493 37.0285 324.598C40.3389 312.616 46.979 305.515 56.2315 304.061C60.7642 303.349 64.8008 304.417 68.2375 307.235C79.4306 316.42 80.4949 341.063 80.5344 342.11C80.5394 342.236 80.5193 342.362 80.4753 342.481C80.4314 342.6 80.3644 342.709 80.2782 342.801C80.192 342.894 80.0883 342.969 79.973 343.022C79.8577 343.075 79.7332 343.104 79.6064 343.109H79.5692Z" fill="#202A43"/>
<path d="M245.944 479.789C250.03 480.142 257.12 480.714 262.71 480.959C266.07 481.107 268.01 480.778 269.119 480.334C269.119 480.459 269.113 480.578 269.109 480.687C269.094 480.972 268.973 481.242 268.77 481.443C268.567 481.644 268.297 481.764 268.011 481.777C257.448 482.366 249.047 481.981 246.056 481.799C245.915 481.792 245.777 481.749 245.657 481.674C245.537 481.599 245.438 481.494 245.371 481.369C245.303 481.245 245.269 481.105 245.272 480.963C245.274 480.822 245.313 480.683 245.386 480.561C245.554 480.292 245.74 480.034 245.944 479.789V479.789Z" fill="url(#paint1_linear_498_5127)"/>
<path d="M262.71 480.959C257.119 480.714 250.03 480.142 245.943 479.789C249.961 474.872 262.71 471.558 262.71 471.558H266.311C268.792 475.12 269.146 478.511 269.119 480.333C268.005 480.775 266.07 481.112 262.71 480.959Z" fill="#09005D"/>
<path d="M266.917 465.693L266.578 472.347C266.561 472.698 266.421 473.033 266.184 473.293C265.947 473.554 265.626 473.724 265.277 473.775C264.37 473.91 263.443 473.833 262.571 473.55C262.264 473.45 261.989 473.268 261.776 473.025C261.563 472.782 261.419 472.486 261.36 472.169L260.195 465.692L266.917 465.693Z" fill="url(#paint2_linear_498_5127)"/>
<path d="M308.71 487.464C310.481 487.146 311.283 485.959 311.62 484.69L311.626 484.724C311.759 485.379 311.681 486.06 311.402 486.669C311.124 487.277 310.659 487.782 310.074 488.11C308.614 488.906 307.018 489.043 305.778 488.977C305.125 488.948 304.489 488.758 303.927 488.424C303.366 488.09 302.895 487.624 302.557 487.065L302.547 487.047C303.882 487.895 305.756 487.996 308.71 487.464Z" fill="url(#paint3_linear_498_5127)"/>
<path d="M300.356 467.743H303.326C307.85 467.624 310.69 479.926 311.62 484.69C311.282 485.959 310.481 487.146 308.71 487.464C305.756 487.996 303.882 487.895 302.547 487.043C300.103 482.897 298.891 476.824 298.31 473.279C297.647 469.248 300.356 467.743 300.356 467.743Z" fill="#09005D"/>
<path d="M302.945 461.567L304.593 468.111C304.69 468.501 304.651 468.913 304.483 469.279C304.315 469.644 304.027 469.942 303.668 470.124C302.745 470.596 301.446 471.092 300.252 470.949C299.978 470.913 299.719 470.801 299.504 470.627C299.29 470.452 299.129 470.221 299.039 469.959L296.618 463.074L302.945 461.567Z" fill="url(#paint4_linear_498_5127)"/>
<path d="M244.938 375.383C244.938 375.383 259.674 467.287 259.431 467.792C259.431 467.792 263.501 469.639 267.939 468.029C267.939 468.029 266.606 418.899 263.483 400.061C263.483 400.061 288.627 443.973 296.619 465.854C296.619 465.854 300.784 465.358 304.232 463.094C304.232 463.094 277.154 384.054 269.929 373.526L244.938 375.383Z" fill="#7D97F4"/>
<path d="M177.315 285.387C177.315 285.387 187.259 287.575 193.307 290.362C194.505 290.915 195.465 291.877 196.013 293.075C197.817 297.029 203.229 306.942 213.729 311.673C212.217 313.674 209.782 317.838 208.724 324.835C202.419 320.154 196.978 312.337 194.366 299.516C194.366 299.516 192.375 300.595 189.894 299.392C188.582 298.757 187.075 297.856 185.933 297.142C184.796 296.447 183.971 295.342 183.629 294.056C183.196 292.369 183.451 290.875 183.451 289.277L178.34 287.702C178.34 287.702 176.8 287.123 177.315 285.387Z" fill="url(#paint5_linear_498_5127)"/>
<path d="M208.723 324.835C209.783 317.838 212.218 313.674 213.728 311.673C220.247 314.613 228.724 315.552 239.528 311.818C240.524 311.475 241.562 311.271 242.614 311.211C248.365 310.873 267.307 310.26 282.987 315.428C284.613 315.963 286.108 316.833 287.374 317.984C288.64 319.134 289.649 320.537 290.335 322.103C294.575 331.813 301.441 353.926 282.381 365.09C281.154 362.043 279.613 359.132 277.782 356.404C280.851 351.239 281.76 344.183 276.316 334.995C272.345 345.696 270.481 361.309 270.092 368.219C269.965 370.494 270.364 372.768 271.258 374.864L271.356 375.089C271.401 375.195 271.422 375.31 271.418 375.425C271.413 375.54 271.384 375.653 271.331 375.755C271.278 375.858 271.203 375.947 271.112 376.018C271.021 376.089 270.915 376.138 270.802 376.164C260.073 378.568 248.912 377.915 245.578 377.64C245.289 377.616 245.015 377.502 244.795 377.314C244.574 377.126 244.419 376.873 244.352 376.592C239.135 354.655 239.122 339.692 240.405 330.233C235.515 331.327 220.59 333.649 208.723 324.835Z" fill="#1E3F94"/>
<path d="M240.375 330.828C240.48 330.828 240.582 330.789 240.661 330.72C240.741 330.65 240.792 330.555 240.806 330.45C242.031 321.215 244.527 317.184 244.552 317.145C244.614 317.048 244.635 316.93 244.609 316.817C244.584 316.705 244.515 316.607 244.418 316.545C244.32 316.483 244.202 316.463 244.09 316.488C243.977 316.513 243.879 316.582 243.817 316.679C243.71 316.847 241.198 320.882 239.943 330.337C239.928 330.451 239.959 330.566 240.029 330.657C240.099 330.749 240.203 330.809 240.317 330.824C240.336 330.826 240.355 330.828 240.375 330.828Z" fill="#202A43"/>
<path d="M266.855 298.432C266.855 298.432 267.941 309.883 268.897 313.27C268.967 313.52 268.951 313.786 268.852 314.026C268.753 314.266 268.576 314.466 268.35 314.593C266.727 315.518 262.837 317.027 257.515 314.425C257.096 314.217 256.745 313.892 256.507 313.489C256.269 313.087 256.154 312.624 256.175 312.157L256.644 301.091L266.855 298.432Z" fill="url(#paint6_linear_498_5127)"/>
<path d="M256.409 283.787C256.409 283.787 252.937 291.745 252.704 295.922C252.471 300.099 251.57 302.809 256.409 303.649C261.248 304.49 265.327 302.084 267.537 297.924C267.537 297.924 270.997 291.512 270.221 288.888C269.446 286.265 256.409 283.787 256.409 283.787Z" fill="url(#paint7_linear_498_5127)"/>
<path d="M265.883 294.925L265.607 294.805C265.524 294.768 265.449 294.715 265.387 294.649C265.325 294.582 265.278 294.504 265.247 294.419C265.217 294.334 265.204 294.243 265.21 294.153C265.216 294.062 265.241 293.974 265.282 293.893C265.965 292.578 267.296 289.562 265.576 288.859C263.362 287.952 254.586 286.167 252.693 283.061C250.873 280.075 252.486 276.221 254.909 275.125C254.986 275.088 255.074 275.082 255.155 275.108C255.237 275.135 255.305 275.192 255.345 275.267L255.547 275.648C255.578 275.706 255.625 275.753 255.683 275.784C255.741 275.814 255.806 275.827 255.871 275.82C255.937 275.813 255.998 275.787 256.048 275.746C256.099 275.704 256.135 275.648 256.153 275.585C256.171 275.524 256.206 275.47 256.253 275.428C256.301 275.387 256.36 275.36 256.423 275.351C256.485 275.342 256.549 275.352 256.607 275.378C256.664 275.405 256.713 275.447 256.747 275.501C257.328 276.43 258.899 277.938 263.101 278.71C269.072 279.811 273.024 282.222 273.118 286.338C273.119 286.397 273.136 286.454 273.166 286.504C273.197 286.555 273.24 286.596 273.292 286.623C273.344 286.651 273.403 286.664 273.462 286.662C273.52 286.659 273.577 286.641 273.627 286.609C274.068 286.341 274.774 286.215 275.716 287.006C277.357 288.382 276.686 291.956 273.09 294.881C273.05 294.913 273.017 294.953 272.996 295C272.974 295.046 272.963 295.097 272.965 295.148C272.966 295.199 272.98 295.249 273.005 295.294C273.029 295.339 273.064 295.377 273.106 295.407C273.758 295.83 274.73 296.838 272.212 298.18C269.608 299.569 267.663 299.454 266.912 299.332C266.868 299.324 266.826 299.308 266.789 299.284C266.751 299.26 266.719 299.228 266.694 299.191C266.67 299.154 266.653 299.113 266.645 299.069C266.636 299.025 266.637 298.98 266.647 298.937L267.446 295.319C267.457 295.271 267.456 295.221 267.445 295.173C267.434 295.125 267.413 295.081 267.382 295.042C267.351 295.004 267.312 294.973 267.268 294.952C267.223 294.93 267.175 294.919 267.126 294.919L265.883 294.925Z" fill="url(#paint8_linear_498_5127)"/>
<path d="M265.732 295.691C265.732 295.691 267.057 290.608 269.34 292.033C271.623 293.457 268.155 297.729 266.318 297.919L265.732 295.691Z" fill="url(#paint9_linear_498_5127)"/>
<path d="M191.712 298.334C191.812 298.334 191.909 298.299 191.986 298.236C192.076 298.163 192.133 298.058 192.145 297.944C192.157 297.829 192.122 297.714 192.05 297.625C191.673 297.164 188.337 293.094 187.051 292.369C186.583 292.105 186.305 291.832 186.245 291.582C186.219 291.443 186.24 291.299 186.304 291.173L190.224 291.961L192.445 293.862C192.534 293.928 192.644 293.958 192.754 293.945C192.864 293.933 192.965 293.879 193.037 293.796C193.108 293.712 193.145 293.604 193.14 293.494C193.135 293.384 193.088 293.28 193.009 293.203L190.701 291.227C190.644 291.179 190.577 291.146 190.504 291.13L186.163 290.263C186.078 290.245 185.989 290.253 185.909 290.286C185.829 290.318 185.76 290.374 185.712 290.446C185.394 290.917 185.289 291.355 185.39 291.784C185.51 292.291 185.91 292.731 186.615 293.134C187.582 293.679 190.373 296.959 191.366 298.183C191.409 298.232 191.462 298.272 191.522 298.298C191.582 298.324 191.647 298.336 191.712 298.334V298.334Z" fill="url(#paint10_linear_498_5127)"/>
<path d="M265.901 370.594L250.554 370.783L255.926 365.738C256.576 365.126 257.413 364.748 258.303 364.665C259.194 364.582 260.087 364.798 260.84 365.279C261.872 365.939 262.793 366.758 263.568 367.705C263.568 367.705 273.141 364.217 277.782 356.404C279.613 359.132 281.154 362.043 282.381 365.09C278.222 367.527 272.829 369.443 265.901 370.594Z" fill="url(#paint11_linear_498_5127)"/>
<path d="M264.247 372.568C264.218 372.568 264.188 372.568 264.158 372.568L225.203 372.526C224.745 372.526 224.306 372.345 223.983 372.022C223.659 371.699 223.478 371.262 223.478 370.805C223.478 370.349 223.659 369.911 223.983 369.588C224.306 369.265 224.745 369.084 225.203 369.084L264.158 369.126C264.608 369.126 265.039 369.302 265.361 369.615C265.683 369.929 265.869 370.355 265.88 370.804C265.891 371.253 265.726 371.688 265.421 372.017C265.115 372.346 264.693 372.543 264.244 372.566L264.247 372.568Z" fill="url(#paint12_linear_498_5127)"/>
<path d="M190.183 337.651H222.626C223.794 337.649 224.939 337.976 225.929 338.596C226.918 339.215 227.712 340.102 228.217 341.152L243.211 372.55H202.899C202.148 372.552 201.413 372.33 200.79 371.912C200.167 371.493 199.684 370.898 199.403 370.203L187.773 341.151C187.102 339.475 188.355 337.651 190.183 337.651Z" fill="#202A43"/>
<path d="M211.89 358.433C213.229 357.993 213.738 355.89 213.027 353.736C212.316 351.582 210.653 350.193 209.313 350.634C207.974 351.074 207.464 353.177 208.176 355.331C208.887 357.485 210.55 358.874 211.89 358.433Z" fill="#91B3FA"/>
</g>
<path d="M125.815 528L123.159 523.44H121.399V528H119.943V516.848H123.543C124.386 516.848 125.095 516.992 125.671 517.28C126.258 517.568 126.695 517.957 126.983 518.448C127.271 518.939 127.415 519.499 127.415 520.128C127.415 520.896 127.191 521.573 126.743 522.16C126.306 522.747 125.644 523.136 124.759 523.328L127.559 528H125.815ZM121.399 522.272H123.543C124.332 522.272 124.924 522.08 125.319 521.696C125.714 521.301 125.911 520.779 125.911 520.128C125.911 519.467 125.714 518.955 125.319 518.592C124.935 518.229 124.343 518.048 123.543 518.048H121.399V522.272ZM130.429 517.808C130.152 517.808 129.917 517.712 129.725 517.52C129.533 517.328 129.437 517.093 129.437 516.816C129.437 516.539 129.533 516.304 129.725 516.112C129.917 515.92 130.152 515.824 130.429 515.824C130.696 515.824 130.92 515.92 131.101 516.112C131.293 516.304 131.389 516.539 131.389 516.816C131.389 517.093 131.293 517.328 131.101 517.52C130.92 517.712 130.696 517.808 130.429 517.808ZM131.133 519.232V528H129.677V519.232H131.133ZM137.231 519.088C137.988 519.088 138.649 519.253 139.215 519.584C139.791 519.915 140.217 520.331 140.495 520.832V519.232H141.967V528.192C141.967 528.992 141.796 529.701 141.455 530.32C141.113 530.949 140.623 531.44 139.983 531.792C139.353 532.144 138.617 532.32 137.775 532.32C136.623 532.32 135.663 532.048 134.895 531.504C134.127 530.96 133.673 530.219 133.535 529.28H134.975C135.135 529.813 135.465 530.24 135.967 530.56C136.468 530.891 137.071 531.056 137.775 531.056C138.575 531.056 139.225 530.805 139.727 530.304C140.239 529.803 140.495 529.099 140.495 528.192V526.352C140.207 526.864 139.78 527.291 139.215 527.632C138.649 527.973 137.988 528.144 137.231 528.144C136.452 528.144 135.743 527.952 135.103 527.568C134.473 527.184 133.977 526.645 133.615 525.952C133.252 525.259 133.071 524.469 133.071 523.584C133.071 522.688 133.252 521.904 133.615 521.232C133.977 520.549 134.473 520.021 135.103 519.648C135.743 519.275 136.452 519.088 137.231 519.088ZM140.495 523.6C140.495 522.939 140.361 522.363 140.095 521.872C139.828 521.381 139.465 521.008 139.007 520.752C138.559 520.485 138.063 520.352 137.519 520.352C136.975 520.352 136.479 520.48 136.031 520.736C135.583 520.992 135.225 521.365 134.959 521.856C134.692 522.347 134.559 522.923 134.559 523.584C134.559 524.256 134.692 524.843 134.959 525.344C135.225 525.835 135.583 526.213 136.031 526.48C136.479 526.736 136.975 526.864 137.519 526.864C138.063 526.864 138.559 526.736 139.007 526.48C139.465 526.213 139.828 525.835 140.095 525.344C140.361 524.843 140.495 524.261 140.495 523.6ZM148.779 519.072C149.441 519.072 150.038 519.216 150.571 519.504C151.105 519.781 151.521 520.203 151.819 520.768C152.129 521.333 152.283 522.021 152.283 522.832V528H150.843V523.04C150.843 522.165 150.625 521.499 150.187 521.04C149.75 520.571 149.153 520.336 148.395 520.336C147.627 520.336 147.014 520.576 146.555 521.056C146.107 521.536 145.883 522.235 145.883 523.152V528H144.427V516.16H145.883V520.48C146.171 520.032 146.566 519.685 147.067 519.44C147.579 519.195 148.15 519.072 148.779 519.072ZM156.438 520.432V525.6C156.438 526.027 156.528 526.331 156.71 526.512C156.891 526.683 157.206 526.768 157.654 526.768H158.726V528H157.414C156.603 528 155.995 527.813 155.59 527.44C155.184 527.067 154.982 526.453 154.982 525.6V520.432H153.846V519.232H154.982V517.024H156.438V519.232H158.726V520.432H156.438ZM169.027 519.072C170.094 519.072 170.958 519.397 171.619 520.048C172.281 520.688 172.611 521.616 172.611 522.832V528H171.171V523.04C171.171 522.165 170.953 521.499 170.515 521.04C170.078 520.571 169.481 520.336 168.723 520.336C167.955 520.336 167.342 520.576 166.883 521.056C166.435 521.536 166.211 522.235 166.211 523.152V528H164.755V519.232H166.211V520.48C166.499 520.032 166.889 519.685 167.379 519.44C167.881 519.195 168.43 519.072 169.027 519.072ZM178.814 528.144C177.992 528.144 177.246 527.957 176.574 527.584C175.912 527.211 175.39 526.683 175.006 526C174.632 525.307 174.446 524.507 174.446 523.6C174.446 522.704 174.638 521.915 175.022 521.232C175.416 520.539 175.95 520.011 176.622 519.648C177.294 519.275 178.046 519.088 178.878 519.088C179.71 519.088 180.462 519.275 181.134 519.648C181.806 520.011 182.334 520.533 182.718 521.216C183.112 521.899 183.31 522.693 183.31 523.6C183.31 524.507 183.107 525.307 182.702 526C182.307 526.683 181.768 527.211 181.086 527.584C180.403 527.957 179.646 528.144 178.814 528.144ZM178.814 526.864C179.336 526.864 179.827 526.741 180.286 526.496C180.744 526.251 181.112 525.883 181.39 525.392C181.678 524.901 181.822 524.304 181.822 523.6C181.822 522.896 181.683 522.299 181.406 521.808C181.128 521.317 180.766 520.955 180.318 520.72C179.87 520.475 179.384 520.352 178.862 520.352C178.328 520.352 177.838 520.475 177.39 520.72C176.952 520.955 176.6 521.317 176.334 521.808C176.067 522.299 175.934 522.896 175.934 523.6C175.934 524.315 176.062 524.917 176.318 525.408C176.584 525.899 176.936 526.267 177.374 526.512C177.811 526.747 178.291 526.864 178.814 526.864ZM196.904 519.232L194.168 528H192.664L190.552 521.04L188.44 528H186.936L184.184 519.232H185.672L187.688 526.592L189.864 519.232H191.352L193.48 526.608L195.464 519.232H196.904ZM199.853 525.984L198.061 530.288H197.085L198.253 525.984H199.853ZM35.3752 544.432V549.6C35.3752 550.027 35.4659 550.331 35.6472 550.512C35.8285 550.683 36.1432 550.768 36.5912 550.768H37.6632V552H36.3512C35.5405 552 34.9325 551.813 34.5272 551.44C34.1219 551.067 33.9192 550.453 33.9192 549.6V544.432H32.7832V543.232H33.9192V541.024H35.3752V543.232H37.6632V544.432H35.3752ZM43.7793 543.072C44.4406 543.072 45.038 543.216 45.5713 543.504C46.1046 543.781 46.5206 544.203 46.8193 544.768C47.1286 545.333 47.2833 546.021 47.2833 546.832V552H45.8433V547.04C45.8433 546.165 45.6246 545.499 45.1873 545.04C44.75 544.571 44.1526 544.336 43.3953 544.336C42.6273 544.336 42.014 544.576 41.5553 545.056C41.1073 545.536 40.8833 546.235 40.8833 547.152V552H39.4273V540.16H40.8833V544.48C41.1713 544.032 41.566 543.685 42.0673 543.44C42.5793 543.195 43.15 543.072 43.7793 543.072ZM57.6617 547.28C57.6617 547.557 57.6457 547.851 57.6137 548.16H50.6057C50.659 549.024 50.9524 549.701 51.4857 550.192C52.0297 550.672 52.6857 550.912 53.4537 550.912C54.083 550.912 54.6057 550.768 55.0217 550.48C55.4484 550.181 55.747 549.787 55.9177 549.296H57.4857C57.251 550.139 56.7817 550.827 56.0777 551.36C55.3737 551.883 54.499 552.144 53.4537 552.144C52.6217 552.144 51.875 551.957 51.2137 551.584C50.563 551.211 50.051 550.683 49.6777 550C49.3044 549.307 49.1177 548.507 49.1177 547.6C49.1177 546.693 49.299 545.899 49.6617 545.216C50.0244 544.533 50.531 544.011 51.1817 543.648C51.843 543.275 52.6004 543.088 53.4537 543.088C54.2857 543.088 55.0217 543.269 55.6617 543.632C56.3017 543.995 56.7924 544.496 57.1337 545.136C57.4857 545.765 57.6617 546.48 57.6617 547.28ZM56.1577 546.976C56.1577 546.421 56.035 545.947 55.7897 545.552C55.5444 545.147 55.2084 544.843 54.7817 544.64C54.3657 544.427 53.9017 544.32 53.3897 544.32C52.6537 544.32 52.0244 544.555 51.5017 545.024C50.9897 545.493 50.6964 546.144 50.6217 546.976H56.1577ZM61.0396 544.656C61.2956 544.155 61.6582 543.765 62.1276 543.488C62.6076 543.211 63.1889 543.072 63.8716 543.072V544.576H63.4876C61.8556 544.576 61.0396 545.461 61.0396 547.232V552H59.5836V543.232H61.0396V544.656ZM73.5523 547.28C73.5523 547.557 73.5363 547.851 73.5043 548.16H66.4963C66.5496 549.024 66.843 549.701 67.3763 550.192C67.9203 550.672 68.5763 550.912 69.3443 550.912C69.9736 550.912 70.4963 550.768 70.9123 550.48C71.339 550.181 71.6376 549.787 71.8083 549.296H73.3763C73.1416 550.139 72.6723 550.827 71.9683 551.36C71.2643 551.883 70.3896 552.144 69.3443 552.144C68.5123 552.144 67.7656 551.957 67.1043 551.584C66.4536 551.211 65.9416 550.683 65.5683 550C65.195 549.307 65.0083 548.507 65.0083 547.6C65.0083 546.693 65.1896 545.899 65.5523 545.216C65.915 544.533 66.4216 544.011 67.0723 543.648C67.7336 543.275 68.491 543.088 69.3443 543.088C70.1763 543.088 70.9123 543.269 71.5523 543.632C72.1923 543.995 72.683 544.496 73.0243 545.136C73.3763 545.765 73.5523 546.48 73.5523 547.28ZM72.0483 546.976C72.0483 546.421 71.9256 545.947 71.6803 545.552C71.435 545.147 71.099 544.843 70.6723 544.64C70.2563 544.427 69.7923 544.32 69.2803 544.32C68.5443 544.32 67.915 544.555 67.3923 545.024C66.8803 545.493 66.587 546.144 66.5123 546.976H72.0483ZM79.1958 547.584C79.1958 546.688 79.3771 545.904 79.7398 545.232C80.1025 544.549 80.5985 544.021 81.2278 543.648C81.8678 543.275 82.5771 543.088 83.3558 543.088C84.1238 543.088 84.7905 543.253 85.3558 543.584C85.9211 543.915 86.3425 544.331 86.6198 544.832V543.232H88.0918V552H86.6198V550.368C86.3318 550.88 85.8998 551.307 85.3238 551.648C84.7585 551.979 84.0971 552.144 83.3398 552.144C82.5611 552.144 81.8571 551.952 81.2278 551.568C80.5985 551.184 80.1025 550.645 79.7398 549.952C79.3771 549.259 79.1958 548.469 79.1958 547.584ZM86.6198 547.6C86.6198 546.939 86.4865 546.363 86.2198 545.872C85.9531 545.381 85.5905 545.008 85.1318 544.752C84.6838 544.485 84.1878 544.352 83.6438 544.352C83.0998 544.352 82.6038 544.48 82.1558 544.736C81.7078 544.992 81.3505 545.365 81.0838 545.856C80.8171 546.347 80.6838 546.923 80.6838 547.584C80.6838 548.256 80.8171 548.843 81.0838 549.344C81.3505 549.835 81.7078 550.213 82.1558 550.48C82.6038 550.736 83.0998 550.864 83.6438 550.864C84.1878 550.864 84.6838 550.736 85.1318 550.48C85.5905 550.213 85.9531 549.835 86.2198 549.344C86.4865 548.843 86.6198 548.261 86.6198 547.6ZM92.0083 544.656C92.2643 544.155 92.627 543.765 93.0963 543.488C93.5763 543.211 94.1576 543.072 94.8403 543.072V544.576H94.4563C92.8243 544.576 92.0083 545.461 92.0083 547.232V552H90.5523V543.232H92.0083V544.656ZM104.521 547.28C104.521 547.557 104.505 547.851 104.473 548.16H97.4651C97.5184 549.024 97.8117 549.701 98.3451 550.192C98.8891 550.672 99.5451 550.912 100.313 550.912C100.942 550.912 101.465 550.768 101.881 550.48C102.308 550.181 102.606 549.787 102.777 549.296H104.345C104.11 550.139 103.641 550.827 102.937 551.36C102.233 551.883 101.358 552.144 100.313 552.144C99.4811 552.144 98.7344 551.957 98.0731 551.584C97.4224 551.211 96.9104 550.683 96.5371 550C96.1637 549.307 95.9771 548.507 95.9771 547.6C95.9771 546.693 96.1584 545.899 96.5211 545.216C96.8837 544.533 97.3904 544.011 98.0411 543.648C98.7024 543.275 99.4597 543.088 100.313 543.088C101.145 543.088 101.881 543.269 102.521 543.632C103.161 543.995 103.652 544.496 103.993 545.136C104.345 545.765 104.521 546.48 104.521 547.28ZM103.017 546.976C103.017 546.421 102.894 545.947 102.649 545.552C102.404 545.147 102.068 544.843 101.641 544.64C101.225 544.427 100.761 544.32 100.249 544.32C99.5131 544.32 98.8837 544.555 98.3611 545.024C97.8491 545.493 97.5557 546.144 97.4811 546.976H103.017ZM114.981 543.072C116.047 543.072 116.911 543.397 117.573 544.048C118.234 544.688 118.565 545.616 118.565 546.832V552H117.125V547.04C117.125 546.165 116.906 545.499 116.469 545.04C116.031 544.571 115.434 544.336 114.677 544.336C113.909 544.336 113.295 544.576 112.837 545.056C112.389 545.536 112.165 546.235 112.165 547.152V552H110.709V543.232H112.165V544.48C112.453 544.032 112.842 543.685 113.333 543.44C113.834 543.195 114.383 543.072 114.981 543.072ZM124.767 552.144C123.946 552.144 123.199 551.957 122.527 551.584C121.866 551.211 121.343 550.683 120.959 550C120.586 549.307 120.399 548.507 120.399 547.6C120.399 546.704 120.591 545.915 120.975 545.232C121.37 544.539 121.903 544.011 122.575 543.648C123.247 543.275 123.999 543.088 124.831 543.088C125.663 543.088 126.415 543.275 127.087 543.648C127.759 544.011 128.287 544.533 128.671 545.216C129.066 545.899 129.263 546.693 129.263 547.6C129.263 548.507 129.06 549.307 128.655 550C128.26 550.683 127.722 551.211 127.039 551.584C126.356 551.957 125.599 552.144 124.767 552.144ZM124.767 550.864C125.29 550.864 125.78 550.741 126.239 550.496C126.698 550.251 127.066 549.883 127.343 549.392C127.631 548.901 127.775 548.304 127.775 547.6C127.775 546.896 127.636 546.299 127.359 545.808C127.082 545.317 126.719 544.955 126.271 544.72C125.823 544.475 125.338 544.352 124.815 544.352C124.282 544.352 123.791 544.475 123.343 544.72C122.906 544.955 122.554 545.317 122.287 545.808C122.02 546.299 121.887 546.896 121.887 547.6C121.887 548.315 122.015 548.917 122.271 549.408C122.538 549.899 122.89 550.267 123.327 550.512C123.764 550.747 124.244 550.864 124.767 550.864ZM134.899 547.6C134.899 546.693 135.08 545.904 135.443 545.232C135.806 544.549 136.307 544.021 136.947 543.648C137.598 543.275 138.339 543.088 139.171 543.088C140.248 543.088 141.134 543.349 141.827 543.872C142.531 544.395 142.995 545.12 143.219 546.048H141.651C141.502 545.515 141.208 545.093 140.771 544.784C140.344 544.475 139.811 544.32 139.171 544.32C138.339 544.32 137.667 544.608 137.155 545.184C136.643 545.749 136.387 546.555 136.387 547.6C136.387 548.656 136.643 549.472 137.155 550.048C137.667 550.624 138.339 550.912 139.171 550.912C139.811 550.912 140.344 550.763 140.771 550.464C141.198 550.165 141.491 549.739 141.651 549.184H143.219C142.984 550.08 142.515 550.8 141.811 551.344C141.107 551.877 140.227 552.144 139.171 552.144C138.339 552.144 137.598 551.957 136.947 551.584C136.307 551.211 135.806 550.683 135.443 550C135.08 549.317 134.899 548.517 134.899 547.6ZM152.938 543.232V552H151.482V550.704C151.204 551.152 150.815 551.504 150.314 551.76C149.823 552.005 149.279 552.128 148.682 552.128C147.999 552.128 147.386 551.989 146.842 551.712C146.298 551.424 145.866 550.997 145.546 550.432C145.236 549.867 145.082 549.179 145.082 548.368V543.232H146.522V548.176C146.522 549.04 146.74 549.707 147.178 550.176C147.615 550.635 148.212 550.864 148.97 550.864C149.748 550.864 150.362 550.624 150.81 550.144C151.258 549.664 151.482 548.965 151.482 548.048V543.232H152.938ZM158.5 552.144C157.828 552.144 157.225 552.032 156.692 551.808C156.159 551.573 155.737 551.253 155.428 550.848C155.119 550.432 154.948 549.957 154.916 549.424H156.42C156.463 549.861 156.665 550.219 157.028 550.496C157.401 550.773 157.887 550.912 158.484 550.912C159.039 550.912 159.476 550.789 159.796 550.544C160.116 550.299 160.276 549.989 160.276 549.616C160.276 549.232 160.105 548.949 159.764 548.768C159.423 548.576 158.895 548.389 158.18 548.208C157.529 548.037 156.996 547.867 156.58 547.696C156.175 547.515 155.823 547.253 155.524 546.912C155.236 546.56 155.092 546.101 155.092 545.536C155.092 545.088 155.225 544.677 155.492 544.304C155.759 543.931 156.137 543.637 156.628 543.424C157.119 543.2 157.679 543.088 158.308 543.088C159.279 543.088 160.063 543.333 160.66 543.824C161.257 544.315 161.577 544.987 161.62 545.84H160.164C160.132 545.381 159.945 545.013 159.604 544.736C159.273 544.459 158.825 544.32 158.26 544.32C157.737 544.32 157.321 544.432 157.012 544.656C156.703 544.88 156.548 545.173 156.548 545.536C156.548 545.824 156.639 546.064 156.82 546.256C157.012 546.437 157.247 546.587 157.524 546.704C157.812 546.811 158.207 546.933 158.708 547.072C159.337 547.243 159.849 547.413 160.244 547.584C160.639 547.744 160.975 547.989 161.252 548.32C161.54 548.651 161.689 549.083 161.7 549.616C161.7 550.096 161.567 550.528 161.3 550.912C161.033 551.296 160.655 551.6 160.164 551.824C159.684 552.037 159.129 552.144 158.5 552.144ZM165.531 544.432V549.6C165.531 550.027 165.622 550.331 165.803 550.512C165.985 550.683 166.299 550.768 166.747 550.768H167.819V552H166.507C165.697 552 165.089 551.813 164.683 551.44C164.278 551.067 164.075 550.453 164.075 549.6V544.432H162.939V543.232H164.075V541.024H165.531V543.232H167.819V544.432H165.531ZM173.408 552.144C172.586 552.144 171.84 551.957 171.168 551.584C170.506 551.211 169.984 550.683 169.6 550C169.226 549.307 169.04 548.507 169.04 547.6C169.04 546.704 169.232 545.915 169.616 545.232C170.01 544.539 170.544 544.011 171.216 543.648C171.888 543.275 172.64 543.088 173.472 543.088C174.304 543.088 175.056 543.275 175.728 543.648C176.4 544.011 176.928 544.533 177.312 545.216C177.706 545.899 177.904 546.693 177.904 547.6C177.904 548.507 177.701 549.307 177.296 550C176.901 550.683 176.362 551.211 175.68 551.584C174.997 551.957 174.24 552.144 173.408 552.144ZM173.408 550.864C173.93 550.864 174.421 550.741 174.88 550.496C175.338 550.251 175.706 549.883 175.984 549.392C176.272 548.901 176.416 548.304 176.416 547.6C176.416 546.896 176.277 546.299 176 545.808C175.722 545.317 175.36 544.955 174.912 544.72C174.464 544.475 173.978 544.352 173.456 544.352C172.922 544.352 172.432 544.475 171.984 544.72C171.546 544.955 171.194 545.317 170.928 545.808C170.661 546.299 170.528 546.896 170.528 547.6C170.528 548.315 170.656 548.917 170.912 549.408C171.178 549.899 171.53 550.267 171.968 550.512C172.405 550.747 172.885 550.864 173.408 550.864ZM190.362 543.072C191.045 543.072 191.653 543.216 192.186 543.504C192.719 543.781 193.141 544.203 193.45 544.768C193.759 545.333 193.914 546.021 193.914 546.832V552H192.474V547.04C192.474 546.165 192.255 545.499 191.818 545.04C191.391 544.571 190.81 544.336 190.074 544.336C189.317 544.336 188.714 544.581 188.266 545.072C187.818 545.552 187.594 546.251 187.594 547.168V552H186.154V547.04C186.154 546.165 185.935 545.499 185.498 545.04C185.071 544.571 184.49 544.336 183.754 544.336C182.997 544.336 182.394 544.581 181.946 545.072C181.498 545.552 181.274 546.251 181.274 547.168V552H179.818V543.232H181.274V544.496C181.562 544.037 181.946 543.685 182.426 543.44C182.917 543.195 183.455 543.072 184.042 543.072C184.778 543.072 185.429 543.237 185.994 543.568C186.559 543.899 186.981 544.384 187.258 545.024C187.503 544.405 187.909 543.925 188.474 543.584C189.039 543.243 189.669 543.072 190.362 543.072ZM204.302 547.28C204.302 547.557 204.286 547.851 204.254 548.16H197.246C197.3 549.024 197.593 549.701 198.126 550.192C198.67 550.672 199.326 550.912 200.094 550.912C200.724 550.912 201.246 550.768 201.662 550.48C202.089 550.181 202.388 549.787 202.558 549.296H204.126C203.892 550.139 203.422 550.827 202.718 551.36C202.014 551.883 201.14 552.144 200.094 552.144C199.262 552.144 198.516 551.957 197.854 551.584C197.204 551.211 196.692 550.683 196.318 550C195.945 549.307 195.758 548.507 195.758 547.6C195.758 546.693 195.94 545.899 196.302 545.216C196.665 544.533 197.172 544.011 197.822 543.648C198.484 543.275 199.241 543.088 200.094 543.088C200.926 543.088 201.662 543.269 202.302 543.632C202.942 543.995 203.433 544.496 203.774 545.136C204.126 545.765 204.302 546.48 204.302 547.28ZM202.798 546.976C202.798 546.421 202.676 545.947 202.43 545.552C202.185 545.147 201.849 544.843 201.422 544.64C201.006 544.427 200.542 544.32 200.03 544.32C199.294 544.32 198.665 544.555 198.142 545.024C197.63 545.493 197.337 546.144 197.262 546.976H202.798ZM207.68 544.656C207.936 544.155 208.299 543.765 208.768 543.488C209.248 543.211 209.83 543.072 210.512 543.072V544.576H210.128C208.496 544.576 207.68 545.461 207.68 547.232V552H206.224V543.232H207.68V544.656ZM217.211 541.808C216.933 541.808 216.699 541.712 216.507 541.52C216.315 541.328 216.219 541.093 216.219 540.816C216.219 540.539 216.315 540.304 216.507 540.112C216.699 539.92 216.933 539.824 217.211 539.824C217.477 539.824 217.701 539.92 217.883 540.112C218.075 540.304 218.171 540.539 218.171 540.816C218.171 541.093 218.075 541.328 217.883 541.52C217.701 541.712 217.477 541.808 217.211 541.808ZM217.915 543.232V552H216.459V543.232H217.915ZM224.668 543.072C225.735 543.072 226.599 543.397 227.26 544.048C227.921 544.688 228.252 545.616 228.252 546.832V552H226.812V547.04C226.812 546.165 226.593 545.499 226.156 545.04C225.719 544.571 225.121 544.336 224.364 544.336C223.596 544.336 222.983 544.576 222.524 545.056C222.076 545.536 221.852 546.235 221.852 547.152V552H220.396V543.232H221.852V544.48C222.14 544.032 222.529 543.685 223.02 543.44C223.521 543.195 224.071 543.072 224.668 543.072ZM238 552.144C237.328 552.144 236.725 552.032 236.192 551.808C235.659 551.573 235.237 551.253 234.928 550.848C234.619 550.432 234.448 549.957 234.416 549.424H235.92C235.963 549.861 236.165 550.219 236.528 550.496C236.901 550.773 237.387 550.912 237.984 550.912C238.539 550.912 238.976 550.789 239.296 550.544C239.616 550.299 239.776 549.989 239.776 549.616C239.776 549.232 239.605 548.949 239.264 548.768C238.923 548.576 238.395 548.389 237.68 548.208C237.029 548.037 236.496 547.867 236.08 547.696C235.675 547.515 235.323 547.253 235.024 546.912C234.736 546.56 234.592 546.101 234.592 545.536C234.592 545.088 234.725 544.677 234.992 544.304C235.259 543.931 235.637 543.637 236.128 543.424C236.619 543.2 237.179 543.088 237.808 543.088C238.779 543.088 239.563 543.333 240.16 543.824C240.757 544.315 241.077 544.987 241.12 545.84H239.664C239.632 545.381 239.445 545.013 239.104 544.736C238.773 544.459 238.325 544.32 237.76 544.32C237.237 544.32 236.821 544.432 236.512 544.656C236.203 544.88 236.048 545.173 236.048 545.536C236.048 545.824 236.139 546.064 236.32 546.256C236.512 546.437 236.747 546.587 237.024 546.704C237.312 546.811 237.707 546.933 238.208 547.072C238.837 547.243 239.349 547.413 239.744 547.584C240.139 547.744 240.475 547.989 240.752 548.32C241.04 548.651 241.189 549.083 241.2 549.616C241.2 550.096 241.067 550.528 240.8 550.912C240.533 551.296 240.155 551.6 239.664 551.824C239.184 552.037 238.629 552.144 238 552.144ZM250.807 543.232L245.527 556.128H244.023L245.751 551.904L242.215 543.232H243.831L246.583 550.336L249.303 543.232H250.807ZM254.047 544.432V549.6C254.047 550.027 254.138 550.331 254.319 550.512C254.5 550.683 254.815 550.768 255.263 550.768H256.335V552H255.023C254.212 552 253.604 551.813 253.199 551.44C252.794 551.067 252.591 550.453 252.591 549.6V544.432H251.455V543.232H252.591V541.024H254.047V543.232H256.335V544.432H254.047ZM266.099 547.28C266.099 547.557 266.083 547.851 266.051 548.16H259.043C259.097 549.024 259.39 549.701 259.923 550.192C260.467 550.672 261.123 550.912 261.891 550.912C262.521 550.912 263.043 550.768 263.459 550.48C263.886 550.181 264.185 549.787 264.355 549.296H265.923C265.689 550.139 265.219 550.827 264.515 551.36C263.811 551.883 262.937 552.144 261.891 552.144C261.059 552.144 260.313 551.957 259.651 551.584C259.001 551.211 258.489 550.683 258.115 550C257.742 549.307 257.555 548.507 257.555 547.6C257.555 546.693 257.737 545.899 258.099 545.216C258.462 544.533 258.969 544.011 259.619 543.648C260.281 543.275 261.038 543.088 261.891 543.088C262.723 543.088 263.459 543.269 264.099 543.632C264.739 543.995 265.23 544.496 265.571 545.136C265.923 545.765 266.099 546.48 266.099 547.28ZM264.595 546.976C264.595 546.421 264.473 545.947 264.227 545.552C263.982 545.147 263.646 544.843 263.219 544.64C262.803 544.427 262.339 544.32 261.827 544.32C261.091 544.32 260.462 544.555 259.939 545.024C259.427 545.493 259.134 546.144 259.059 546.976H264.595ZM278.565 543.072C279.248 543.072 279.856 543.216 280.389 543.504C280.922 543.781 281.344 544.203 281.653 544.768C281.962 545.333 282.117 546.021 282.117 546.832V552H280.677V547.04C280.677 546.165 280.458 545.499 280.021 545.04C279.594 544.571 279.013 544.336 278.277 544.336C277.52 544.336 276.917 544.581 276.469 545.072C276.021 545.552 275.797 546.251 275.797 547.168V552H274.357V547.04C274.357 546.165 274.138 545.499 273.701 545.04C273.274 544.571 272.693 544.336 271.957 544.336C271.2 544.336 270.597 544.581 270.149 545.072C269.701 545.552 269.477 546.251 269.477 547.168V552H268.021V543.232H269.477V544.496C269.765 544.037 270.149 543.685 270.629 543.44C271.12 543.195 271.658 543.072 272.245 543.072C272.981 543.072 273.632 543.237 274.197 543.568C274.762 543.899 275.184 544.384 275.461 545.024C275.706 544.405 276.112 543.925 276.677 543.584C277.242 543.243 277.872 543.072 278.565 543.072ZM284.969 552.096C284.692 552.096 284.457 552 284.265 551.808C284.073 551.616 283.977 551.381 283.977 551.104C283.977 550.827 284.073 550.592 284.265 550.4C284.457 550.208 284.692 550.112 284.969 550.112C285.236 550.112 285.46 550.208 285.641 550.4C285.833 550.592 285.929 550.827 285.929 551.104C285.929 551.381 285.833 551.616 285.641 551.808C285.46 552 285.236 552.096 284.969 552.096Z" fill="#425890"/>
<path d="M113.616 124.112C112.838 124.112 112.134 123.979 111.504 123.712C110.886 123.445 110.395 123.061 110.032 122.56C109.67 122.059 109.483 121.467 109.472 120.784H111.872C111.904 121.243 112.064 121.605 112.352 121.872C112.651 122.139 113.056 122.272 113.568 122.272C114.091 122.272 114.502 122.149 114.8 121.904C115.099 121.648 115.248 121.317 115.248 120.912C115.248 120.581 115.147 120.309 114.944 120.096C114.742 119.883 114.486 119.717 114.176 119.6C113.878 119.472 113.462 119.333 112.928 119.184C112.203 118.971 111.611 118.763 111.152 118.56C110.704 118.347 110.315 118.032 109.984 117.616C109.664 117.189 109.504 116.624 109.504 115.92C109.504 115.259 109.67 114.683 110 114.192C110.331 113.701 110.795 113.328 111.392 113.072C111.99 112.805 112.672 112.672 113.44 112.672C114.592 112.672 115.526 112.955 116.24 113.52C116.966 114.075 117.366 114.853 117.44 115.856H114.976C114.955 115.472 114.79 115.157 114.48 114.912C114.182 114.656 113.782 114.528 113.28 114.528C112.843 114.528 112.491 114.64 112.224 114.864C111.968 115.088 111.84 115.413 111.84 115.84C111.84 116.139 111.936 116.389 112.128 116.592C112.331 116.784 112.576 116.944 112.864 117.072C113.163 117.189 113.579 117.328 114.112 117.488C114.838 117.701 115.43 117.915 115.888 118.128C116.347 118.341 116.742 118.661 117.072 119.088C117.403 119.515 117.568 120.075 117.568 120.768C117.568 121.365 117.414 121.92 117.104 122.432C116.795 122.944 116.342 123.355 115.744 123.664C115.147 123.963 114.438 124.112 113.616 124.112ZM122.118 116.976V121.264C122.118 121.563 122.188 121.781 122.326 121.92C122.476 122.048 122.721 122.112 123.062 122.112H124.102V124H122.694C120.806 124 119.862 123.083 119.862 121.248V116.976H118.806V115.136H119.862V112.944H122.118V115.136H124.102V116.976H122.118ZM125.137 119.536C125.137 118.64 125.313 117.845 125.665 117.152C126.028 116.459 126.513 115.925 127.121 115.552C127.74 115.179 128.428 114.992 129.185 114.992C129.847 114.992 130.423 115.125 130.913 115.392C131.415 115.659 131.815 115.995 132.113 116.4V115.136H134.369V124H132.113V122.704C131.825 123.12 131.425 123.467 130.913 123.744C130.412 124.011 129.831 124.144 129.169 124.144C128.423 124.144 127.74 123.952 127.121 123.568C126.513 123.184 126.028 122.645 125.665 121.952C125.313 121.248 125.137 120.443 125.137 119.536ZM132.113 119.568C132.113 119.024 132.007 118.56 131.793 118.176C131.58 117.781 131.292 117.483 130.929 117.28C130.567 117.067 130.177 116.96 129.761 116.96C129.345 116.96 128.961 117.061 128.609 117.264C128.257 117.467 127.969 117.765 127.745 118.16C127.532 118.544 127.425 119.003 127.425 119.536C127.425 120.069 127.532 120.539 127.745 120.944C127.969 121.339 128.257 121.643 128.609 121.856C128.972 122.069 129.356 122.176 129.761 122.176C130.177 122.176 130.567 122.075 130.929 121.872C131.292 121.659 131.58 121.36 131.793 120.976C132.007 120.581 132.113 120.112 132.113 119.568ZM138.797 116.512C139.085 116.043 139.458 115.675 139.917 115.408C140.386 115.141 140.92 115.008 141.517 115.008V117.36H140.925C140.221 117.36 139.688 117.525 139.325 117.856C138.973 118.187 138.797 118.763 138.797 119.584V124H136.557V115.136H138.797V116.512ZM145.634 116.976V121.264C145.634 121.563 145.703 121.781 145.842 121.92C145.991 122.048 146.237 122.112 146.578 122.112H147.618V124H146.21C144.322 124 143.378 123.083 143.378 121.248V116.976H142.322V115.136H143.378V112.944H145.634V115.136H147.618V116.976H145.634ZM152.465 119.536C152.465 118.64 152.641 117.845 152.993 117.152C153.356 116.459 153.842 115.925 154.45 115.552C155.068 115.179 155.756 114.992 156.514 114.992C157.175 114.992 157.751 115.125 158.242 115.392C158.743 115.659 159.143 115.995 159.442 116.4V115.136H161.698V124H159.442V122.704C159.154 123.12 158.754 123.467 158.242 123.744C157.74 124.011 157.159 124.144 156.498 124.144C155.751 124.144 155.068 123.952 154.45 123.568C153.842 123.184 153.356 122.645 152.993 121.952C152.641 121.248 152.465 120.443 152.465 119.536ZM159.442 119.568C159.442 119.024 159.335 118.56 159.122 118.176C158.908 117.781 158.62 117.483 158.258 117.28C157.895 117.067 157.506 116.96 157.09 116.96C156.674 116.96 156.29 117.061 155.938 117.264C155.586 117.467 155.298 117.765 155.074 118.16C154.86 118.544 154.754 119.003 154.754 119.536C154.754 120.069 154.86 120.539 155.074 120.944C155.298 121.339 155.586 121.643 155.938 121.856C156.3 122.069 156.684 122.176 157.09 122.176C157.506 122.176 157.895 122.075 158.258 121.872C158.62 121.659 158.908 121.36 159.122 120.976C159.335 120.581 159.442 120.112 159.442 119.568ZM163.309 119.536C163.309 118.64 163.485 117.845 163.837 117.152C164.2 116.459 164.691 115.925 165.309 115.552C165.928 115.179 166.616 114.992 167.373 114.992C167.949 114.992 168.499 115.12 169.021 115.376C169.544 115.621 169.96 115.952 170.269 116.368V112.16H172.541V124H170.269V122.688C169.992 123.125 169.603 123.477 169.101 123.744C168.6 124.011 168.019 124.144 167.357 124.144C166.611 124.144 165.928 123.952 165.309 123.568C164.691 123.184 164.2 122.645 163.837 121.952C163.485 121.248 163.309 120.443 163.309 119.536ZM170.285 119.568C170.285 119.024 170.179 118.56 169.965 118.176C169.752 117.781 169.464 117.483 169.101 117.28C168.739 117.067 168.349 116.96 167.933 116.96C167.517 116.96 167.133 117.061 166.781 117.264C166.429 117.467 166.141 117.765 165.917 118.16C165.704 118.544 165.597 119.003 165.597 119.536C165.597 120.069 165.704 120.539 165.917 120.944C166.141 121.339 166.429 121.643 166.781 121.856C167.144 122.069 167.528 122.176 167.933 122.176C168.349 122.176 168.739 122.075 169.101 121.872C169.464 121.659 169.752 121.36 169.965 120.976C170.179 120.581 170.285 120.112 170.285 119.568ZM174.153 119.536C174.153 118.64 174.329 117.845 174.681 117.152C175.044 116.459 175.534 115.925 176.153 115.552C176.772 115.179 177.46 114.992 178.217 114.992C178.793 114.992 179.342 115.12 179.865 115.376C180.388 115.621 180.804 115.952 181.113 116.368V112.16H183.385V124H181.113V122.688C180.836 123.125 180.446 123.477 179.945 123.744C179.444 124.011 178.862 124.144 178.201 124.144C177.454 124.144 176.772 123.952 176.153 123.568C175.534 123.184 175.044 122.645 174.681 121.952C174.329 121.248 174.153 120.443 174.153 119.536ZM181.129 119.568C181.129 119.024 181.022 118.56 180.809 118.176C180.596 117.781 180.308 117.483 179.945 117.28C179.582 117.067 179.193 116.96 178.777 116.96C178.361 116.96 177.977 117.061 177.625 117.264C177.273 117.467 176.985 117.765 176.761 118.16C176.548 118.544 176.441 119.003 176.441 119.536C176.441 120.069 176.548 120.539 176.761 120.944C176.985 121.339 177.273 121.643 177.625 121.856C177.988 122.069 178.372 122.176 178.777 122.176C179.193 122.176 179.582 122.075 179.945 121.872C180.308 121.659 180.596 121.36 180.809 120.976C181.022 120.581 181.129 120.112 181.129 119.568ZM186.709 114.08C186.314 114.08 185.983 113.957 185.717 113.712C185.461 113.456 185.333 113.141 185.333 112.768C185.333 112.395 185.461 112.085 185.717 111.84C185.983 111.584 186.314 111.456 186.709 111.456C187.103 111.456 187.429 111.584 187.685 111.84C187.951 112.085 188.085 112.395 188.085 112.768C188.085 113.141 187.951 113.456 187.685 113.712C187.429 113.957 187.103 114.08 186.709 114.08ZM187.813 115.136V124H185.573V115.136H187.813ZM194.938 115.008C195.994 115.008 196.847 115.344 197.498 116.016C198.149 116.677 198.474 117.605 198.474 118.8V124H196.234V119.104C196.234 118.4 196.058 117.861 195.706 117.488C195.354 117.104 194.874 116.912 194.266 116.912C193.647 116.912 193.157 117.104 192.794 117.488C192.442 117.861 192.266 118.4 192.266 119.104V124H190.026V115.136H192.266V116.24C192.565 115.856 192.943 115.557 193.402 115.344C193.871 115.12 194.383 115.008 194.938 115.008ZM204.076 114.992C204.737 114.992 205.319 115.125 205.82 115.392C206.321 115.648 206.716 115.984 207.004 116.4V115.136H209.26V124.064C209.26 124.885 209.095 125.616 208.764 126.256C208.433 126.907 207.937 127.419 207.276 127.792C206.615 128.176 205.815 128.368 204.876 128.368C203.617 128.368 202.583 128.075 201.772 127.488C200.972 126.901 200.519 126.101 200.412 125.088H202.636C202.753 125.493 203.004 125.813 203.388 126.048C203.783 126.293 204.257 126.416 204.812 126.416C205.463 126.416 205.991 126.219 206.396 125.824C206.801 125.44 207.004 124.853 207.004 124.064V122.688C206.716 123.104 206.316 123.451 205.804 123.728C205.303 124.005 204.727 124.144 204.076 124.144C203.329 124.144 202.647 123.952 202.028 123.568C201.409 123.184 200.919 122.645 200.556 121.952C200.204 121.248 200.028 120.443 200.028 119.536C200.028 118.64 200.204 117.845 200.556 117.152C200.919 116.459 201.404 115.925 202.012 115.552C202.631 115.179 203.319 114.992 204.076 114.992ZM207.004 119.568C207.004 119.024 206.897 118.56 206.684 118.176C206.471 117.781 206.183 117.483 205.82 117.28C205.457 117.067 205.068 116.96 204.652 116.96C204.236 116.96 203.852 117.061 203.5 117.264C203.148 117.467 202.86 117.765 202.636 118.16C202.423 118.544 202.316 119.003 202.316 119.536C202.316 120.069 202.423 120.539 202.636 120.944C202.86 121.339 203.148 121.643 203.5 121.856C203.863 122.069 204.247 122.176 204.652 122.176C205.068 122.176 205.457 122.075 205.82 121.872C206.183 121.659 206.471 121.36 206.684 120.976C206.897 120.581 207.004 120.112 207.004 119.568ZM52.6608 143.568C52.6608 142.651 52.8475 141.851 53.2208 141.168C53.5941 140.475 54.1115 139.941 54.7728 139.568C55.4341 139.184 56.1915 138.992 57.0448 138.992C58.1435 138.992 59.0501 139.269 59.7648 139.824C60.4901 140.368 60.9755 141.136 61.2208 142.128H58.8048C58.6768 141.744 58.4581 141.445 58.1488 141.232C57.8501 141.008 57.4768 140.896 57.0288 140.896C56.3888 140.896 55.8821 141.131 55.5088 141.6C55.1355 142.059 54.9488 142.715 54.9488 143.568C54.9488 144.411 55.1355 145.067 55.5088 145.536C55.8821 145.995 56.3888 146.224 57.0288 146.224C57.9355 146.224 58.5275 145.819 58.8048 145.008H61.2208C60.9755 145.968 60.4901 146.731 59.7648 147.296C59.0395 147.861 58.1328 148.144 57.0448 148.144C56.1915 148.144 55.4341 147.957 54.7728 147.584C54.1115 147.2 53.5941 146.667 53.2208 145.984C52.8475 145.291 52.6608 144.485 52.6608 143.568ZM71.2298 139.136V148H68.9738V146.88C68.6858 147.264 68.3071 147.568 67.8378 147.792C67.3791 148.005 66.8778 148.112 66.3338 148.112C65.6405 148.112 65.0271 147.968 64.4938 147.68C63.9605 147.381 63.5391 146.949 63.2298 146.384C62.9311 145.808 62.7818 145.125 62.7818 144.336V139.136H65.0218V144.016C65.0218 144.72 65.1978 145.264 65.5498 145.648C65.9018 146.021 66.3818 146.208 66.9898 146.208C67.6085 146.208 68.0938 146.021 68.4458 145.648C68.7978 145.264 68.9738 144.72 68.9738 144.016V139.136H71.2298ZM76.8319 148.144C76.1066 148.144 75.4559 148.016 74.8799 147.76C74.3039 147.493 73.8453 147.136 73.5039 146.688C73.1733 146.24 72.9919 145.744 72.9599 145.2H75.2159C75.2586 145.541 75.4239 145.824 75.7119 146.048C76.0106 146.272 76.3786 146.384 76.8159 146.384C77.2426 146.384 77.5733 146.299 77.8079 146.128C78.0533 145.957 78.1759 145.739 78.1759 145.472C78.1759 145.184 78.0266 144.971 77.7279 144.832C77.4399 144.683 76.9759 144.523 76.3359 144.352C75.6746 144.192 75.1306 144.027 74.7039 143.856C74.2879 143.685 73.9253 143.424 73.6159 143.072C73.3173 142.72 73.1679 142.245 73.1679 141.648C73.1679 141.157 73.3066 140.709 73.5839 140.304C73.8719 139.899 74.2773 139.579 74.7999 139.344C75.3333 139.109 75.9573 138.992 76.6719 138.992C77.7279 138.992 78.5706 139.259 79.1999 139.792C79.8293 140.315 80.1759 141.024 80.2399 141.92H78.0959C78.0639 141.568 77.9146 141.291 77.6479 141.088C77.3919 140.875 77.0453 140.768 76.6079 140.768C76.2026 140.768 75.8879 140.843 75.6639 140.992C75.4506 141.141 75.3439 141.349 75.3439 141.616C75.3439 141.915 75.4933 142.144 75.7919 142.304C76.0906 142.453 76.5546 142.608 77.1839 142.768C77.8239 142.928 78.3519 143.093 78.7679 143.264C79.1839 143.435 79.5413 143.701 79.8399 144.064C80.1493 144.416 80.3093 144.885 80.3199 145.472C80.3199 145.984 80.1759 146.443 79.8879 146.848C79.6106 147.253 79.2053 147.573 78.6719 147.808C78.1493 148.032 77.5359 148.144 76.8319 148.144ZM84.7667 140.976V145.264C84.7667 145.563 84.836 145.781 84.9747 145.92C85.124 146.048 85.3694 146.112 85.7107 146.112H86.7507V148H85.3427C83.4547 148 82.5107 147.083 82.5107 145.248V140.976H81.4547V139.136H82.5107V136.944H84.7667V139.136H86.7507V140.976H84.7667ZM92.2978 148.144C91.4445 148.144 90.6765 147.957 89.9938 147.584C89.3111 147.2 88.7725 146.661 88.3778 145.968C87.9938 145.275 87.8018 144.475 87.8018 143.568C87.8018 142.661 87.9991 141.861 88.3938 141.168C88.7991 140.475 89.3485 139.941 90.0418 139.568C90.7351 139.184 91.5085 138.992 92.3618 138.992C93.2151 138.992 93.9885 139.184 94.6818 139.568C95.3751 139.941 95.9191 140.475 96.3138 141.168C96.7191 141.861 96.9218 142.661 96.9218 143.568C96.9218 144.475 96.7138 145.275 96.2978 145.968C95.8925 146.661 95.3378 147.2 94.6338 147.584C93.9405 147.957 93.1618 148.144 92.2978 148.144ZM92.2978 146.192C92.7031 146.192 93.0818 146.096 93.4338 145.904C93.7965 145.701 94.0845 145.403 94.2978 145.008C94.5111 144.613 94.6178 144.133 94.6178 143.568C94.6178 142.725 94.3938 142.08 93.9458 141.632C93.5085 141.173 92.9698 140.944 92.3298 140.944C91.6898 140.944 91.1511 141.173 90.7138 141.632C90.2871 142.08 90.0738 142.725 90.0738 143.568C90.0738 144.411 90.2818 145.061 90.6978 145.52C91.1245 145.968 91.6578 146.192 92.2978 146.192ZM109.573 139.008C110.661 139.008 111.536 139.344 112.197 140.016C112.869 140.677 113.205 141.605 113.205 142.8V148H110.965V143.104C110.965 142.411 110.789 141.883 110.437 141.52C110.085 141.147 109.605 140.96 108.997 140.96C108.389 140.96 107.904 141.147 107.541 141.52C107.189 141.883 107.013 142.411 107.013 143.104V148H104.773V143.104C104.773 142.411 104.597 141.883 104.245 141.52C103.893 141.147 103.413 140.96 102.805 140.96C102.186 140.96 101.696 141.147 101.333 141.52C100.981 141.883 100.805 142.411 100.805 143.104V148H98.5649V139.136H100.805V140.208C101.093 139.835 101.461 139.541 101.909 139.328C102.368 139.115 102.869 139.008 103.413 139.008C104.106 139.008 104.725 139.157 105.269 139.456C105.813 139.744 106.234 140.16 106.533 140.704C106.821 140.192 107.237 139.781 107.781 139.472C108.336 139.163 108.933 139.008 109.573 139.008ZM123.571 143.376C123.571 143.696 123.549 143.984 123.507 144.24H117.027C117.08 144.88 117.304 145.381 117.699 145.744C118.093 146.107 118.579 146.288 119.155 146.288C119.987 146.288 120.579 145.931 120.931 145.216H123.347C123.091 146.069 122.6 146.773 121.875 147.328C121.149 147.872 120.259 148.144 119.203 148.144C118.349 148.144 117.581 147.957 116.899 147.584C116.227 147.2 115.699 146.661 115.315 145.968C114.941 145.275 114.755 144.475 114.755 143.568C114.755 142.651 114.941 141.845 115.315 141.152C115.688 140.459 116.211 139.925 116.883 139.552C117.555 139.179 118.328 138.992 119.203 138.992C120.045 138.992 120.797 139.173 121.459 139.536C122.131 139.899 122.648 140.416 123.011 141.088C123.384 141.749 123.571 142.512 123.571 143.376ZM121.251 142.736C121.24 142.16 121.032 141.701 120.627 141.36C120.221 141.008 119.725 140.832 119.139 140.832C118.584 140.832 118.115 141.003 117.731 141.344C117.357 141.675 117.128 142.139 117.043 142.736H121.251ZM127.446 140.512C127.734 140.043 128.107 139.675 128.566 139.408C129.035 139.141 129.568 139.008 130.166 139.008V141.36H129.574C128.87 141.36 128.336 141.525 127.974 141.856C127.622 142.187 127.446 142.763 127.446 143.584V148H125.206V139.136H127.446V140.512ZM137.727 140.432C138.015 140.005 138.409 139.659 138.911 139.392C139.423 139.125 140.004 138.992 140.655 138.992C141.412 138.992 142.095 139.179 142.703 139.552C143.321 139.925 143.807 140.459 144.159 141.152C144.521 141.835 144.703 142.629 144.703 143.536C144.703 144.443 144.521 145.248 144.159 145.952C143.807 146.645 143.321 147.184 142.703 147.568C142.095 147.952 141.412 148.144 140.655 148.144C139.993 148.144 139.412 148.016 138.911 147.76C138.42 147.493 138.025 147.152 137.727 146.736V148H135.487V136.16H137.727V140.432ZM142.415 143.536C142.415 143.003 142.303 142.544 142.079 142.16C141.865 141.765 141.577 141.467 141.215 141.264C140.863 141.061 140.479 140.96 140.063 140.96C139.657 140.96 139.273 141.067 138.911 141.28C138.559 141.483 138.271 141.781 138.047 142.176C137.833 142.571 137.727 143.035 137.727 143.568C137.727 144.101 137.833 144.565 138.047 144.96C138.271 145.355 138.559 145.659 138.911 145.872C139.273 146.075 139.657 146.176 140.063 146.176C140.479 146.176 140.863 146.069 141.215 145.856C141.577 145.643 141.865 145.339 142.079 144.944C142.303 144.549 142.415 144.08 142.415 143.536ZM154.811 139.136L149.323 152.192H146.939L148.859 147.776L145.307 139.136H147.819L150.107 145.328L152.427 139.136H154.811ZM159.255 143.568C159.255 142.651 159.441 141.851 159.815 141.168C160.188 140.475 160.705 139.941 161.367 139.568C162.028 139.184 162.785 138.992 163.639 138.992C164.737 138.992 165.644 139.269 166.359 139.824C167.084 140.368 167.569 141.136 167.815 142.128H165.399C165.271 141.744 165.052 141.445 164.743 141.232C164.444 141.008 164.071 140.896 163.623 140.896C162.983 140.896 162.476 141.131 162.103 141.6C161.729 142.059 161.543 142.715 161.543 143.568C161.543 144.411 161.729 145.067 162.103 145.536C162.476 145.995 162.983 146.224 163.623 146.224C164.529 146.224 165.121 145.819 165.399 145.008H167.815C167.569 145.968 167.084 146.731 166.359 147.296C165.633 147.861 164.727 148.144 163.639 148.144C162.785 148.144 162.028 147.957 161.367 147.584C160.705 147.2 160.188 146.667 159.815 145.984C159.441 145.291 159.255 144.485 159.255 143.568ZM171.696 136.16V148H169.456V136.16H171.696ZM175.045 138.08C174.65 138.08 174.319 137.957 174.053 137.712C173.797 137.456 173.669 137.141 173.669 136.768C173.669 136.395 173.797 136.085 174.053 135.84C174.319 135.584 174.65 135.456 175.045 135.456C175.439 135.456 175.765 135.584 176.021 135.84C176.287 136.085 176.421 136.395 176.421 136.768C176.421 137.141 176.287 137.456 176.021 137.712C175.765 137.957 175.439 138.08 175.045 138.08ZM176.149 139.136V148H173.909V139.136H176.149ZM177.786 143.568C177.786 142.651 177.972 141.851 178.346 141.168C178.719 140.475 179.236 139.941 179.898 139.568C180.559 139.184 181.316 138.992 182.17 138.992C183.268 138.992 184.175 139.269 184.89 139.824C185.615 140.368 186.1 141.136 186.346 142.128H183.93C183.802 141.744 183.583 141.445 183.274 141.232C182.975 141.008 182.602 140.896 182.154 140.896C181.514 140.896 181.007 141.131 180.634 141.6C180.26 142.059 180.074 142.715 180.074 143.568C180.074 144.411 180.26 145.067 180.634 145.536C181.007 145.995 181.514 146.224 182.154 146.224C183.06 146.224 183.652 145.819 183.93 145.008H186.346C186.1 145.968 185.615 146.731 184.89 147.296C184.164 147.861 183.258 148.144 182.17 148.144C181.316 148.144 180.559 147.957 179.898 147.584C179.236 147.2 178.719 146.667 178.346 145.984C177.972 145.291 177.786 144.485 177.786 143.568ZM193.235 148L190.227 144.224V148H187.987V136.16H190.227V142.896L193.203 139.136H196.115L192.211 143.584L196.147 148H193.235ZM198.467 138.08C198.072 138.08 197.741 137.957 197.475 137.712C197.219 137.456 197.091 137.141 197.091 136.768C197.091 136.395 197.219 136.085 197.475 135.84C197.741 135.584 198.072 135.456 198.467 135.456C198.861 135.456 199.187 135.584 199.443 135.84C199.709 136.085 199.843 136.395 199.843 136.768C199.843 137.141 199.709 137.456 199.443 137.712C199.187 137.957 198.861 138.08 198.467 138.08ZM199.571 139.136V148H197.331V139.136H199.571ZM206.696 139.008C207.752 139.008 208.605 139.344 209.256 140.016C209.906 140.677 210.232 141.605 210.232 142.8V148H207.992V143.104C207.992 142.4 207.816 141.861 207.464 141.488C207.112 141.104 206.632 140.912 206.024 140.912C205.405 140.912 204.914 141.104 204.552 141.488C204.2 141.861 204.024 142.4 204.024 143.104V148H201.784V139.136H204.024V140.24C204.322 139.856 204.701 139.557 205.16 139.344C205.629 139.12 206.141 139.008 206.696 139.008ZM215.834 138.992C216.495 138.992 217.076 139.125 217.578 139.392C218.079 139.648 218.474 139.984 218.762 140.4V139.136H221.018V148.064C221.018 148.885 220.852 149.616 220.522 150.256C220.191 150.907 219.695 151.419 219.034 151.792C218.372 152.176 217.572 152.368 216.634 152.368C215.375 152.368 214.34 152.075 213.53 151.488C212.73 150.901 212.276 150.101 212.17 149.088H214.394C214.511 149.493 214.762 149.813 215.146 150.048C215.54 150.293 216.015 150.416 216.57 150.416C217.22 150.416 217.748 150.219 218.154 149.824C218.559 149.44 218.762 148.853 218.762 148.064V146.688C218.474 147.104 218.074 147.451 217.562 147.728C217.06 148.005 216.484 148.144 215.834 148.144C215.087 148.144 214.404 147.952 213.786 147.568C213.167 147.184 212.676 146.645 212.314 145.952C211.962 145.248 211.786 144.443 211.786 143.536C211.786 142.64 211.962 141.845 212.314 141.152C212.676 140.459 213.162 139.925 213.77 139.552C214.388 139.179 215.076 138.992 215.834 138.992ZM218.762 143.568C218.762 143.024 218.655 142.56 218.442 142.176C218.228 141.781 217.94 141.483 217.578 141.28C217.215 141.067 216.826 140.96 216.41 140.96C215.994 140.96 215.61 141.061 215.258 141.264C214.906 141.467 214.618 141.765 214.394 142.16C214.18 142.544 214.074 143.003 214.074 143.536C214.074 144.069 214.18 144.539 214.394 144.944C214.618 145.339 214.906 145.643 215.258 145.856C215.62 146.069 216.004 146.176 216.41 146.176C216.826 146.176 217.215 146.075 217.578 145.872C217.94 145.659 218.228 145.36 218.442 144.976C218.655 144.581 218.762 144.112 218.762 143.568ZM232.01 139.008C232.682 139.008 233.279 139.157 233.802 139.456C234.325 139.744 234.73 140.176 235.018 140.752C235.317 141.317 235.466 142 235.466 142.8V148H233.226V143.104C233.226 142.4 233.05 141.861 232.698 141.488C232.346 141.104 231.866 140.912 231.258 140.912C230.639 140.912 230.149 141.104 229.786 141.488C229.434 141.861 229.258 142.4 229.258 143.104V148H227.018V136.16H229.258V140.24C229.546 139.856 229.93 139.557 230.41 139.344C230.89 139.12 231.423 139.008 232.01 139.008ZM245.836 143.376C245.836 143.696 245.815 143.984 245.772 144.24H239.292C239.346 144.88 239.57 145.381 239.964 145.744C240.359 146.107 240.844 146.288 241.42 146.288C242.252 146.288 242.844 145.931 243.196 145.216H245.612C245.356 146.069 244.866 146.773 244.14 147.328C243.415 147.872 242.524 148.144 241.468 148.144C240.615 148.144 239.847 147.957 239.164 147.584C238.492 147.2 237.964 146.661 237.58 145.968C237.207 145.275 237.02 144.475 237.02 143.568C237.02 142.651 237.207 141.845 237.58 141.152C237.954 140.459 238.476 139.925 239.148 139.552C239.82 139.179 240.594 138.992 241.468 138.992C242.311 138.992 243.063 139.173 243.724 139.536C244.396 139.899 244.914 140.416 245.276 141.088C245.65 141.749 245.836 142.512 245.836 143.376ZM243.516 142.736C243.506 142.16 243.298 141.701 242.892 141.36C242.487 141.008 241.991 140.832 241.404 140.832C240.85 140.832 240.38 141.003 239.996 141.344C239.623 141.675 239.394 142.139 239.308 142.736H243.516ZM249.711 140.512C249.999 140.043 250.373 139.675 250.831 139.408C251.301 139.141 251.834 139.008 252.431 139.008V141.36H251.839C251.135 141.36 250.602 141.525 250.239 141.856C249.887 142.187 249.711 142.763 249.711 143.584V148H247.471V139.136H249.711V140.512ZM262.18 143.376C262.18 143.696 262.159 143.984 262.116 144.24H255.636C255.689 144.88 255.913 145.381 256.308 145.744C256.703 146.107 257.188 146.288 257.764 146.288C258.596 146.288 259.188 145.931 259.54 145.216H261.956C261.7 146.069 261.209 146.773 260.484 147.328C259.759 147.872 258.868 148.144 257.812 148.144C256.959 148.144 256.191 147.957 255.508 147.584C254.836 147.2 254.308 146.661 253.924 145.968C253.551 145.275 253.364 144.475 253.364 143.568C253.364 142.651 253.551 141.845 253.924 141.152C254.297 140.459 254.82 139.925 255.492 139.552C256.164 139.179 256.937 138.992 257.812 138.992C258.655 138.992 259.407 139.173 260.068 139.536C260.74 139.899 261.257 140.416 261.62 141.088C261.993 141.749 262.18 142.512 262.18 143.376ZM259.86 142.736C259.849 142.16 259.641 141.701 259.236 141.36C258.831 141.008 258.335 140.832 257.748 140.832C257.193 140.832 256.724 141.003 256.34 141.344C255.967 141.675 255.737 142.139 255.652 142.736H259.86ZM264.807 148.112C264.402 148.112 264.066 147.989 263.799 147.744C263.543 147.488 263.415 147.173 263.415 146.8C263.415 146.427 263.543 146.117 263.799 145.872C264.066 145.616 264.402 145.488 264.807 145.488C265.202 145.488 265.527 145.616 265.783 145.872C266.039 146.117 266.167 146.427 266.167 146.8C266.167 147.173 266.039 147.488 265.783 147.744C265.527 147.989 265.202 148.112 264.807 148.112Z" fill="#5B5B5B"/>
<path d="M262 129.5C283 125.833 322.1 110.9 310.5 80.5C296 42.5 267 91 293.5 97.5C320 104 334.5 76 330 50.5C326.4 30.1 320.833 15.6667 317 5M313 16C312.667 11 312.8 1 316 1C319.2 1 323.667 8.33333 325.5 12" stroke="#1E3F94" stroke-width="2" stroke-linecap="round"/>
<defs>
<linearGradient id="paint0_linear_498_5127" x1="333.018" y1="534.488" x2="105.571" y2="279.655" gradientUnits="userSpaceOnUse">
<stop stop-color="#DAE3FE"/>
<stop offset="1" stop-color="#E9EFFD"/>
</linearGradient>
<linearGradient id="paint1_linear_498_5127" x1="269.119" y1="480.94" x2="245.271" y2="480.94" gradientUnits="userSpaceOnUse">
<stop stop-color="#4042E2"/>
<stop offset="1" stop-color="#4F52FF"/>
</linearGradient>
<linearGradient id="paint2_linear_498_5127" x1="266.917" y1="469.766" x2="260.199" y2="469.766" gradientUnits="userSpaceOnUse">
<stop stop-color="#FEBBBA"/>
<stop offset="1" stop-color="#FF928E"/>
</linearGradient>
<linearGradient id="paint3_linear_498_5127" x1="311.686" y1="486.841" x2="302.547" y2="486.841" gradientUnits="userSpaceOnUse">
<stop stop-color="#4042E2"/>
<stop offset="1" stop-color="#4F52FF"/>
</linearGradient>
<linearGradient id="paint4_linear_498_5127" x1="304.646" y1="466.27" x2="296.618" y2="466.27" gradientUnits="userSpaceOnUse">
<stop stop-color="#FEBBBA"/>
<stop offset="1" stop-color="#FF928E"/>
</linearGradient>
<linearGradient id="paint5_linear_498_5127" x1="194.22" y1="297.542" x2="225.927" y2="338.885" gradientUnits="userSpaceOnUse">
<stop stop-color="#FEBBBA"/>
<stop offset="1" stop-color="#FF928E"/>
</linearGradient>
<linearGradient id="paint6_linear_498_5127" x1="265.095" y1="324.218" x2="261.631" y2="305.993" gradientUnits="userSpaceOnUse">
<stop stop-color="#FEBBBA"/>
<stop offset="1" stop-color="#FF928E"/>
</linearGradient>
<linearGradient id="paint7_linear_498_5127" x1="255.682" y1="290.786" x2="275.497" y2="305.982" gradientUnits="userSpaceOnUse">
<stop stop-color="#FEBBBA"/>
<stop offset="1" stop-color="#FF928E"/>
</linearGradient>
<linearGradient id="paint8_linear_498_5127" x1="269.655" y1="278.789" x2="251.221" y2="302.575" gradientUnits="userSpaceOnUse">
<stop stop-color="#09005D"/>
<stop offset="1" stop-color="#1A0F91"/>
</linearGradient>
<linearGradient id="paint9_linear_498_5127" x1="258.144" y1="287.577" x2="277.959" y2="302.771" gradientUnits="userSpaceOnUse">
<stop stop-color="#FEBBBA"/>
<stop offset="1" stop-color="#FF928E"/>
</linearGradient>
<linearGradient id="paint10_linear_498_5127" x1="185.361" y1="294.293" x2="193.164" y2="294.293" gradientUnits="userSpaceOnUse">
<stop stop-color="#FF928E"/>
<stop offset="1" stop-color="#FE7062"/>
</linearGradient>
<linearGradient id="paint11_linear_498_5127" x1="246.507" y1="337.162" x2="260.357" y2="357.982" gradientUnits="userSpaceOnUse">
<stop stop-color="#FEBBBA"/>
<stop offset="1" stop-color="#FF928E"/>
</linearGradient>
<linearGradient id="paint12_linear_498_5127" x1="270.845" y1="362.259" x2="239.938" y2="372.417" gradientUnits="userSpaceOnUse">
<stop stop-color="#202A43"/>
<stop offset="1" stop-color="#34305E"/>
</linearGradient>
<clipPath id="clip0_498_5127">
<rect width="320" height="315" fill="white" transform="translate(0 175)"/>
</clipPath>
</defs>
</svg>
