<svg width="367" height="493" viewBox="0 0 367 493" fill="none" xmlns="http://www.w3.org/2000/svg">
<path d="M28.8193 271.58V191.755H91.4539V139.098H270.91V152.966H336.73L337.814 271.58H28.8193Z" fill="#F1F2F5"/>
<path d="M229.775 93.7604H106.903C102.686 93.7604 99.2674 97.1838 99.2674 101.407V263.932C99.2674 268.155 102.686 271.579 106.903 271.579H229.775C233.992 271.579 237.411 268.155 237.411 263.932V101.407C237.411 97.1838 233.992 93.7604 229.775 93.7604Z" fill="#1D2238"/>
<path d="M228.806 104.348H107.872V260.991H228.806V104.348Z" fill="white"/>
<path d="M177.712 90.9685C177.684 88.498 176.684 86.1382 174.93 84.4011C173.175 82.664 170.807 81.6898 168.34 81.6898C165.872 81.6898 163.505 82.664 161.75 84.4011C159.995 86.1382 158.995 88.498 158.967 90.9685H150.282V105.842H186.398V90.9685H177.712ZM168.339 92.4545C167.686 92.4545 167.047 92.2605 166.504 91.8971C165.961 91.5336 165.538 91.0171 165.288 90.4127C165.038 89.8083 164.972 89.1433 165.1 88.5017C165.227 87.8601 165.542 87.2708 166.004 86.8082C166.466 86.3456 167.054 86.0306 167.695 85.903C168.336 85.7754 169 85.8409 169.603 86.0912C170.207 86.3416 170.723 86.7655 171.086 87.3094C171.449 87.8533 171.642 88.4928 171.642 89.147C171.642 90.0242 171.294 90.8654 170.675 91.4857C170.055 92.106 169.215 92.4545 168.339 92.4545V92.4545Z" fill="#62B3FE"/>
<path d="M223.866 120.707H142.009V125.713H223.866V120.707Z" fill="#F1F2F5"/>
<path d="M223.866 130.485H142.009V135.491H223.866V130.485Z" fill="#F1F2F5"/>
<path d="M181.902 140.261H142.009V145.268H181.902V140.261Z" fill="#F1F2F5"/>
<path d="M138.604 145.637H115.578V120.339H138.604V145.637ZM116.316 144.902H137.87V121.074H116.312L116.316 144.902Z" fill="#9EA9BD"/>
<path d="M124.011 125.185L129.407 132.701L144.28 118.69L146.921 122.107L128.635 139.602L120.75 128.156L124.011 125.185Z" fill="#62B3FE"/>
<path d="M223.866 152.966H142.009V157.972H223.866V152.966Z" fill="#F1F2F5"/>
<path d="M223.866 162.744H142.009V167.75H223.866V162.744Z" fill="#F1F2F5"/>
<path d="M181.902 172.521H142.009V177.527H181.902V172.521Z" fill="#F1F2F5"/>
<path d="M138.604 177.895H115.578V152.598H138.604V177.895ZM116.316 177.16H137.87V153.333H116.312L116.316 177.16Z" fill="#9EA9BD"/>
<path d="M124.011 157.444L129.407 164.959L144.28 150.949L146.921 154.365L128.635 171.861L120.75 160.415L124.011 157.444Z" fill="#62B3FE"/>
<path d="M223.866 185.225H142.009V190.232H223.866V185.225Z" fill="#F1F2F5"/>
<path d="M223.866 195.002H142.009V200.008H223.866V195.002Z" fill="#F1F2F5"/>
<path d="M181.902 204.78H142.009V209.786H181.902V204.78Z" fill="#F1F2F5"/>
<path d="M138.604 210.154H115.578V184.855H138.604V210.154ZM116.316 209.419H137.87V185.59H116.312L116.316 209.419Z" fill="#9EA9BD"/>
<path d="M124.011 189.702L129.407 197.218L144.28 183.209L146.921 186.624L128.635 204.119L120.75 192.674L124.011 189.702Z" fill="#62B3FE"/>
<path d="M223.866 217.484H142.009V222.491H223.866V217.484Z" fill="#F1F2F5"/>
<path d="M223.866 227.261H142.009V232.267H223.866V227.261Z" fill="#F1F2F5"/>
<path d="M181.902 237.038H142.009V242.044H181.902V237.038Z" fill="#F1F2F5"/>
<path d="M138.604 242.413H115.578V217.117H138.604V242.413ZM116.316 241.678H137.87V217.852H116.312L116.316 241.678Z" fill="#9EA9BD"/>
<path d="M124.011 221.962L129.407 229.477L144.28 215.467L146.921 218.883L128.635 236.379L120.75 224.932L124.011 221.962Z" fill="#62B3FE"/>
<path d="M298.345 233.342H260.32V271.58H298.345V233.342Z" fill="#9EA9BD"/>
<path d="M281.626 233.342H277.042V239.397H281.626V233.342Z" fill="#1D2238"/>
<path d="M325.571 233.342H298.345V271.58H325.571V233.342Z" fill="#D2D6E1"/>
<path d="M313.702 233.342H310.217V239.397H313.702V233.342Z" fill="#1D2238"/>
<path d="M291.018 160.16H252.993V233.342H291.018V160.16Z" fill="#EDB248"/>
<path d="M274.297 160.16H269.713V171.748H274.297V160.16Z" fill="#1D2238"/>
<path d="M318.243 160.16H291.018V233.342H318.243V160.16Z" fill="#F0C36A"/>
<path d="M306.373 160.16H302.888V171.748H306.373V160.16Z" fill="#1D2238"/>
<path d="M237.963 233.342H189.058V271.58H237.963V233.342Z" fill="#F0C36A"/>
<path d="M216.458 233.342H210.564V239.397H216.458V233.342Z" fill="#1D2238"/>
<path d="M270.324 233.342H237.963V271.58H270.324V233.342Z" fill="#F6DBA6"/>
<path d="M258.041 233.342H252.147V239.397H258.041V233.342Z" fill="#1D2238"/>
<path d="M233.095 195.102H195.07V233.341H233.095V195.102Z" fill="#D2D6E1"/>
<path d="M216.375 195.102H211.791V201.157H216.375V195.102Z" fill="#1D2238"/>
<path d="M260.32 195.102H233.095V233.341H260.32V195.102Z" fill="#F1F2F5"/>
<path d="M248.45 195.102H244.965V201.157H248.45V195.102Z" fill="#1D2238"/>
<path d="M346.984 271.274H19.8926V271.886H346.984V271.274Z" fill="#1D2238"/>
<path d="M80.9186 158.805L79.6574 159.649L72.929 149.581C72.8171 149.414 72.7762 149.209 72.8152 149.011C72.8542 148.814 72.9699 148.64 73.137 148.528V148.528C73.2199 148.472 73.3129 148.433 73.4107 148.414C73.5085 148.394 73.6092 148.394 73.707 148.414C73.8049 148.433 73.8979 148.472 73.9808 148.527C74.0638 148.583 74.1349 148.654 74.1903 148.737L80.9186 158.805Z" fill="#1D2238"/>
<path d="M74.2563 161.457C74.2563 161.457 74.7763 157.132 75.8565 156.932C76.9367 156.733 80.1381 156.81 80.7755 156.932C81.4128 157.055 83.1744 158.173 83.5353 159.295L76.703 165.941L74.2563 161.457Z" fill="#EB9481"/>
<path d="M67.9525 125.124C68.8457 126.321 69.4537 127.706 69.73 129.174C69.8976 130.117 69.6187 131.076 68.7868 131.552L64.1516 125.124H67.9525Z" fill="#1D2238"/>
<path d="M61.3502 123.987C59.4476 123.987 57.6152 124.707 56.2192 126.001C54.8233 127.296 53.9666 129.07 53.8206 130.97L53.7594 130.96L52.125 141.164C52.0386 141.699 52.0585 142.246 52.1834 142.773C52.3083 143.3 52.5359 143.797 52.8531 144.236C53.1702 144.675 53.5707 145.047 54.0317 145.331C54.4927 145.615 55.005 145.805 55.5393 145.89C57.7829 146.25 59.5029 146.889 60.2529 142.475L60.3678 141.751C60.6944 141.794 61.0233 141.816 61.3526 141.817V141.817C63.3559 141.817 65.277 141.02 66.6934 139.601C68.1098 138.183 68.9055 136.259 68.9055 134.253V131.558C68.9063 130.564 68.7114 129.579 68.3321 128.661C67.9528 127.742 67.3963 126.908 66.6947 126.204C65.993 125.501 65.1598 124.944 64.2428 124.563C63.3257 124.183 62.3428 123.987 61.3502 123.987V123.987Z" fill="#EB9481"/>
<path d="M65.9585 130.265C66.0166 130.461 66.064 130.659 66.1004 130.859C66.1224 130.959 66.1346 131.058 66.1505 131.157C66.1664 131.256 66.1823 131.356 66.1921 131.455C66.2154 131.652 66.2374 131.85 66.2472 132.049L66.268 132.345V132.643L65.9377 132.302C66.06 132.302 66.1897 132.294 66.3157 132.302C66.3805 132.302 66.4307 132.302 66.5395 132.312C66.6348 132.325 66.7278 132.35 66.816 132.388C66.989 132.464 67.1348 132.591 67.234 132.752C67.3332 132.913 67.3812 133.101 67.3714 133.29C67.3566 133.468 67.2899 133.639 67.1794 133.78C67.0718 133.913 66.9256 134.01 66.761 134.057C66.6814 134.079 66.5988 134.088 66.5163 134.084C66.447 134.077 66.3783 134.066 66.3108 134.049C66.1885 134.021 66.0588 133.989 65.9328 133.951C65.9304 133.951 65.9282 133.949 65.9264 133.948C65.9245 133.946 65.9229 133.944 65.9218 133.942C65.9206 133.94 65.9199 133.938 65.9197 133.935C65.9195 133.933 65.9198 133.93 65.9205 133.928C65.9218 133.924 65.9241 133.921 65.9272 133.919C65.9302 133.917 65.9339 133.916 65.9377 133.916H66.3157C66.3793 133.916 66.438 133.916 66.5028 133.916C66.5626 133.908 66.621 133.893 66.6766 133.869C66.788 133.823 66.8832 133.744 66.9502 133.644C67.0171 133.543 67.0529 133.425 67.0529 133.304C67.0529 133.183 67.0171 133.065 66.9502 132.964C66.8832 132.864 66.788 132.785 66.6766 132.739C66.6213 132.716 66.5633 132.702 66.5041 132.696C66.4466 132.696 66.3817 132.696 66.3181 132.696H65.9034V132.659C65.9034 131.866 65.9034 131.074 65.9218 130.281C65.9218 130.276 65.9237 130.272 65.9271 130.268C65.9306 130.265 65.9353 130.263 65.9401 130.263C65.9441 130.263 65.948 130.264 65.9511 130.266C65.9542 130.269 65.9564 130.272 65.9572 130.276L65.9585 130.265Z" fill="#1D2238"/>
<path d="M67.5207 130.847C67.8105 130.847 68.0455 130.612 68.0455 130.322C68.0455 130.031 67.8105 129.796 67.5207 129.796C67.2308 129.796 66.9958 130.031 66.9958 130.322C66.9958 130.612 67.2308 130.847 67.5207 130.847Z" fill="#1D2238"/>
<path d="M67.0839 135.633C67.0839 135.633 66.2153 134.365 63.6818 134.398L67.0839 135.633Z" fill="white"/>
<path d="M66.1982 128.204C66.1505 128.4 66.5567 128.665 67.1059 128.799C67.6552 128.932 68.1372 128.881 68.1837 128.685C68.2302 128.489 67.8253 128.223 67.2772 128.09C66.7292 127.956 66.2459 128.008 66.1982 128.204Z" fill="#1D2238"/>
<path d="M64.4807 131.092C64.7705 131.092 65.0055 130.857 65.0055 130.567C65.0055 130.276 64.7705 130.041 64.4807 130.041C64.1908 130.041 63.9559 130.276 63.9559 130.567C63.9559 130.857 64.1908 131.092 64.4807 131.092Z" fill="#1D2238"/>
<path d="M63.1619 128.944C63.2121 129.138 63.6965 129.182 64.2421 129.042C64.7877 128.901 65.1902 128.628 65.14 128.429C65.0899 128.231 64.6067 128.19 64.0598 128.331C63.513 128.472 63.1118 128.75 63.1619 128.944Z" fill="#1D2238"/>
<path d="M67.5941 135.989C67.2216 135.956 66.853 135.888 66.4931 135.786C66.312 135.744 66.1383 135.682 65.9609 135.63C65.7835 135.577 65.6123 135.507 65.4386 135.446C65.2648 135.385 65.096 135.309 64.926 135.235C64.7559 135.162 64.5883 135.086 64.4244 134.998C64.0869 134.832 63.765 134.636 63.4629 134.412V134.412C63.4615 134.411 63.4604 134.409 63.4597 134.407C63.4589 134.405 63.4586 134.403 63.4586 134.402C63.4586 134.4 63.4589 134.398 63.4597 134.396C63.4604 134.394 63.4615 134.393 63.4629 134.391C63.4653 134.389 63.4683 134.388 63.4714 134.388C63.4746 134.388 63.4776 134.389 63.48 134.391L65.5597 135.165L67.6234 135.968C67.6253 135.968 67.627 135.969 67.6285 135.971C67.63 135.972 67.6311 135.974 67.6319 135.976C67.6327 135.977 67.6332 135.979 67.6332 135.981C67.6332 135.983 67.6328 135.985 67.632 135.987C67.6308 135.99 67.6288 135.993 67.6261 135.994C67.6235 135.996 67.6205 135.997 67.6173 135.997L67.5941 135.989Z" fill="#1D2238"/>
<path d="M52.7318 131.729C52.7318 131.729 59.3121 125.924 65.682 125.933C65.682 125.933 68.4638 125.81 69.4914 128.169C69.4914 128.169 68.2681 118.534 57.6251 120.158C46.9821 121.782 51.2332 132.653 51.2332 132.653L52.7318 131.729Z" fill="#162F73"/>
<path d="M60.2272 127.112C60.2272 127.112 58.9316 128.688 56.2256 131.552C55.5552 132.26 54.3906 133.24 54.3906 133.24C54.3906 133.24 54.6708 131.757 54.1717 130.677C54.1766 130.677 57.2006 128.232 60.2272 127.112Z" fill="#1D2238"/>
<path d="M64.4073 125.784C64.4073 125.784 65.2404 127.295 67.3629 127.399C67.3629 127.399 63.9706 128.515 62.6481 126.153L64.4073 125.784Z" fill="#1D2238"/>
<path d="M53.2786 134.14L52.7771 137.1L51.2381 132.652L53.8206 130.976L53.2786 134.14Z" fill="#1D2238"/>
<path d="M53.2064 133.964C54.0368 133.964 54.7099 133.129 54.7099 132.1C54.7099 131.071 54.0368 130.237 53.2064 130.237C52.3761 130.237 51.703 131.071 51.703 132.1C51.703 133.129 52.3761 133.964 53.2064 133.964Z" fill="#EB9481"/>
<path d="M54.0713 131.591C53.9535 131.485 53.8147 131.405 53.664 131.357C53.6033 131.337 53.5395 131.327 53.4756 131.329C53.4195 131.328 53.3637 131.337 53.3104 131.354C53.2094 131.395 53.1184 131.458 53.0439 131.537C52.9693 131.617 52.9129 131.711 52.8786 131.815C52.857 131.872 52.8395 131.93 52.826 131.989C52.826 132.018 52.8138 132.049 52.8101 132.08V132.126V132.16C52.8101 132.17 52.8101 132.168 52.8101 132.171C52.8062 132.164 52.8017 132.156 52.7966 132.149C52.7745 132.118 52.7413 132.096 52.7037 132.088C52.6584 132.088 52.7281 132.108 52.7905 132.099C52.9251 132.085 53.0963 132.048 53.2676 132.021C53.4487 131.985 53.6356 131.993 53.8132 132.043H53.8193C53.8239 132.045 53.8275 132.048 53.8296 132.052C53.8317 132.057 53.8319 132.062 53.8303 132.066C53.829 132.07 53.8266 132.073 53.8236 132.075C53.8205 132.077 53.8169 132.078 53.8132 132.078C53.6497 132.096 53.4902 132.14 53.341 132.209C53.1869 132.269 53.0352 132.339 52.8713 132.388C52.7864 132.418 52.6953 132.425 52.607 132.408C52.5826 132.401 52.5599 132.39 52.5401 132.374C52.5204 132.358 52.504 132.338 52.492 132.316C52.4705 132.275 52.4583 132.229 52.4565 132.183C52.4486 132.01 52.4765 131.837 52.5385 131.675C52.5992 131.513 52.6992 131.367 52.8297 131.253C52.96 131.136 53.1249 131.064 53.2994 131.049C53.4728 131.037 53.6453 131.083 53.7888 131.182C53.9295 131.281 54.042 131.414 54.1154 131.57C54.1166 131.572 54.1174 131.575 54.1176 131.577C54.1178 131.579 54.1175 131.582 54.1167 131.584C54.1159 131.587 54.1146 131.589 54.1129 131.59C54.1112 131.592 54.1091 131.594 54.1068 131.595C54.1039 131.596 54.1005 131.597 54.097 131.597C54.0936 131.597 54.0902 131.596 54.0872 131.595L54.0713 131.591Z" fill="#1D2238"/>
<path d="M61.6266 126.606C61.6266 126.606 66.1395 120.55 71.5944 122.014C77.0492 123.478 69.4915 128.163 69.4915 128.163C69.4915 128.163 67.3898 124.617 61.6266 126.606Z" fill="#F1F2F5"/>
<path d="M57.1529 120.441C57.2043 120.707 56.6354 121.041 55.8843 121.187C55.1332 121.333 54.4799 121.235 54.4285 120.968C54.3772 120.7 54.946 120.368 55.6984 120.223C56.4507 120.077 57.1015 120.175 57.1529 120.441Z" fill="#1D2238"/>
<path d="M60.3654 141.751C59.1322 141.021 58.0027 140.129 57.0073 139.098C57.0073 139.098 57.734 141.621 60.2553 142.475L60.3654 141.751Z" fill="#1D2238"/>
<path d="M73.0917 262.275L84.5238 267.266C85.3594 267.631 86.0679 268.236 86.5592 269.005C87.0506 269.774 87.3027 270.672 87.2836 271.585L62.4279 271.531L63.7503 262.264L73.0917 262.275Z" fill="#4A4E60"/>
<path d="M62.4316 269.87C64.4794 269.993 66.5261 270.053 68.5739 270.097C69.5979 270.125 70.6218 270.132 71.6457 270.149L74.7163 270.171L77.7881 270.164C78.812 270.151 79.8359 270.148 80.8599 270.125C82.9077 270.088 84.9544 270.033 87.0022 269.923C84.9556 269.8 82.9077 269.739 80.8599 269.695C79.8372 269.667 78.8132 269.659 77.7893 269.642L74.7175 269.62L71.6469 269.629C70.623 269.642 69.5991 269.646 68.5752 269.669C66.5273 269.71 64.4794 269.765 62.4316 269.87Z" fill="#1D2238"/>
<path d="M69.2765 267.797C70.1579 266.914 70.1579 265.483 69.2765 264.601C68.395 263.718 66.9659 263.718 66.0845 264.601C65.2031 265.483 65.2031 266.914 66.0845 267.797C66.9659 268.68 68.395 268.68 69.2765 267.797Z" fill="#1D2238"/>
<path d="M82.9811 266.369C82.7131 266.263 82.4202 266.235 82.137 266.289C81.8693 266.337 81.6142 266.438 81.3871 266.588C81.1534 266.741 80.9566 266.944 80.811 267.182C80.6528 267.433 80.5834 267.73 80.614 268.025L80.6617 268.053C80.7279 267.952 80.8002 267.855 80.8782 267.762C80.9174 267.716 80.9516 267.667 81.0006 267.623L81.1229 267.495C81.2973 267.328 81.4879 267.178 81.6918 267.049C81.8929 266.914 82.1039 266.794 82.323 266.691C82.4315 266.64 82.5428 266.592 82.657 266.548C82.7683 266.501 82.8833 266.458 82.997 266.425L82.9811 266.369Z" fill="#1D2238"/>
<path d="M80.0635 265.122C79.7952 265.016 79.5026 264.989 79.2194 265.042C78.9517 265.09 78.6965 265.191 78.4695 265.341C78.236 265.494 78.0393 265.697 77.8933 265.935C77.7351 266.186 77.6658 266.483 77.6963 266.778L77.7453 266.806C77.8107 266.704 77.8826 266.607 77.9606 266.515C77.9997 266.469 78.0352 266.42 78.0829 266.377L78.2052 266.248C78.3797 266.081 78.5702 265.931 78.7741 265.802C78.9753 265.667 79.1863 265.548 79.4053 265.445C79.5142 265.394 79.6255 265.345 79.7393 265.302C79.8531 265.259 79.9656 265.213 80.0806 265.179L80.0635 265.122Z" fill="#1D2238"/>
<path d="M77.3636 263.99C77.0955 263.884 76.8027 263.856 76.5195 263.91C76.2518 263.957 75.9966 264.059 75.7696 264.208C75.5361 264.362 75.339 264.564 75.1922 264.802C75.035 265.054 74.9661 265.351 74.9964 265.646L75.0442 265.673C75.1104 265.572 75.1827 265.475 75.2607 265.383C75.2998 265.336 75.3341 265.287 75.3769 265.244L75.4992 265.115C75.6737 264.948 75.8642 264.798 76.0681 264.669C76.2693 264.534 76.4803 264.415 76.6993 264.312C76.8086 264.261 76.9199 264.213 77.0333 264.169C77.1446 264.122 77.2596 264.079 77.3734 264.046L77.3636 263.99Z" fill="#1D2238"/>
<path d="M58.1928 262.275L69.626 267.266C70.4617 267.631 71.1701 268.236 71.6615 269.005C72.1529 269.774 72.405 270.672 72.3859 271.585L47.5302 271.531L48.8526 262.264L58.1928 262.275Z" fill="#9EA9BD"/>
<path d="M47.5338 269.87C49.5817 269.993 51.6283 270.053 53.6762 270.097C54.7001 270.125 55.7241 270.132 56.748 270.149L59.8186 270.171L62.8904 270.164C63.9143 270.151 64.9382 270.148 65.9621 270.125C68.0088 270.088 70.0566 270.033 72.1045 269.923C70.0579 269.8 68.01 269.739 65.9621 269.695C64.9394 269.667 63.9155 269.659 62.8916 269.642L59.821 269.625L56.7492 269.634C55.7265 269.647 54.7026 269.651 53.6786 269.674C51.6247 269.71 49.5817 269.765 47.5338 269.87Z" fill="#1D2238"/>
<path d="M54.3785 267.796C55.26 266.914 55.26 265.482 54.3785 264.6C53.4971 263.717 52.068 263.717 51.1866 264.6C50.3052 265.482 50.3052 266.914 51.1866 267.796C52.068 268.679 53.4971 268.679 54.3785 267.796Z" fill="#1D2238"/>
<path d="M68.0834 266.369C67.8153 266.263 67.5225 266.235 67.2393 266.289C66.9715 266.337 66.7163 266.438 66.4894 266.588C66.2556 266.741 66.0584 266.944 65.912 267.182C65.7548 267.434 65.6859 267.73 65.7162 268.025L65.7639 268.053C65.8302 267.952 65.9025 267.855 65.9805 267.762C66.0196 267.716 66.0539 267.667 66.0967 267.623L66.219 267.495C66.3956 267.329 66.5882 267.18 66.794 267.053C66.9952 266.918 67.2062 266.798 67.4252 266.695C67.5337 266.643 67.645 266.596 67.7592 266.551C67.8705 266.505 67.9855 266.462 68.0993 266.429L68.0834 266.369Z" fill="#1D2238"/>
<path d="M65.1658 265.122C64.8975 265.016 64.6049 264.989 64.3216 265.042C64.054 265.09 63.7988 265.191 63.5717 265.341C63.3382 265.495 63.1411 265.697 62.9943 265.935C62.8371 266.187 62.7682 266.483 62.7986 266.778L62.8463 266.806C62.9125 266.705 62.9848 266.607 63.0628 266.515C63.102 266.469 63.1362 266.42 63.1852 266.377L63.3075 266.248C63.4819 266.081 63.6725 265.931 63.8764 265.802C64.0776 265.667 64.2886 265.548 64.5076 265.445C64.6165 265.394 64.7278 265.345 64.8416 265.302C64.9553 265.259 65.0679 265.213 65.1817 265.179L65.1658 265.122Z" fill="#1D2238"/>
<path d="M62.4658 263.99C62.1977 263.884 61.9049 263.856 61.6217 263.91C61.3541 263.957 61.0988 264.059 60.8718 264.208C60.6383 264.362 60.4412 264.564 60.2944 264.802C60.1372 265.054 60.0683 265.351 60.0987 265.646L60.1464 265.673C60.2126 265.572 60.2849 265.475 60.3629 265.383C60.4021 265.336 60.4363 265.287 60.4791 265.244L60.6015 265.115C60.7759 264.948 60.9665 264.798 61.1703 264.669C61.3713 264.535 61.5818 264.415 61.8003 264.312C61.9104 264.261 62.0218 264.213 62.1355 264.169C62.2493 264.125 62.3618 264.079 62.4756 264.046L62.4658 263.99Z" fill="#1D2238"/>
<path d="M77.0443 262.187L74.8117 216.284C74.7484 214.994 74.596 213.711 74.3554 212.442L69.6077 187.495L40.8593 185.245C40.8593 185.245 38.0359 196.744 43.8223 207.814L46.7998 262.551L62.1441 262.453V262.281L77.0443 262.187Z" fill="#1D2238"/>
<path d="M59.8393 188.998L60.0351 191.289L60.2186 193.579L60.5856 198.162L61.2547 207.331L61.4223 209.624L61.574 211.918L61.8762 216.505L62.4781 225.679L62.5123 226.253C62.5221 226.444 62.5123 226.636 62.5123 226.827V227.977L62.505 230.276L62.4891 234.873L62.4732 239.469L62.4634 241.768L62.4389 244.067L62.3423 253.26L62.264 257.858L62.2236 260.156L62.171 262.453H62.1306L62.1196 244.078V234.89V230.295V226.848C62.1196 226.657 62.1257 226.466 62.1196 226.275L62.0829 225.701L59.8185 189.009L59.8393 188.998Z" fill="#4A4E60"/>
<path d="M82.4833 173.556L78.538 167.415L69.4376 169.881L67.0607 153.548C67.0374 153.373 67.0154 153.224 66.9959 153.107C66.4001 149.514 60.0534 143.264 60.0534 143.264L58.6515 144.709L52.125 141.17C52.125 141.17 46.702 143.353 43.3696 147.588C40.0373 151.823 40.8618 185.245 40.8618 185.245C40.8618 185.245 47.5987 190.711 52.4724 191.615C57.3462 192.519 70.1349 189.004 70.1349 189.004C70.1349 189.004 69.9135 186.199 69.5869 182.151L82.4833 173.556Z" fill="#1E3F94"/>
<path d="M58.6515 144.709L55.5773 147.35C55.3349 147.559 55.0262 147.675 54.7066 147.676C54.387 147.678 54.0772 147.565 53.8328 147.359C52.4137 146.156 49.8949 143.684 50.6864 141.846L52.125 141.17L58.6515 144.709Z" fill="white"/>
<path d="M58.6515 144.709L60.1684 146.348C60.2641 146.452 60.3828 146.531 60.5149 146.579C60.6469 146.628 60.7886 146.645 60.9283 146.628C61.068 146.611 61.2018 146.562 61.3187 146.483C61.4356 146.405 61.5323 146.3 61.6009 146.177L62.0475 145.379L60.0534 143.264L58.6515 144.709Z" fill="white"/>
<path d="M50.5359 151.789L56.2085 168.027L73.8538 159.085L76.6455 165.945L60.9428 178.948C59.4495 180.185 57.6138 180.934 55.6825 181.095C54.0722 181.231 52.454 180.952 50.9817 180.285C49.5093 179.618 48.2315 178.586 47.2696 177.286C44.6113 173.693 41.2447 168.769 40.9083 166.463C40.337 162.6 37.4254 155.241 43.3708 147.588L50.5359 151.789Z" fill="#1E3F94"/>
<path d="M67.9072 162.103C66.9514 162.635 65.9919 163.159 65.0287 163.676C64.0672 164.197 63.1008 164.706 62.1355 165.218C61.1703 165.73 60.2015 166.237 59.2301 166.737C58.2588 167.237 57.2911 167.745 56.3161 168.239L56.0397 168.379L55.9761 168.074C55.8305 167.373 55.6702 166.67 55.5051 165.97C55.3399 165.271 55.1748 164.57 54.9974 163.872C54.6414 162.479 54.2707 161.088 53.8548 159.707C53.4389 158.326 52.9985 156.962 52.4761 155.623C52.2143 154.954 51.9378 154.29 51.6198 153.646C51.3127 152.994 50.9492 152.371 50.5334 151.784C50.9988 152.339 51.4085 152.938 51.7568 153.573C52.1079 154.207 52.4308 154.856 52.7208 155.52C53.3067 156.844 53.7985 158.208 54.2499 159.582C54.7013 160.956 55.0977 162.348 55.4574 163.747C55.817 165.146 56.151 166.554 56.436 167.975L56.0972 167.809C57.0758 167.319 58.0545 166.829 59.0332 166.348C60.0118 165.866 60.9905 165.386 61.9765 164.905C62.9625 164.423 63.9436 163.953 64.9321 163.485C65.9205 163.017 66.9163 162.56 67.9072 162.103Z" fill="#1D2238"/>
<path d="M40.907 166.463L41.4955 167.529L42.0765 168.598C42.4648 169.309 42.8562 170.019 43.2509 170.728C43.6436 171.438 44.0376 172.146 44.4413 172.849L45.0529 173.901C45.2572 174.254 45.4566 174.608 45.6548 174.962C46.4487 176.372 47.2268 177.799 48.2948 178.975C48.5604 179.266 48.8466 179.538 49.1511 179.788C49.2991 179.911 49.4618 180.026 49.6196 180.14C49.7774 180.254 49.9475 180.352 50.1212 180.441C50.8128 180.813 51.5622 181.066 52.3379 181.187C53.8927 181.448 55.5185 181.26 57.0269 180.788C57.7872 180.553 58.5224 180.243 59.2216 179.862C59.5703 179.671 59.9092 179.462 60.2369 179.236C60.5636 179.011 60.8706 178.761 61.1875 178.501C62.4459 177.479 63.71 176.463 64.9798 175.452L66.887 173.943L67.8412 173.188L68.8015 172.441L67.8889 173.246L66.9702 174.043L65.1352 175.636C63.9045 176.693 62.671 177.746 61.4346 178.794C61.1287 179.055 60.8119 179.324 60.4779 179.568C60.1411 179.808 59.7924 180.03 59.4332 180.234C58.7134 180.639 57.9553 180.972 57.17 181.227C56.3825 181.482 55.5701 181.652 54.7466 181.735C53.9185 181.819 53.083 181.796 52.2608 181.666C51.4328 181.532 50.6334 181.258 49.8961 180.858C49.7089 180.76 49.5291 180.643 49.3566 180.531C49.1841 180.418 49.0128 180.286 48.8563 180.15C48.5339 179.885 48.2332 179.594 47.9571 179.281C47.4175 178.657 46.934 177.987 46.5124 177.277C46.0866 176.579 45.7037 175.859 45.3257 175.141C45.1365 174.782 44.9453 174.426 44.752 174.071C44.5562 173.715 44.3617 173.358 44.1721 172.999C43.7913 172.282 43.4177 171.561 43.0515 170.836C42.6854 170.112 42.3216 169.385 41.9603 168.657L41.4282 167.563L40.907 166.463Z" fill="#1D2238"/>
<path d="M54.1496 173.888C54.1068 173.741 54.0726 173.591 54.0395 173.44C54.003 173.291 53.9772 173.138 53.9625 172.985C53.9284 172.678 53.9206 172.368 53.9392 172.06C53.9699 171.436 54.0978 170.821 54.3184 170.237C54.535 169.651 54.843 169.104 55.2311 168.615C55.6064 168.12 56.0831 167.711 56.6293 167.415C56.2957 167.903 55.9898 168.411 55.713 168.934C55.4419 169.438 55.2056 169.96 55.006 170.497C54.8034 171.033 54.6371 171.582 54.5081 172.141C54.4273 172.42 54.3857 172.708 54.3221 172.998C54.2585 173.289 54.2279 173.585 54.1496 173.888Z" fill="#1D2238"/>
<path d="M78.3875 172.284L71.1038 169.236C70.9993 169.193 70.9075 169.123 70.8367 169.035C70.766 168.947 70.7185 168.842 70.6988 168.73C70.6791 168.618 70.6877 168.504 70.7238 168.396C70.76 168.289 70.8225 168.192 70.9056 168.115L89.6948 150.689C89.7716 150.617 89.8639 150.565 89.9643 150.536C90.0648 150.506 90.1707 150.501 90.2737 150.519C90.3766 150.538 90.4739 150.58 90.5577 150.643C90.6415 150.706 90.7096 150.787 90.7567 150.881L94.7337 158.782C94.807 158.928 94.8284 159.095 94.7944 159.255C94.7604 159.415 94.6729 159.558 94.5465 159.662L79.3234 172.147C79.1945 172.253 79.0394 172.321 78.8745 172.346C78.7096 172.37 78.5413 172.348 78.3875 172.284V172.284Z" fill="#4A4E60"/>
<path d="M69.4914 182.209C69.3691 181.461 69.2761 180.71 69.1893 179.959C69.144 179.583 69.1036 179.207 69.0669 178.83C69.0302 178.454 68.9899 178.078 68.9581 177.702C68.8859 176.95 68.8284 176.195 68.7709 175.442C68.7403 175.066 68.7207 174.689 68.695 174.311C68.6694 173.934 68.6449 173.558 68.6278 173.18L68.6204 173.033L68.7428 172.966C69.1098 172.765 69.4768 172.56 69.8511 172.362C70.2254 172.165 70.5924 171.964 70.968 171.773C71.3436 171.582 71.7155 171.386 72.0935 171.2C72.4715 171.014 72.8507 170.832 73.2336 170.651C72.887 170.896 72.5375 171.132 72.1852 171.358C71.8329 171.591 71.4769 171.816 71.1209 172.041C70.7649 172.267 70.4065 172.486 70.0493 172.709C69.6921 172.932 69.3275 173.144 68.9679 173.361L69.0816 173.148C69.1171 173.524 69.144 173.901 69.1734 174.278C69.2027 174.656 69.2358 175.03 69.2566 175.408C69.3067 176.162 69.3556 176.916 69.3899 177.672C69.4107 178.049 69.4266 178.426 69.4401 178.805C69.4535 179.183 69.4682 179.559 69.4768 179.938C69.4939 180.69 69.5037 181.451 69.4914 182.209Z" fill="#1D2238"/>
<path d="M87.8182 166.37C87.7889 166.182 87.7362 165.994 87.6959 165.812C87.6017 165.435 87.5124 165.057 87.4206 164.678C87.2934 164.153 87.1658 163.627 87.0377 163.101C86.9754 162.844 86.8137 162.623 86.588 162.485C86.3624 162.347 86.0914 162.305 85.8346 162.367C85.5778 162.429 85.3562 162.591 85.2187 162.817C85.0812 163.043 85.0389 163.315 85.1012 163.572L85.1379 163.723C84.9777 163.586 84.7785 163.504 84.5689 163.488C84.3593 163.472 84.15 163.523 83.9711 163.634C83.7921 163.744 83.6526 163.908 83.5726 164.103C83.4926 164.298 83.4761 164.513 83.5255 164.717C83.5659 164.884 83.6063 165.049 83.6479 165.216C83.621 165.166 83.5814 165.123 83.5329 165.093C83.2111 164.875 82.6765 164.928 82.4625 165.277C82.3401 165.487 82.3756 165.729 82.3927 165.962C82.471 167.022 82.6239 168.08 82.7402 169.137L80.8024 170.94L81.2452 171.632C81.6453 171.494 82.0159 171.416 82.416 171.277C82.9481 171.093 83.4937 170.944 84.0063 170.715C84.407 170.525 84.7779 170.277 85.1073 169.98C85.7548 169.411 86.3561 168.792 86.9056 168.128C87.1613 167.828 87.4145 167.523 87.6518 167.208C87.7365 167.087 87.7951 166.951 87.8238 166.806C87.8524 166.662 87.8505 166.513 87.8182 166.37Z" fill="#EB9481"/>
<path d="M82.7353 169.135C82.7353 169.135 82.5175 169.969 82.9273 170.585C82.9273 170.585 82.208 170.417 82.4588 169.391L82.7353 169.135Z" fill="#1D2238"/>
<path d="M85.133 163.723C85.4148 163.943 85.6226 164.245 85.7288 164.587C85.8364 164.923 85.9208 165.262 86.0077 165.602C86.0945 165.941 86.1704 166.283 86.2413 166.626L86.3465 167.14C86.3771 167.313 86.4114 167.485 86.4383 167.658C86.3845 167.491 86.3392 167.323 86.289 167.154L86.1508 166.648C86.0578 166.31 85.9747 165.97 85.889 165.631L85.6444 164.613C85.6028 164.446 85.5372 164.287 85.4498 164.139C85.3624 163.987 85.2559 163.847 85.133 163.723V163.723Z" fill="#1D2238"/>
<path d="M83.6418 165.217C83.919 165.379 84.1278 165.636 84.229 165.941C84.3183 166.242 84.3806 166.546 84.4467 166.85C84.5128 167.154 84.569 167.462 84.6168 167.767L84.6902 168.228C84.7097 168.382 84.733 168.536 84.7489 168.691C84.7061 168.54 84.6706 168.39 84.6265 168.239L84.5201 167.786C84.4492 167.483 84.3868 167.173 84.3219 166.876C84.2571 166.578 84.1996 166.263 84.1335 165.966C84.1009 165.818 84.0375 165.68 83.9476 165.559C83.8604 165.432 83.7577 165.318 83.6418 165.217V165.217Z" fill="#1D2238"/>
<path d="M71.9907 168.027C72.7125 167.319 73.4465 166.626 74.178 165.929C74.9096 165.232 75.646 164.54 76.38 163.846L78.5992 161.783L80.8305 159.734C82.3254 158.375 83.8191 157.016 85.3251 155.669L86.453 154.659L87.5907 153.654C88.3451 152.983 89.1023 152.315 89.8624 151.65L90.0459 151.49L90.1523 151.702L91.0087 153.417L91.865 155.132L92.7067 156.847C92.988 157.418 93.2653 157.994 93.5385 158.574C93.2205 158.02 92.9061 157.464 92.5953 156.905L91.6595 155.232L90.7359 153.554L89.8208 151.871L90.1107 151.922C89.3718 152.611 88.6297 153.296 87.8843 153.978L86.7686 155.003L85.6468 156.021C84.1543 157.382 82.6496 158.728 81.1449 160.076L78.8781 162.086L76.5978 164.083C75.8344 164.744 75.0735 165.408 74.3028 166.061C73.5321 166.714 72.7675 167.382 71.9907 168.027Z" fill="#1D2238"/>
<path d="M136.616 332.112C135.838 332.112 135.134 331.979 134.504 331.712C133.886 331.445 133.395 331.061 133.032 330.56C132.67 330.059 132.483 329.467 132.472 328.784H134.872C134.904 329.243 135.064 329.605 135.352 329.872C135.651 330.139 136.056 330.272 136.568 330.272C137.091 330.272 137.502 330.149 137.8 329.904C138.099 329.648 138.248 329.317 138.248 328.912C138.248 328.581 138.147 328.309 137.944 328.096C137.742 327.883 137.486 327.717 137.176 327.6C136.878 327.472 136.462 327.333 135.928 327.184C135.203 326.971 134.611 326.763 134.152 326.56C133.704 326.347 133.315 326.032 132.984 325.616C132.664 325.189 132.504 324.624 132.504 323.92C132.504 323.259 132.67 322.683 133 322.192C133.331 321.701 133.795 321.328 134.392 321.072C134.99 320.805 135.672 320.672 136.44 320.672C137.592 320.672 138.526 320.955 139.24 321.52C139.966 322.075 140.366 322.853 140.44 323.856H137.976C137.955 323.472 137.79 323.157 137.48 322.912C137.182 322.656 136.782 322.528 136.28 322.528C135.843 322.528 135.491 322.64 135.224 322.864C134.968 323.088 134.84 323.413 134.84 323.84C134.84 324.139 134.936 324.389 135.128 324.592C135.331 324.784 135.576 324.944 135.864 325.072C136.163 325.189 136.579 325.328 137.112 325.488C137.838 325.701 138.43 325.915 138.888 326.128C139.347 326.341 139.742 326.661 140.072 327.088C140.403 327.515 140.568 328.075 140.568 328.768C140.568 329.365 140.414 329.92 140.104 330.432C139.795 330.944 139.342 331.355 138.744 331.664C138.147 331.963 137.438 332.112 136.616 332.112ZM145.118 324.976V329.264C145.118 329.563 145.188 329.781 145.326 329.92C145.476 330.048 145.721 330.112 146.062 330.112H147.102V332H145.694C143.806 332 142.862 331.083 142.862 329.248V324.976H141.806V323.136H142.862V320.944H145.118V323.136H147.102V324.976H145.118ZM148.137 327.536C148.137 326.64 148.313 325.845 148.665 325.152C149.028 324.459 149.513 323.925 150.121 323.552C150.74 323.179 151.428 322.992 152.185 322.992C152.847 322.992 153.423 323.125 153.913 323.392C154.415 323.659 154.815 323.995 155.113 324.4V323.136H157.369V332H155.113V330.704C154.825 331.12 154.425 331.467 153.913 331.744C153.412 332.011 152.831 332.144 152.169 332.144C151.423 332.144 150.74 331.952 150.121 331.568C149.513 331.184 149.028 330.645 148.665 329.952C148.313 329.248 148.137 328.443 148.137 327.536ZM155.113 327.568C155.113 327.024 155.007 326.56 154.793 326.176C154.58 325.781 154.292 325.483 153.929 325.28C153.567 325.067 153.177 324.96 152.761 324.96C152.345 324.96 151.961 325.061 151.609 325.264C151.257 325.467 150.969 325.765 150.745 326.16C150.532 326.544 150.425 327.003 150.425 327.536C150.425 328.069 150.532 328.539 150.745 328.944C150.969 329.339 151.257 329.643 151.609 329.856C151.972 330.069 152.356 330.176 152.761 330.176C153.177 330.176 153.567 330.075 153.929 329.872C154.292 329.659 154.58 329.36 154.793 328.976C155.007 328.581 155.113 328.112 155.113 327.568ZM161.797 324.512C162.085 324.043 162.458 323.675 162.917 323.408C163.386 323.141 163.92 323.008 164.517 323.008V325.36H163.925C163.221 325.36 162.688 325.525 162.325 325.856C161.973 326.187 161.797 326.763 161.797 327.584V332H159.557V323.136H161.797V324.512ZM168.634 324.976V329.264C168.634 329.563 168.703 329.781 168.842 329.92C168.991 330.048 169.237 330.112 169.578 330.112H170.618V332H169.21C167.322 332 166.378 331.083 166.378 329.248V324.976H165.322V323.136H166.378V320.944H168.634V323.136H170.618V324.976H168.634ZM175.465 327.536C175.465 326.64 175.641 325.845 175.993 325.152C176.356 324.459 176.842 323.925 177.45 323.552C178.068 323.179 178.756 322.992 179.514 322.992C180.175 322.992 180.751 323.125 181.242 323.392C181.743 323.659 182.143 323.995 182.442 324.4V323.136H184.698V332H182.442V330.704C182.154 331.12 181.754 331.467 181.242 331.744C180.74 332.011 180.159 332.144 179.498 332.144C178.751 332.144 178.068 331.952 177.45 331.568C176.842 331.184 176.356 330.645 175.993 329.952C175.641 329.248 175.465 328.443 175.465 327.536ZM182.442 327.568C182.442 327.024 182.335 326.56 182.122 326.176C181.908 325.781 181.62 325.483 181.258 325.28C180.895 325.067 180.506 324.96 180.09 324.96C179.674 324.96 179.29 325.061 178.938 325.264C178.586 325.467 178.298 325.765 178.074 326.16C177.86 326.544 177.754 327.003 177.754 327.536C177.754 328.069 177.86 328.539 178.074 328.944C178.298 329.339 178.586 329.643 178.938 329.856C179.3 330.069 179.684 330.176 180.09 330.176C180.506 330.176 180.895 330.075 181.258 329.872C181.62 329.659 181.908 329.36 182.122 328.976C182.335 328.581 182.442 328.112 182.442 327.568ZM186.309 327.536C186.309 326.64 186.485 325.845 186.837 325.152C187.2 324.459 187.691 323.925 188.309 323.552C188.928 323.179 189.616 322.992 190.373 322.992C190.949 322.992 191.499 323.12 192.021 323.376C192.544 323.621 192.96 323.952 193.269 324.368V320.16H195.541V332H193.269V330.688C192.992 331.125 192.603 331.477 192.101 331.744C191.6 332.011 191.019 332.144 190.357 332.144C189.611 332.144 188.928 331.952 188.309 331.568C187.691 331.184 187.2 330.645 186.837 329.952C186.485 329.248 186.309 328.443 186.309 327.536ZM193.285 327.568C193.285 327.024 193.179 326.56 192.965 326.176C192.752 325.781 192.464 325.483 192.101 325.28C191.739 325.067 191.349 324.96 190.933 324.96C190.517 324.96 190.133 325.061 189.781 325.264C189.429 325.467 189.141 325.765 188.917 326.16C188.704 326.544 188.597 327.003 188.597 327.536C188.597 328.069 188.704 328.539 188.917 328.944C189.141 329.339 189.429 329.643 189.781 329.856C190.144 330.069 190.528 330.176 190.933 330.176C191.349 330.176 191.739 330.075 192.101 329.872C192.464 329.659 192.752 329.36 192.965 328.976C193.179 328.581 193.285 328.112 193.285 327.568ZM197.153 327.536C197.153 326.64 197.329 325.845 197.681 325.152C198.044 324.459 198.534 323.925 199.153 323.552C199.772 323.179 200.46 322.992 201.217 322.992C201.793 322.992 202.342 323.12 202.865 323.376C203.388 323.621 203.804 323.952 204.113 324.368V320.16H206.385V332H204.113V330.688C203.836 331.125 203.446 331.477 202.945 331.744C202.444 332.011 201.862 332.144 201.201 332.144C200.454 332.144 199.772 331.952 199.153 331.568C198.534 331.184 198.044 330.645 197.681 329.952C197.329 329.248 197.153 328.443 197.153 327.536ZM204.129 327.568C204.129 327.024 204.022 326.56 203.809 326.176C203.596 325.781 203.308 325.483 202.945 325.28C202.582 325.067 202.193 324.96 201.777 324.96C201.361 324.96 200.977 325.061 200.625 325.264C200.273 325.467 199.985 325.765 199.761 326.16C199.548 326.544 199.441 327.003 199.441 327.536C199.441 328.069 199.548 328.539 199.761 328.944C199.985 329.339 200.273 329.643 200.625 329.856C200.988 330.069 201.372 330.176 201.777 330.176C202.193 330.176 202.582 330.075 202.945 329.872C203.308 329.659 203.596 329.36 203.809 328.976C204.022 328.581 204.129 328.112 204.129 327.568ZM209.709 322.08C209.314 322.08 208.983 321.957 208.717 321.712C208.461 321.456 208.333 321.141 208.333 320.768C208.333 320.395 208.461 320.085 208.717 319.84C208.983 319.584 209.314 319.456 209.709 319.456C210.103 319.456 210.429 319.584 210.685 319.84C210.951 320.085 211.085 320.395 211.085 320.768C211.085 321.141 210.951 321.456 210.685 321.712C210.429 321.957 210.103 322.08 209.709 322.08ZM210.813 323.136V332H208.573V323.136H210.813ZM217.938 323.008C218.994 323.008 219.847 323.344 220.498 324.016C221.149 324.677 221.474 325.605 221.474 326.8V332H219.234V327.104C219.234 326.4 219.058 325.861 218.706 325.488C218.354 325.104 217.874 324.912 217.266 324.912C216.647 324.912 216.157 325.104 215.794 325.488C215.442 325.861 215.266 326.4 215.266 327.104V332H213.026V323.136H215.266V324.24C215.565 323.856 215.943 323.557 216.402 323.344C216.871 323.12 217.383 323.008 217.938 323.008ZM227.076 322.992C227.737 322.992 228.319 323.125 228.82 323.392C229.321 323.648 229.716 323.984 230.004 324.4V323.136H232.26V332.064C232.26 332.885 232.095 333.616 231.764 334.256C231.433 334.907 230.937 335.419 230.276 335.792C229.615 336.176 228.815 336.368 227.876 336.368C226.617 336.368 225.583 336.075 224.772 335.488C223.972 334.901 223.519 334.101 223.412 333.088H225.636C225.753 333.493 226.004 333.813 226.388 334.048C226.783 334.293 227.257 334.416 227.812 334.416C228.463 334.416 228.991 334.219 229.396 333.824C229.801 333.44 230.004 332.853 230.004 332.064V330.688C229.716 331.104 229.316 331.451 228.804 331.728C228.303 332.005 227.727 332.144 227.076 332.144C226.329 332.144 225.647 331.952 225.028 331.568C224.409 331.184 223.919 330.645 223.556 329.952C223.204 329.248 223.028 328.443 223.028 327.536C223.028 326.64 223.204 325.845 223.556 325.152C223.919 324.459 224.404 323.925 225.012 323.552C225.631 323.179 226.319 322.992 227.076 322.992ZM230.004 327.568C230.004 327.024 229.897 326.56 229.684 326.176C229.471 325.781 229.183 325.483 228.82 325.28C228.457 325.067 228.068 324.96 227.652 324.96C227.236 324.96 226.852 325.061 226.5 325.264C226.148 325.467 225.86 325.765 225.636 326.16C225.423 326.544 225.316 327.003 225.316 327.536C225.316 328.069 225.423 328.539 225.636 328.944C225.86 329.339 226.148 329.643 226.5 329.856C226.863 330.069 227.247 330.176 227.652 330.176C228.068 330.176 228.457 330.075 228.82 329.872C229.183 329.659 229.471 329.36 229.684 328.976C229.897 328.581 230.004 328.112 230.004 327.568ZM70.5237 344.832V356H68.2837V344.832H70.5237ZM75.3448 348.976V353.264C75.3448 353.563 75.4141 353.781 75.5528 353.92C75.7021 354.048 75.9475 354.112 76.2888 354.112H77.3288V356H75.9208C74.0328 356 73.0888 355.083 73.0888 353.248V348.976H72.0328V347.136H73.0888V344.944H75.3448V347.136H77.3288V348.976H75.3448ZM87.1799 351.376C87.1799 351.696 87.1586 351.984 87.1159 352.24H80.6359C80.6893 352.88 80.9133 353.381 81.3079 353.744C81.7026 354.107 82.1879 354.288 82.7639 354.288C83.5959 354.288 84.1879 353.931 84.5399 353.216H86.9559C86.6999 354.069 86.2093 354.773 85.4839 355.328C84.7586 355.872 83.8679 356.144 82.8119 356.144C81.9586 356.144 81.1906 355.957 80.5079 355.584C79.8359 355.2 79.3079 354.661 78.9239 353.968C78.5506 353.275 78.3639 352.475 78.3639 351.568C78.3639 350.651 78.5506 349.845 78.9239 349.152C79.2973 348.459 79.8199 347.925 80.4919 347.552C81.1639 347.179 81.9373 346.992 82.8119 346.992C83.6546 346.992 84.4066 347.173 85.0679 347.536C85.7399 347.899 86.2573 348.416 86.6199 349.088C86.9933 349.749 87.1799 350.512 87.1799 351.376ZM84.8599 350.736C84.8493 350.16 84.6413 349.701 84.2359 349.36C83.8306 349.008 83.3346 348.832 82.7479 348.832C82.1933 348.832 81.7239 349.003 81.3399 349.344C80.9666 349.675 80.7373 350.139 80.6519 350.736H84.8599ZM99.8229 347.008C100.911 347.008 101.786 347.344 102.447 348.016C103.119 348.677 103.455 349.605 103.455 350.8V356H101.215V351.104C101.215 350.411 101.039 349.883 100.687 349.52C100.335 349.147 99.8549 348.96 99.2469 348.96C98.6389 348.96 98.1536 349.147 97.7909 349.52C97.4389 349.883 97.2629 350.411 97.2629 351.104V356H95.0229V351.104C95.0229 350.411 94.8469 349.883 94.4949 349.52C94.1429 349.147 93.6629 348.96 93.0549 348.96C92.4363 348.96 91.9456 349.147 91.5829 349.52C91.2309 349.883 91.0549 350.411 91.0549 351.104V356H88.8149V347.136H91.0549V348.208C91.3429 347.835 91.7109 347.541 92.1589 347.328C92.6176 347.115 93.1189 347.008 93.6629 347.008C94.3563 347.008 94.9749 347.157 95.5189 347.456C96.0629 347.744 96.4843 348.16 96.7829 348.704C97.0709 348.192 97.4869 347.781 98.0309 347.472C98.5856 347.163 99.1829 347.008 99.8229 347.008ZM108.973 356.144C108.247 356.144 107.597 356.016 107.021 355.76C106.445 355.493 105.986 355.136 105.645 354.688C105.314 354.24 105.133 353.744 105.101 353.2H107.357C107.399 353.541 107.565 353.824 107.853 354.048C108.151 354.272 108.519 354.384 108.957 354.384C109.383 354.384 109.714 354.299 109.949 354.128C110.194 353.957 110.317 353.739 110.317 353.472C110.317 353.184 110.167 352.971 109.869 352.832C109.581 352.683 109.117 352.523 108.477 352.352C107.815 352.192 107.271 352.027 106.845 351.856C106.429 351.685 106.066 351.424 105.757 351.072C105.458 350.72 105.309 350.245 105.309 349.648C105.309 349.157 105.447 348.709 105.725 348.304C106.013 347.899 106.418 347.579 106.941 347.344C107.474 347.109 108.098 346.992 108.813 346.992C109.869 346.992 110.711 347.259 111.341 347.792C111.97 348.315 112.317 349.024 112.381 349.92H110.237C110.205 349.568 110.055 349.291 109.789 349.088C109.533 348.875 109.186 348.768 108.749 348.768C108.343 348.768 108.029 348.843 107.805 348.992C107.591 349.141 107.485 349.349 107.485 349.616C107.485 349.915 107.634 350.144 107.933 350.304C108.231 350.453 108.695 350.608 109.325 350.768C109.965 350.928 110.493 351.093 110.909 351.264C111.325 351.435 111.682 351.701 111.981 352.064C112.29 352.416 112.45 352.885 112.461 353.472C112.461 353.984 112.317 354.443 112.029 354.848C111.751 355.253 111.346 355.573 110.813 355.808C110.29 356.032 109.677 356.144 108.973 356.144ZM120.299 340.848L115.979 358.896H113.787L118.107 340.848H120.299ZM130.225 348.288C130.225 348.885 130.081 349.445 129.793 349.968C129.515 350.491 129.073 350.912 128.465 351.232C127.867 351.552 127.11 351.712 126.193 351.712H124.321V356H122.081V344.832H126.193C127.057 344.832 127.793 344.981 128.401 345.28C129.009 345.579 129.462 345.989 129.761 346.512C130.07 347.035 130.225 347.627 130.225 348.288ZM126.097 349.904C126.715 349.904 127.174 349.765 127.473 349.488C127.771 349.2 127.921 348.8 127.921 348.288C127.921 347.2 127.313 346.656 126.097 346.656H124.321V349.904H126.097ZM134.055 348.512C134.343 348.043 134.716 347.675 135.175 347.408C135.644 347.141 136.178 347.008 136.775 347.008V349.36H136.183C135.479 349.36 134.946 349.525 134.583 349.856C134.231 350.187 134.055 350.763 134.055 351.584V356H131.815V347.136H134.055V348.512ZM142.22 356.144C141.366 356.144 140.598 355.957 139.916 355.584C139.233 355.2 138.694 354.661 138.3 353.968C137.916 353.275 137.724 352.475 137.724 351.568C137.724 350.661 137.921 349.861 138.316 349.168C138.721 348.475 139.27 347.941 139.964 347.568C140.657 347.184 141.43 346.992 142.284 346.992C143.137 346.992 143.91 347.184 144.604 347.568C145.297 347.941 145.841 348.475 146.236 349.168C146.641 349.861 146.844 350.661 146.844 351.568C146.844 352.475 146.636 353.275 146.22 353.968C145.814 354.661 145.26 355.2 144.556 355.584C143.862 355.957 143.084 356.144 142.22 356.144ZM142.22 354.192C142.625 354.192 143.004 354.096 143.356 353.904C143.718 353.701 144.006 353.403 144.22 353.008C144.433 352.613 144.54 352.133 144.54 351.568C144.54 350.725 144.316 350.08 143.868 349.632C143.43 349.173 142.892 348.944 142.252 348.944C141.612 348.944 141.073 349.173 140.636 349.632C140.209 350.08 139.996 350.725 139.996 351.568C139.996 352.411 140.204 353.061 140.62 353.52C141.046 353.968 141.58 354.192 142.22 354.192ZM147.911 351.536C147.911 350.64 148.087 349.845 148.439 349.152C148.801 348.459 149.292 347.925 149.911 347.552C150.529 347.179 151.217 346.992 151.975 346.992C152.551 346.992 153.1 347.12 153.623 347.376C154.145 347.621 154.561 347.952 154.871 348.368V344.16H157.143V356H154.871V354.688C154.593 355.125 154.204 355.477 153.703 355.744C153.201 356.011 152.62 356.144 151.959 356.144C151.212 356.144 150.529 355.952 149.911 355.568C149.292 355.184 148.801 354.645 148.439 353.952C148.087 353.248 147.911 352.443 147.911 351.536ZM154.887 351.568C154.887 351.024 154.78 350.56 154.567 350.176C154.353 349.781 154.065 349.483 153.703 349.28C153.34 349.067 152.951 348.96 152.535 348.96C152.119 348.96 151.735 349.061 151.383 349.264C151.031 349.467 150.743 349.765 150.519 350.16C150.305 350.544 150.199 351.003 150.199 351.536C150.199 352.069 150.305 352.539 150.519 352.944C150.743 353.339 151.031 353.643 151.383 353.856C151.745 354.069 152.129 354.176 152.535 354.176C152.951 354.176 153.34 354.075 153.703 353.872C154.065 353.659 154.353 353.36 154.567 352.976C154.78 352.581 154.887 352.112 154.887 351.568ZM167.699 347.136V356H165.443V354.88C165.155 355.264 164.776 355.568 164.307 355.792C163.848 356.005 163.347 356.112 162.803 356.112C162.109 356.112 161.496 355.968 160.963 355.68C160.429 355.381 160.008 354.949 159.699 354.384C159.4 353.808 159.251 353.125 159.251 352.336V347.136H161.491V352.016C161.491 352.72 161.667 353.264 162.019 353.648C162.371 354.021 162.851 354.208 163.459 354.208C164.077 354.208 164.563 354.021 164.915 353.648C165.267 353.264 165.443 352.72 165.443 352.016V347.136H167.699ZM169.333 351.568C169.333 350.651 169.519 349.851 169.893 349.168C170.266 348.475 170.783 347.941 171.445 347.568C172.106 347.184 172.863 346.992 173.717 346.992C174.815 346.992 175.722 347.269 176.437 347.824C177.162 348.368 177.647 349.136 177.893 350.128H175.477C175.349 349.744 175.13 349.445 174.821 349.232C174.522 349.008 174.149 348.896 173.701 348.896C173.061 348.896 172.554 349.131 172.181 349.6C171.807 350.059 171.621 350.715 171.621 351.568C171.621 352.411 171.807 353.067 172.181 353.536C172.554 353.995 173.061 354.224 173.701 354.224C174.607 354.224 175.199 353.819 175.477 353.008H177.893C177.647 353.968 177.162 354.731 176.437 355.296C175.711 355.861 174.805 356.144 173.717 356.144C172.863 356.144 172.106 355.957 171.445 355.584C170.783 355.2 170.266 354.667 169.893 353.984C169.519 353.291 169.333 352.485 169.333 351.568ZM182.142 348.976V353.264C182.142 353.563 182.211 353.781 182.35 353.92C182.499 354.048 182.744 354.112 183.086 354.112H184.126V356H182.718C180.83 356 179.886 355.083 179.886 353.248V348.976H178.83V347.136H179.886V344.944H182.142V347.136H184.126V348.976H182.142ZM189.129 356.144C188.403 356.144 187.753 356.016 187.177 355.76C186.601 355.493 186.142 355.136 185.801 354.688C185.47 354.24 185.289 353.744 185.257 353.2H187.513C187.555 353.541 187.721 353.824 188.009 354.048C188.307 354.272 188.675 354.384 189.113 354.384C189.539 354.384 189.87 354.299 190.105 354.128C190.35 353.957 190.473 353.739 190.473 353.472C190.473 353.184 190.323 352.971 190.025 352.832C189.737 352.683 189.273 352.523 188.633 352.352C187.971 352.192 187.427 352.027 187.001 351.856C186.585 351.685 186.222 351.424 185.913 351.072C185.614 350.72 185.465 350.245 185.465 349.648C185.465 349.157 185.603 348.709 185.881 348.304C186.169 347.899 186.574 347.579 187.097 347.344C187.63 347.109 188.254 346.992 188.969 346.992C190.025 346.992 190.867 347.259 191.497 347.792C192.126 348.315 192.473 349.024 192.537 349.92H190.393C190.361 349.568 190.211 349.291 189.945 349.088C189.689 348.875 189.342 348.768 188.905 348.768C188.499 348.768 188.185 348.843 187.961 348.992C187.747 349.141 187.641 349.349 187.641 349.616C187.641 349.915 187.79 350.144 188.089 350.304C188.387 350.453 188.851 350.608 189.481 350.768C190.121 350.928 190.649 351.093 191.065 351.264C191.481 351.435 191.838 351.701 192.137 352.064C192.446 352.416 192.606 352.885 192.617 353.472C192.617 353.984 192.473 354.443 192.185 354.848C191.907 355.253 191.502 355.573 190.969 355.808C190.446 356.032 189.833 356.144 189.129 356.144ZM199.404 346.08C199.009 346.08 198.679 345.957 198.412 345.712C198.156 345.456 198.028 345.141 198.028 344.768C198.028 344.395 198.156 344.085 198.412 343.84C198.679 343.584 199.009 343.456 199.404 343.456C199.799 343.456 200.124 343.584 200.38 343.84C200.647 344.085 200.78 344.395 200.78 344.768C200.78 345.141 200.647 345.456 200.38 345.712C200.124 345.957 199.799 346.08 199.404 346.08ZM200.508 347.136V356H198.268V347.136H200.508ZM207.633 347.008C208.689 347.008 209.543 347.344 210.193 348.016C210.844 348.677 211.169 349.605 211.169 350.8V356H208.929V351.104C208.929 350.4 208.753 349.861 208.401 349.488C208.049 349.104 207.569 348.912 206.961 348.912C206.343 348.912 205.852 349.104 205.489 349.488C205.137 349.861 204.961 350.4 204.961 351.104V356H202.721V347.136H204.961V348.24C205.26 347.856 205.639 347.557 206.097 347.344C206.567 347.12 207.079 347.008 207.633 347.008ZM215.907 348.976V353.264C215.907 353.563 215.977 353.781 216.115 353.92C216.265 354.048 216.51 354.112 216.851 354.112H217.891V356H216.483C214.595 356 213.651 355.083 213.651 353.248V348.976H212.595V347.136H213.651V344.944H215.907V347.136H217.891V348.976H215.907ZM223.438 356.144C222.585 356.144 221.817 355.957 221.134 355.584C220.452 355.2 219.913 354.661 219.518 353.968C219.134 353.275 218.942 352.475 218.942 351.568C218.942 350.661 219.14 349.861 219.534 349.168C219.94 348.475 220.489 347.941 221.182 347.568C221.876 347.184 222.649 346.992 223.502 346.992C224.356 346.992 225.129 347.184 225.822 347.568C226.516 347.941 227.06 348.475 227.454 349.168C227.86 349.861 228.062 350.661 228.062 351.568C228.062 352.475 227.854 353.275 227.438 353.968C227.033 354.661 226.478 355.2 225.774 355.584C225.081 355.957 224.302 356.144 223.438 356.144ZM223.438 354.192C223.844 354.192 224.222 354.096 224.574 353.904C224.937 353.701 225.225 353.403 225.438 353.008C225.652 352.613 225.758 352.133 225.758 351.568C225.758 350.725 225.534 350.08 225.086 349.632C224.649 349.173 224.11 348.944 223.47 348.944C222.83 348.944 222.292 349.173 221.854 349.632C221.428 350.08 221.214 350.725 221.214 351.568C221.214 352.411 221.422 353.061 221.838 353.52C222.265 353.968 222.798 354.192 223.438 354.192ZM235.758 344.832V356H233.518V344.832H235.758ZM247.523 356H245.283L240.211 348.336V356H237.971V344.816H240.211L245.283 352.496V344.816H247.523V356ZM259.769 344.832L255.673 356H252.953L248.857 344.832H251.257L254.329 353.712L257.385 344.832H259.769ZM266.296 356.112C265.25 356.112 264.29 355.867 263.416 355.376C262.541 354.885 261.848 354.208 261.336 353.344C260.824 352.469 260.568 351.483 260.568 350.384C260.568 349.296 260.824 348.32 261.336 347.456C261.848 346.581 262.541 345.899 263.416 345.408C264.29 344.917 265.25 344.672 266.296 344.672C267.352 344.672 268.312 344.917 269.176 345.408C270.05 345.899 270.738 346.581 271.24 347.456C271.752 348.32 272.008 349.296 272.008 350.384C272.008 351.483 271.752 352.469 271.24 353.344C270.738 354.208 270.05 354.885 269.176 355.376C268.301 355.867 267.341 356.112 266.296 356.112ZM266.296 354.112C266.968 354.112 267.56 353.963 268.072 353.664C268.584 353.355 268.984 352.917 269.272 352.352C269.56 351.787 269.704 351.131 269.704 350.384C269.704 349.637 269.56 348.987 269.272 348.432C268.984 347.867 268.584 347.435 268.072 347.136C267.56 346.837 266.968 346.688 266.296 346.688C265.624 346.688 265.026 346.837 264.504 347.136C263.992 347.435 263.592 347.867 263.304 348.432C263.016 348.987 262.872 349.637 262.872 350.384C262.872 351.131 263.016 351.787 263.304 352.352C263.592 352.917 263.992 353.355 264.504 353.664C265.026 353.963 265.624 354.112 266.296 354.112ZM275.914 344.832V356H273.674V344.832H275.914ZM277.583 350.4C277.583 349.301 277.829 348.32 278.319 347.456C278.821 346.581 279.498 345.904 280.351 345.424C281.215 344.933 282.181 344.688 283.247 344.688C284.495 344.688 285.589 345.008 286.527 345.648C287.466 346.288 288.122 347.173 288.495 348.304H285.919C285.663 347.771 285.301 347.371 284.831 347.104C284.373 346.837 283.839 346.704 283.231 346.704C282.581 346.704 281.999 346.859 281.487 347.168C280.986 347.467 280.591 347.893 280.303 348.448C280.026 349.003 279.887 349.653 279.887 350.4C279.887 351.136 280.026 351.787 280.303 352.352C280.591 352.907 280.986 353.339 281.487 353.648C281.999 353.947 282.581 354.096 283.231 354.096C283.839 354.096 284.373 353.963 284.831 353.696C285.301 353.419 285.663 353.013 285.919 352.48H288.495C288.122 353.621 287.466 354.512 286.527 355.152C285.599 355.781 284.506 356.096 283.247 356.096C282.181 356.096 281.215 355.856 280.351 355.376C279.498 354.885 278.821 354.208 278.319 353.344C277.829 352.48 277.583 351.499 277.583 350.4ZM292.649 346.64V349.44H296.409V351.216H292.649V354.176H296.889V356H290.409V344.816H296.889V346.64H292.649ZM119.602 372.432C119.89 372.005 120.284 371.659 120.786 371.392C121.298 371.125 121.879 370.992 122.53 370.992C123.287 370.992 123.97 371.179 124.578 371.552C125.196 371.925 125.682 372.459 126.034 373.152C126.396 373.835 126.578 374.629 126.578 375.536C126.578 376.443 126.396 377.248 126.034 377.952C125.682 378.645 125.196 379.184 124.578 379.568C123.97 379.952 123.287 380.144 122.53 380.144C121.868 380.144 121.287 380.016 120.786 379.76C120.295 379.493 119.9 379.152 119.602 378.736V380H117.362V368.16H119.602V372.432ZM124.29 375.536C124.29 375.003 124.178 374.544 123.954 374.16C123.74 373.765 123.452 373.467 123.09 373.264C122.738 373.061 122.354 372.96 121.938 372.96C121.532 372.96 121.148 373.067 120.786 373.28C120.434 373.483 120.146 373.781 119.922 374.176C119.708 374.571 119.602 375.035 119.602 375.568C119.602 376.101 119.708 376.565 119.922 376.96C120.146 377.355 120.434 377.659 120.786 377.872C121.148 378.075 121.532 378.176 121.938 378.176C122.354 378.176 122.738 378.069 123.09 377.856C123.452 377.643 123.74 377.339 123.954 376.944C124.178 376.549 124.29 376.08 124.29 375.536ZM136.686 371.136L131.198 384.192H128.814L130.734 379.776L127.182 371.136H129.694L131.982 377.328L134.302 371.136H136.686ZM141.13 375.568C141.13 374.651 141.316 373.851 141.69 373.168C142.063 372.475 142.58 371.941 143.242 371.568C143.903 371.184 144.66 370.992 145.514 370.992C146.612 370.992 147.519 371.269 148.234 371.824C148.959 372.368 149.444 373.136 149.69 374.128H147.274C147.146 373.744 146.927 373.445 146.618 373.232C146.319 373.008 145.946 372.896 145.498 372.896C144.858 372.896 144.351 373.131 143.978 373.6C143.604 374.059 143.418 374.715 143.418 375.568C143.418 376.411 143.604 377.067 143.978 377.536C144.351 377.995 144.858 378.224 145.498 378.224C146.404 378.224 146.996 377.819 147.274 377.008H149.69C149.444 377.968 148.959 378.731 148.234 379.296C147.508 379.861 146.602 380.144 145.514 380.144C144.66 380.144 143.903 379.957 143.242 379.584C142.58 379.2 142.063 378.667 141.69 377.984C141.316 377.291 141.13 376.485 141.13 375.568ZM153.571 368.16V380H151.331V368.16H153.571ZM156.92 370.08C156.525 370.08 156.194 369.957 155.928 369.712C155.672 369.456 155.544 369.141 155.544 368.768C155.544 368.395 155.672 368.085 155.928 367.84C156.194 367.584 156.525 367.456 156.92 367.456C157.314 367.456 157.64 367.584 157.896 367.84C158.162 368.085 158.296 368.395 158.296 368.768C158.296 369.141 158.162 369.456 157.896 369.712C157.64 369.957 157.314 370.08 156.92 370.08ZM158.024 371.136V380H155.784V371.136H158.024ZM159.661 375.568C159.661 374.651 159.847 373.851 160.221 373.168C160.594 372.475 161.111 371.941 161.773 371.568C162.434 371.184 163.191 370.992 164.045 370.992C165.143 370.992 166.05 371.269 166.765 371.824C167.49 372.368 167.975 373.136 168.221 374.128H165.805C165.677 373.744 165.458 373.445 165.149 373.232C164.85 373.008 164.477 372.896 164.029 372.896C163.389 372.896 162.882 373.131 162.509 373.6C162.135 374.059 161.949 374.715 161.949 375.568C161.949 376.411 162.135 377.067 162.509 377.536C162.882 377.995 163.389 378.224 164.029 378.224C164.935 378.224 165.527 377.819 165.805 377.008H168.221C167.975 377.968 167.49 378.731 166.765 379.296C166.039 379.861 165.133 380.144 164.045 380.144C163.191 380.144 162.434 379.957 161.773 379.584C161.111 379.2 160.594 378.667 160.221 377.984C159.847 377.291 159.661 376.485 159.661 375.568ZM175.11 380L172.102 376.224V380H169.862V368.16H172.102V374.896L175.078 371.136H177.99L174.086 375.584L178.022 380H175.11ZM180.342 370.08C179.947 370.08 179.616 369.957 179.35 369.712C179.094 369.456 178.966 369.141 178.966 368.768C178.966 368.395 179.094 368.085 179.35 367.84C179.616 367.584 179.947 367.456 180.342 367.456C180.736 367.456 181.062 367.584 181.318 367.84C181.584 368.085 181.718 368.395 181.718 368.768C181.718 369.141 181.584 369.456 181.318 369.712C181.062 369.957 180.736 370.08 180.342 370.08ZM181.446 371.136V380H179.206V371.136H181.446ZM188.571 371.008C189.627 371.008 190.48 371.344 191.131 372.016C191.781 372.677 192.107 373.605 192.107 374.8V380H189.867V375.104C189.867 374.4 189.691 373.861 189.339 373.488C188.987 373.104 188.507 372.912 187.899 372.912C187.28 372.912 186.789 373.104 186.427 373.488C186.075 373.861 185.899 374.4 185.899 375.104V380H183.659V371.136H185.899V372.24C186.197 371.856 186.576 371.557 187.035 371.344C187.504 371.12 188.016 371.008 188.571 371.008ZM197.709 370.992C198.37 370.992 198.951 371.125 199.453 371.392C199.954 371.648 200.349 371.984 200.637 372.4V371.136H202.893V380.064C202.893 380.885 202.727 381.616 202.397 382.256C202.066 382.907 201.57 383.419 200.909 383.792C200.247 384.176 199.447 384.368 198.509 384.368C197.25 384.368 196.215 384.075 195.405 383.488C194.605 382.901 194.151 382.101 194.045 381.088H196.269C196.386 381.493 196.637 381.813 197.021 382.048C197.415 382.293 197.89 382.416 198.445 382.416C199.095 382.416 199.623 382.219 200.029 381.824C200.434 381.44 200.637 380.853 200.637 380.064V378.688C200.349 379.104 199.949 379.451 199.437 379.728C198.935 380.005 198.359 380.144 197.709 380.144C196.962 380.144 196.279 379.952 195.661 379.568C195.042 379.184 194.551 378.645 194.189 377.952C193.837 377.248 193.661 376.443 193.661 375.536C193.661 374.64 193.837 373.845 194.189 373.152C194.551 372.459 195.037 371.925 195.645 371.552C196.263 371.179 196.951 370.992 197.709 370.992ZM200.637 375.568C200.637 375.024 200.53 374.56 200.317 374.176C200.103 373.781 199.815 373.483 199.453 373.28C199.09 373.067 198.701 372.96 198.285 372.96C197.869 372.96 197.485 373.061 197.133 373.264C196.781 373.467 196.493 373.765 196.269 374.16C196.055 374.544 195.949 375.003 195.949 375.536C195.949 376.069 196.055 376.539 196.269 376.944C196.493 377.339 196.781 377.643 197.133 377.856C197.495 378.069 197.879 378.176 198.285 378.176C198.701 378.176 199.09 378.075 199.453 377.872C199.815 377.659 200.103 377.36 200.317 376.976C200.53 376.581 200.637 376.112 200.637 375.568ZM213.885 371.008C214.557 371.008 215.154 371.157 215.677 371.456C216.2 371.744 216.605 372.176 216.893 372.752C217.192 373.317 217.341 374 217.341 374.8V380H215.101V375.104C215.101 374.4 214.925 373.861 214.573 373.488C214.221 373.104 213.741 372.912 213.133 372.912C212.514 372.912 212.024 373.104 211.661 373.488C211.309 373.861 211.133 374.4 211.133 375.104V380H208.893V368.16H211.133V372.24C211.421 371.856 211.805 371.557 212.285 371.344C212.765 371.12 213.298 371.008 213.885 371.008ZM227.711 375.376C227.711 375.696 227.69 375.984 227.647 376.24H221.167C221.221 376.88 221.445 377.381 221.839 377.744C222.234 378.107 222.719 378.288 223.295 378.288C224.127 378.288 224.719 377.931 225.071 377.216H227.487C227.231 378.069 226.741 378.773 226.015 379.328C225.29 379.872 224.399 380.144 223.343 380.144C222.49 380.144 221.722 379.957 221.039 379.584C220.367 379.2 219.839 378.661 219.455 377.968C219.082 377.275 218.895 376.475 218.895 375.568C218.895 374.651 219.082 373.845 219.455 373.152C219.829 372.459 220.351 371.925 221.023 371.552C221.695 371.179 222.469 370.992 223.343 370.992C224.186 370.992 224.938 371.173 225.599 371.536C226.271 371.899 226.789 372.416 227.151 373.088C227.525 373.749 227.711 374.512 227.711 375.376ZM225.391 374.736C225.381 374.16 225.173 373.701 224.767 373.36C224.362 373.008 223.866 372.832 223.279 372.832C222.725 372.832 222.255 373.003 221.871 373.344C221.498 373.675 221.269 374.139 221.183 374.736H225.391ZM231.586 372.512C231.874 372.043 232.248 371.675 232.706 371.408C233.176 371.141 233.709 371.008 234.306 371.008V373.36H233.714C233.01 373.36 232.477 373.525 232.114 373.856C231.762 374.187 231.586 374.763 231.586 375.584V380H229.346V371.136H231.586V372.512ZM244.055 375.376C244.055 375.696 244.034 375.984 243.991 376.24H237.511C237.564 376.88 237.788 377.381 238.183 377.744C238.578 378.107 239.063 378.288 239.639 378.288C240.471 378.288 241.063 377.931 241.415 377.216H243.831C243.575 378.069 243.084 378.773 242.359 379.328C241.634 379.872 240.743 380.144 239.687 380.144C238.834 380.144 238.066 379.957 237.383 379.584C236.711 379.2 236.183 378.661 235.799 377.968C235.426 377.275 235.239 376.475 235.239 375.568C235.239 374.651 235.426 373.845 235.799 373.152C236.172 372.459 236.695 371.925 237.367 371.552C238.039 371.179 238.812 370.992 239.687 370.992C240.53 370.992 241.282 371.173 241.943 371.536C242.615 371.899 243.132 372.416 243.495 373.088C243.868 373.749 244.055 374.512 244.055 375.376ZM241.735 374.736C241.724 374.16 241.516 373.701 241.111 373.36C240.706 373.008 240.21 372.832 239.623 372.832C239.068 372.832 238.599 373.003 238.215 373.344C237.842 373.675 237.612 374.139 237.527 374.736H241.735ZM246.682 380.112C246.277 380.112 245.941 379.989 245.674 379.744C245.418 379.488 245.29 379.173 245.29 378.8C245.29 378.427 245.418 378.117 245.674 377.872C245.941 377.616 246.277 377.488 246.682 377.488C247.077 377.488 247.402 377.616 247.658 377.872C247.914 378.117 248.042 378.427 248.042 378.8C248.042 379.173 247.914 379.488 247.658 379.744C247.402 379.989 247.077 380.112 246.682 380.112Z" fill="#676767"/>
<path d="M189 389.5C197.5 392.5 227.973 418.583 219.174 463.083C215.564 481.34 214.495 478.457 210.651 488.003M206.64 478.159C206.306 482.633 206.439 491.583 209.648 491.583C212.857 491.583 217.336 485.02 219.174 481.738" stroke="#676767" stroke-width="2" stroke-linecap="round"/>
<path d="M148.815 18L146.159 13.44H144.399V18H142.943V6.848H146.543C147.386 6.848 148.095 6.992 148.671 7.28C149.258 7.568 149.695 7.95733 149.983 8.448C150.271 8.93867 150.415 9.49867 150.415 10.128C150.415 10.896 150.191 11.5733 149.743 12.16C149.306 12.7467 148.644 13.136 147.759 13.328L150.559 18H148.815ZM144.399 12.272H146.543C147.332 12.272 147.924 12.08 148.319 11.696C148.714 11.3013 148.911 10.7787 148.911 10.128C148.911 9.46667 148.714 8.95467 148.319 8.592C147.935 8.22933 147.343 8.048 146.543 8.048H144.399V12.272ZM153.429 7.808C153.152 7.808 152.917 7.712 152.725 7.52C152.533 7.328 152.437 7.09333 152.437 6.816C152.437 6.53867 152.533 6.304 152.725 6.112C152.917 5.92 153.152 5.824 153.429 5.824C153.696 5.824 153.92 5.92 154.101 6.112C154.293 6.304 154.389 6.53867 154.389 6.816C154.389 7.09333 154.293 7.328 154.101 7.52C153.92 7.712 153.696 7.808 153.429 7.808ZM154.133 9.232V18H152.677V9.232H154.133ZM160.231 9.088C160.988 9.088 161.649 9.25333 162.215 9.584C162.791 9.91467 163.217 10.3307 163.495 10.832V9.232H164.967V18.192C164.967 18.992 164.796 19.7013 164.455 20.32C164.113 20.9493 163.623 21.44 162.983 21.792C162.353 22.144 161.617 22.32 160.775 22.32C159.623 22.32 158.663 22.048 157.895 21.504C157.127 20.96 156.673 20.2187 156.535 19.28H157.975C158.135 19.8133 158.465 20.24 158.967 20.56C159.468 20.8907 160.071 21.056 160.775 21.056C161.575 21.056 162.225 20.8053 162.727 20.304C163.239 19.8027 163.495 19.0987 163.495 18.192V16.352C163.207 16.864 162.78 17.2907 162.215 17.632C161.649 17.9733 160.988 18.144 160.231 18.144C159.452 18.144 158.743 17.952 158.103 17.568C157.473 17.184 156.977 16.6453 156.615 15.952C156.252 15.2587 156.071 14.4693 156.071 13.584C156.071 12.688 156.252 11.904 156.615 11.232C156.977 10.5493 157.473 10.0213 158.103 9.648C158.743 9.27467 159.452 9.088 160.231 9.088ZM163.495 13.6C163.495 12.9387 163.361 12.3627 163.095 11.872C162.828 11.3813 162.465 11.008 162.007 10.752C161.559 10.4853 161.063 10.352 160.519 10.352C159.975 10.352 159.479 10.48 159.031 10.736C158.583 10.992 158.225 11.3653 157.959 11.856C157.692 12.3467 157.559 12.9227 157.559 13.584C157.559 14.256 157.692 14.8427 157.959 15.344C158.225 15.8347 158.583 16.2133 159.031 16.48C159.479 16.736 159.975 16.864 160.519 16.864C161.063 16.864 161.559 16.736 162.007 16.48C162.465 16.2133 162.828 15.8347 163.095 15.344C163.361 14.8427 163.495 14.2613 163.495 13.6ZM171.779 9.072C172.441 9.072 173.038 9.216 173.571 9.504C174.105 9.78133 174.521 10.2027 174.819 10.768C175.129 11.3333 175.283 12.0213 175.283 12.832V18H173.843V13.04C173.843 12.1653 173.625 11.4987 173.187 11.04C172.75 10.5707 172.153 10.336 171.395 10.336C170.627 10.336 170.014 10.576 169.555 11.056C169.107 11.536 168.883 12.2347 168.883 13.152V18H167.427V6.16H168.883V10.48C169.171 10.032 169.566 9.68533 170.067 9.44C170.579 9.19467 171.15 9.072 171.779 9.072ZM179.438 10.432V15.6C179.438 16.0267 179.528 16.3307 179.71 16.512C179.891 16.6827 180.206 16.768 180.654 16.768H181.726V18H180.414C179.603 18 178.995 17.8133 178.59 17.44C178.184 17.0667 177.982 16.4533 177.982 15.6V10.432H176.846V9.232H177.982V7.024H179.438V9.232H181.726V10.432H179.438ZM192.027 9.072C193.094 9.072 193.958 9.39733 194.619 10.048C195.281 10.688 195.611 11.616 195.611 12.832V18H194.171V13.04C194.171 12.1653 193.953 11.4987 193.515 11.04C193.078 10.5707 192.481 10.336 191.723 10.336C190.955 10.336 190.342 10.576 189.883 11.056C189.435 11.536 189.211 12.2347 189.211 13.152V18H187.755V9.232H189.211V10.48C189.499 10.032 189.889 9.68533 190.379 9.44C190.881 9.19467 191.43 9.072 192.027 9.072ZM201.814 18.144C200.992 18.144 200.246 17.9573 199.574 17.584C198.912 17.2107 198.39 16.6827 198.006 16C197.632 15.3067 197.446 14.5067 197.446 13.6C197.446 12.704 197.638 11.9147 198.022 11.232C198.416 10.5387 198.95 10.0107 199.622 9.648C200.294 9.27467 201.046 9.088 201.878 9.088C202.71 9.088 203.462 9.27467 204.134 9.648C204.806 10.0107 205.334 10.5333 205.718 11.216C206.112 11.8987 206.31 12.6933 206.31 13.6C206.31 14.5067 206.107 15.3067 205.702 16C205.307 16.6827 204.768 17.2107 204.086 17.584C203.403 17.9573 202.646 18.144 201.814 18.144ZM201.814 16.864C202.336 16.864 202.827 16.7413 203.286 16.496C203.744 16.2507 204.112 15.8827 204.39 15.392C204.678 14.9013 204.822 14.304 204.822 13.6C204.822 12.896 204.683 12.2987 204.406 11.808C204.128 11.3173 203.766 10.9547 203.318 10.72C202.87 10.4747 202.384 10.352 201.862 10.352C201.328 10.352 200.838 10.4747 200.39 10.72C199.952 10.9547 199.6 11.3173 199.334 11.808C199.067 12.2987 198.934 12.896 198.934 13.6C198.934 14.3147 199.062 14.9173 199.318 15.408C199.584 15.8987 199.936 16.2667 200.374 16.512C200.811 16.7467 201.291 16.864 201.814 16.864ZM219.904 9.232L217.168 18H215.664L213.552 11.04L211.44 18H209.936L207.184 9.232H208.672L210.688 16.592L212.864 9.232H214.352L216.48 16.608L218.464 9.232H219.904ZM222.853 15.984L221.061 20.288H220.085L221.253 15.984H222.853ZM45.4299 34.432V39.6C45.4299 40.0267 45.5205 40.3307 45.7019 40.512C45.8832 40.6827 46.1979 40.768 46.6459 40.768H47.7179V42H46.4059C45.5952 42 44.9872 41.8133 44.5819 41.44C44.1765 41.0667 43.9739 40.4533 43.9739 39.6V34.432H42.8379V33.232H43.9739V31.024H45.4299V33.232H47.7179V34.432H45.4299ZM53.834 33.072C54.4953 33.072 55.0927 33.216 55.626 33.504C56.1593 33.7813 56.5753 34.2027 56.874 34.768C57.1833 35.3333 57.338 36.0213 57.338 36.832V42H55.898V37.04C55.898 36.1653 55.6793 35.4987 55.242 35.04C54.8047 34.5707 54.2073 34.336 53.45 34.336C52.682 34.336 52.0687 34.576 51.61 35.056C51.162 35.536 50.938 36.2347 50.938 37.152V42H49.482V30.16H50.938V34.48C51.226 34.032 51.6207 33.6853 52.122 33.44C52.634 33.1947 53.2047 33.072 53.834 33.072ZM67.7164 37.28C67.7164 37.5573 67.7004 37.8507 67.6684 38.16H60.6604C60.7137 39.024 61.007 39.7013 61.5404 40.192C62.0844 40.672 62.7404 40.912 63.5084 40.912C64.1377 40.912 64.6604 40.768 65.0764 40.48C65.503 40.1813 65.8017 39.7867 65.9724 39.296H67.5404C67.3057 40.1387 66.8364 40.8267 66.1324 41.36C65.4284 41.8827 64.5537 42.144 63.5084 42.144C62.6764 42.144 61.9297 41.9573 61.2684 41.584C60.6177 41.2107 60.1057 40.6827 59.7324 40C59.359 39.3067 59.1724 38.5067 59.1724 37.6C59.1724 36.6933 59.3537 35.8987 59.7164 35.216C60.079 34.5333 60.5857 34.0107 61.2364 33.648C61.8977 33.2747 62.655 33.088 63.5084 33.088C64.3404 33.088 65.0764 33.2693 65.7164 33.632C66.3564 33.9947 66.847 34.496 67.1884 35.136C67.5404 35.7653 67.7164 36.48 67.7164 37.28ZM66.2124 36.976C66.2124 36.4213 66.0897 35.9467 65.8444 35.552C65.599 35.1467 65.263 34.8427 64.8364 34.64C64.4204 34.4267 63.9564 34.32 63.4444 34.32C62.7084 34.32 62.079 34.5547 61.5564 35.024C61.0444 35.4933 60.751 36.144 60.6764 36.976H66.2124ZM71.0943 34.656C71.3503 34.1547 71.7129 33.7653 72.1823 33.488C72.6623 33.2107 73.2436 33.072 73.9263 33.072V34.576H73.5423C71.9103 34.576 71.0943 35.4613 71.0943 37.232V42H69.6383V33.232H71.0943V34.656ZM83.607 37.28C83.607 37.5573 83.591 37.8507 83.559 38.16H76.551C76.6043 39.024 76.8977 39.7013 77.431 40.192C77.975 40.672 78.631 40.912 79.399 40.912C80.0283 40.912 80.551 40.768 80.967 40.48C81.3937 40.1813 81.6923 39.7867 81.863 39.296H83.431C83.1963 40.1387 82.727 40.8267 82.023 41.36C81.319 41.8827 80.4443 42.144 79.399 42.144C78.567 42.144 77.8203 41.9573 77.159 41.584C76.5083 41.2107 75.9963 40.6827 75.623 40C75.2497 39.3067 75.063 38.5067 75.063 37.6C75.063 36.6933 75.2443 35.8987 75.607 35.216C75.9697 34.5333 76.4763 34.0107 77.127 33.648C77.7883 33.2747 78.5457 33.088 79.399 33.088C80.231 33.088 80.967 33.2693 81.607 33.632C82.247 33.9947 82.7377 34.496 83.079 35.136C83.431 35.7653 83.607 36.48 83.607 37.28ZM82.103 36.976C82.103 36.4213 81.9803 35.9467 81.735 35.552C81.4897 35.1467 81.1537 34.8427 80.727 34.64C80.311 34.4267 79.847 34.32 79.335 34.32C78.599 34.32 77.9697 34.5547 77.447 35.024C76.935 35.4933 76.6417 36.144 76.567 36.976H82.103ZM90.5465 31.808C90.2692 31.808 90.0345 31.712 89.8425 31.52C89.6505 31.328 89.5545 31.0933 89.5545 30.816C89.5545 30.5387 89.6505 30.304 89.8425 30.112C90.0345 29.92 90.2692 29.824 90.5465 29.824C90.8132 29.824 91.0372 29.92 91.2185 30.112C91.4105 30.304 91.5065 30.5387 91.5065 30.816C91.5065 31.0933 91.4105 31.328 91.2185 31.52C91.0372 31.712 90.8132 31.808 90.5465 31.808ZM91.2505 33.232V42H89.7945V33.232H91.2505ZM96.836 42.144C96.164 42.144 95.5613 42.032 95.028 41.808C94.4947 41.5733 94.0733 41.2533 93.764 40.848C93.4547 40.432 93.284 39.9573 93.252 39.424H94.756C94.7987 39.8613 95.0013 40.2187 95.364 40.496C95.7373 40.7733 96.2227 40.912 96.82 40.912C97.3747 40.912 97.812 40.7893 98.132 40.544C98.452 40.2987 98.612 39.9893 98.612 39.616C98.612 39.232 98.4413 38.9493 98.1 38.768C97.7587 38.576 97.2307 38.3893 96.516 38.208C95.8653 38.0373 95.332 37.8667 94.916 37.696C94.5107 37.5147 94.1587 37.2533 93.86 36.912C93.572 36.56 93.428 36.1013 93.428 35.536C93.428 35.088 93.5613 34.6773 93.828 34.304C94.0947 33.9307 94.4733 33.6373 94.964 33.424C95.4547 33.2 96.0147 33.088 96.644 33.088C97.6147 33.088 98.3987 33.3333 98.996 33.824C99.5933 34.3147 99.9133 34.9867 99.956 35.84H98.5C98.468 35.3813 98.2813 35.0133 97.94 34.736C97.6093 34.4587 97.1613 34.32 96.596 34.32C96.0733 34.32 95.6573 34.432 95.348 34.656C95.0387 34.88 94.884 35.1733 94.884 35.536C94.884 35.824 94.9747 36.064 95.156 36.256C95.348 36.4373 95.5827 36.5867 95.86 36.704C96.148 36.8107 96.5427 36.9333 97.044 37.072C97.6733 37.2427 98.1853 37.4133 98.58 37.584C98.9747 37.744 99.3107 37.9893 99.588 38.32C99.876 38.6507 100.025 39.0827 100.036 39.616C100.036 40.096 99.9027 40.528 99.636 40.912C99.3693 41.296 98.9907 41.6 98.5 41.824C98.02 42.0373 97.4653 42.144 96.836 42.144ZM110.629 33.072C111.696 33.072 112.56 33.3973 113.221 34.048C113.882 34.688 114.213 35.616 114.213 36.832V42H112.773V37.04C112.773 36.1653 112.554 35.4987 112.117 35.04C111.68 34.5707 111.082 34.336 110.325 34.336C109.557 34.336 108.944 34.576 108.485 35.056C108.037 35.536 107.813 36.2347 107.813 37.152V42H106.357V33.232H107.813V34.48C108.101 34.032 108.49 33.6853 108.981 33.44C109.482 33.1947 110.032 33.072 110.629 33.072ZM120.415 42.144C119.594 42.144 118.847 41.9573 118.175 41.584C117.514 41.2107 116.991 40.6827 116.607 40C116.234 39.3067 116.047 38.5067 116.047 37.6C116.047 36.704 116.239 35.9147 116.623 35.232C117.018 34.5387 117.551 34.0107 118.223 33.648C118.895 33.2747 119.647 33.088 120.479 33.088C121.311 33.088 122.063 33.2747 122.735 33.648C123.407 34.0107 123.935 34.5333 124.319 35.216C124.714 35.8987 124.911 36.6933 124.911 37.6C124.911 38.5067 124.709 39.3067 124.303 40C123.909 40.6827 123.37 41.2107 122.687 41.584C122.005 41.9573 121.247 42.144 120.415 42.144ZM120.415 40.864C120.938 40.864 121.429 40.7413 121.887 40.496C122.346 40.2507 122.714 39.8827 122.991 39.392C123.279 38.9013 123.423 38.304 123.423 37.6C123.423 36.896 123.285 36.2987 123.007 35.808C122.73 35.3173 122.367 34.9547 121.919 34.72C121.471 34.4747 120.986 34.352 120.463 34.352C119.93 34.352 119.439 34.4747 118.991 34.72C118.554 34.9547 118.202 35.3173 117.935 35.808C117.669 36.2987 117.535 36.896 117.535 37.6C117.535 38.3147 117.663 38.9173 117.919 39.408C118.186 39.8987 118.538 40.2667 118.975 40.512C119.413 40.7467 119.893 40.864 120.415 40.864ZM132.547 30.848V42H131.091V30.848H132.547ZM143.797 42H142.341L136.485 33.12V42H135.029V30.832H136.485L142.341 39.696V30.832H143.797V42ZM155.495 30.848L151.287 42H149.607L145.399 30.848H146.951L150.455 40.464L153.959 30.848H155.495ZM162.147 42.112C161.113 42.112 160.169 41.872 159.315 41.392C158.462 40.9013 157.785 40.224 157.283 39.36C156.793 38.4853 156.547 37.504 156.547 36.416C156.547 35.328 156.793 34.352 157.283 33.488C157.785 32.6133 158.462 31.936 159.315 31.456C160.169 30.9653 161.113 30.72 162.147 30.72C163.193 30.72 164.142 30.9653 164.995 31.456C165.849 31.936 166.521 32.608 167.011 33.472C167.502 34.336 167.747 35.3173 167.747 36.416C167.747 37.5147 167.502 38.496 167.011 39.36C166.521 40.224 165.849 40.9013 164.995 41.392C164.142 41.872 163.193 42.112 162.147 42.112ZM162.147 40.848C162.926 40.848 163.625 40.6667 164.243 40.304C164.873 39.9413 165.363 39.424 165.715 38.752C166.078 38.08 166.259 37.3013 166.259 36.416C166.259 35.52 166.078 34.7413 165.715 34.08C165.363 33.408 164.878 32.8907 164.259 32.528C163.641 32.1653 162.937 31.984 162.147 31.984C161.358 31.984 160.654 32.1653 160.035 32.528C159.417 32.8907 158.926 33.408 158.563 34.08C158.211 34.7413 158.035 35.52 158.035 36.416C158.035 37.3013 158.211 38.08 158.563 38.752C158.926 39.424 159.417 39.9413 160.035 40.304C160.665 40.6667 161.369 40.848 162.147 40.848ZM171.126 30.848V42H169.67V30.848H171.126ZM173.063 36.416C173.063 35.328 173.308 34.352 173.799 33.488C174.29 32.6133 174.956 31.9307 175.799 31.44C176.652 30.9493 177.596 30.704 178.631 30.704C179.847 30.704 180.908 30.9973 181.815 31.584C182.722 32.1707 183.383 33.0027 183.799 34.08H182.055C181.746 33.408 181.298 32.8907 180.711 32.528C180.135 32.1653 179.442 31.984 178.631 31.984C177.852 31.984 177.154 32.1653 176.535 32.528C175.916 32.8907 175.431 33.408 175.079 34.08C174.727 34.7413 174.551 35.52 174.551 36.416C174.551 37.3013 174.727 38.08 175.079 38.752C175.431 39.4133 175.916 39.9253 176.535 40.288C177.154 40.6507 177.852 40.832 178.631 40.832C179.442 40.832 180.135 40.656 180.711 40.304C181.298 39.9413 181.746 39.424 182.055 38.752H183.799C183.383 39.8187 182.722 40.6453 181.815 41.232C180.908 41.808 179.847 42.096 178.631 42.096C177.596 42.096 176.652 41.856 175.799 41.376C174.956 40.8853 174.29 40.208 173.799 39.344C173.308 38.48 173.063 37.504 173.063 36.416ZM187.422 32.032V35.76H191.486V36.96H187.422V40.8H191.966V42H185.966V30.832H191.966V32.032H187.422ZM202.003 34.432H200.163V42H198.707V34.432H197.571V33.232H198.707V32.608C198.707 31.6267 198.958 30.912 199.459 30.464C199.971 30.0053 200.787 29.776 201.907 29.776V30.992C201.267 30.992 200.814 31.12 200.547 31.376C200.291 31.6213 200.163 32.032 200.163 32.608V33.232H202.003V34.432ZM207.525 42.144C206.703 42.144 205.957 41.9573 205.285 41.584C204.623 41.2107 204.101 40.6827 203.717 40C203.343 39.3067 203.157 38.5067 203.157 37.6C203.157 36.704 203.349 35.9147 203.733 35.232C204.127 34.5387 204.661 34.0107 205.333 33.648C206.005 33.2747 206.757 33.088 207.589 33.088C208.421 33.088 209.173 33.2747 209.845 33.648C210.517 34.0107 211.045 34.5333 211.429 35.216C211.823 35.8987 212.021 36.6933 212.021 37.6C212.021 38.5067 211.818 39.3067 211.413 40C211.018 40.6827 210.479 41.2107 209.797 41.584C209.114 41.9573 208.357 42.144 207.525 42.144ZM207.525 40.864C208.047 40.864 208.538 40.7413 208.997 40.496C209.455 40.2507 209.823 39.8827 210.101 39.392C210.389 38.9013 210.533 38.304 210.533 37.6C210.533 36.896 210.394 36.2987 210.117 35.808C209.839 35.3173 209.477 34.9547 209.029 34.72C208.581 34.4747 208.095 34.352 207.573 34.352C207.039 34.352 206.549 34.4747 206.101 34.72C205.663 34.9547 205.311 35.3173 205.045 35.808C204.778 36.2987 204.645 36.896 204.645 37.6C204.645 38.3147 204.773 38.9173 205.029 39.408C205.295 39.8987 205.647 40.2667 206.085 40.512C206.522 40.7467 207.002 40.864 207.525 40.864ZM215.391 34.656C215.647 34.1547 216.01 33.7653 216.479 33.488C216.959 33.2107 217.54 33.072 218.223 33.072V34.576H217.839C216.207 34.576 215.391 35.4613 215.391 37.232V42H213.935V33.232H215.391V34.656ZM230.218 42L225.626 36.912V42H224.17V30.848H225.626V36.016L230.234 30.848H232.074L227.018 36.432L232.122 42H230.218ZM235.204 34.656C235.46 34.1547 235.822 33.7653 236.292 33.488C236.772 33.2107 237.353 33.072 238.036 33.072V34.576H237.652C236.02 34.576 235.204 35.4613 235.204 37.232V42H233.748V33.232H235.204V34.656ZM247.492 33.232V42H246.036V40.704C245.759 41.152 245.37 41.504 244.868 41.76C244.378 42.0053 243.834 42.128 243.236 42.128C242.554 42.128 241.94 41.9893 241.396 41.712C240.852 41.424 240.42 40.9973 240.1 40.432C239.791 39.8667 239.636 39.1787 239.636 38.368V33.232H241.076V38.176C241.076 39.04 241.295 39.7067 241.732 40.176C242.17 40.6347 242.767 40.864 243.524 40.864C244.303 40.864 244.916 40.624 245.364 40.144C245.812 39.664 246.036 38.9653 246.036 38.048V33.232H247.492ZM251.407 34.848C251.695 34.3467 252.121 33.9307 252.687 33.6C253.263 33.2587 253.929 33.088 254.687 33.088C255.465 33.088 256.169 33.2747 256.799 33.648C257.439 34.0213 257.94 34.5493 258.303 35.232C258.665 35.904 258.847 36.688 258.847 37.584C258.847 38.4693 258.665 39.2587 258.303 39.952C257.94 40.6453 257.439 41.184 256.799 41.568C256.169 41.952 255.465 42.144 254.687 42.144C253.94 42.144 253.279 41.9787 252.703 41.648C252.137 41.3067 251.705 40.8853 251.407 40.384V46.16H249.951V33.232H251.407V34.848ZM257.359 37.584C257.359 36.9227 257.225 36.3467 256.959 35.856C256.692 35.3653 256.329 34.992 255.871 34.736C255.423 34.48 254.927 34.352 254.383 34.352C253.849 34.352 253.353 34.4853 252.895 34.752C252.447 35.008 252.084 35.3867 251.807 35.888C251.54 36.3787 251.407 36.9493 251.407 37.6C251.407 38.2613 251.54 38.8427 251.807 39.344C252.084 39.8347 252.447 40.2133 252.895 40.48C253.353 40.736 253.849 40.864 254.383 40.864C254.927 40.864 255.423 40.736 255.871 40.48C256.329 40.2133 256.692 39.8347 256.959 39.344C257.225 38.8427 257.359 38.256 257.359 37.584ZM260.219 37.584C260.219 36.688 260.401 35.904 260.763 35.232C261.126 34.5493 261.622 34.0213 262.251 33.648C262.891 33.2747 263.601 33.088 264.379 33.088C265.147 33.088 265.814 33.2533 266.379 33.584C266.945 33.9147 267.366 34.3307 267.643 34.832V33.232H269.115V42H267.643V40.368C267.355 40.88 266.923 41.3067 266.347 41.648C265.782 41.9787 265.121 42.144 264.363 42.144C263.585 42.144 262.881 41.952 262.251 41.568C261.622 41.184 261.126 40.6453 260.763 39.952C260.401 39.2587 260.219 38.4693 260.219 37.584ZM267.643 37.6C267.643 36.9387 267.51 36.3627 267.243 35.872C266.977 35.3813 266.614 35.008 266.155 34.752C265.707 34.4853 265.211 34.352 264.667 34.352C264.123 34.352 263.627 34.48 263.179 34.736C262.731 34.992 262.374 35.3653 262.107 35.856C261.841 36.3467 261.707 36.9227 261.707 37.584C261.707 38.256 261.841 38.8427 262.107 39.344C262.374 39.8347 262.731 40.2133 263.179 40.48C263.627 40.736 264.123 40.864 264.667 40.864C265.211 40.864 265.707 40.736 266.155 40.48C266.614 40.2133 266.977 39.8347 267.243 39.344C267.51 38.8427 267.643 38.2613 267.643 37.6ZM273.032 30.16V42H271.576V30.16H273.032ZM283.315 42.112C282.579 42.112 281.918 41.984 281.331 41.728C280.755 41.4613 280.302 41.0987 279.971 40.64C279.64 40.1707 279.47 39.632 279.459 39.024H281.011C281.064 39.5467 281.278 39.9893 281.651 40.352C282.035 40.704 282.59 40.88 283.315 40.88C284.008 40.88 284.552 40.7093 284.947 40.368C285.352 40.016 285.555 39.568 285.555 39.024C285.555 38.5973 285.438 38.2507 285.203 37.984C284.968 37.7173 284.675 37.5147 284.323 37.376C283.971 37.2373 283.496 37.088 282.899 36.928C282.163 36.736 281.571 36.544 281.123 36.352C280.686 36.16 280.307 35.8613 279.987 35.456C279.678 35.04 279.523 34.4853 279.523 33.792C279.523 33.184 279.678 32.6453 279.987 32.176C280.296 31.7067 280.728 31.344 281.283 31.088C281.848 30.832 282.494 30.704 283.219 30.704C284.264 30.704 285.118 30.9653 285.779 31.488C286.451 32.0107 286.83 32.704 286.915 33.568H285.315C285.262 33.1413 285.038 32.768 284.643 32.448C284.248 32.1173 283.726 31.952 283.075 31.952C282.467 31.952 281.971 32.112 281.587 32.432C281.203 32.7413 281.011 33.1787 281.011 33.744C281.011 34.1493 281.123 34.48 281.347 34.736C281.582 34.992 281.864 35.1893 282.195 35.328C282.536 35.456 283.011 35.6053 283.619 35.776C284.355 35.9787 284.947 36.1813 285.395 36.384C285.843 36.576 286.227 36.88 286.547 37.296C286.867 37.7013 287.027 38.256 287.027 38.96C287.027 39.504 286.883 40.016 286.595 40.496C286.307 40.976 285.88 41.3653 285.315 41.664C284.75 41.9627 284.083 42.112 283.315 42.112ZM293.522 33.072C294.183 33.072 294.78 33.216 295.314 33.504C295.847 33.7813 296.263 34.2027 296.562 34.768C296.871 35.3333 297.026 36.0213 297.026 36.832V42H295.586V37.04C295.586 36.1653 295.367 35.4987 294.93 35.04C294.492 34.5707 293.895 34.336 293.138 34.336C292.37 34.336 291.756 34.576 291.298 35.056C290.85 35.536 290.626 36.2347 290.626 37.152V42H289.17V30.16H290.626V34.48C290.914 34.032 291.308 33.6853 291.81 33.44C292.322 33.1947 292.892 33.072 293.522 33.072ZM298.86 37.584C298.86 36.688 299.041 35.904 299.404 35.232C299.767 34.5493 300.263 34.0213 300.892 33.648C301.532 33.2747 302.241 33.088 303.02 33.088C303.788 33.088 304.455 33.2533 305.02 33.584C305.585 33.9147 306.007 34.3307 306.284 34.832V33.232H307.756V42H306.284V40.368C305.996 40.88 305.564 41.3067 304.988 41.648C304.423 41.9787 303.761 42.144 303.004 42.144C302.225 42.144 301.521 41.952 300.892 41.568C300.263 41.184 299.767 40.6453 299.404 39.952C299.041 39.2587 298.86 38.4693 298.86 37.584ZM306.284 37.6C306.284 36.9387 306.151 36.3627 305.884 35.872C305.617 35.3813 305.255 35.008 304.796 34.752C304.348 34.4853 303.852 34.352 303.308 34.352C302.764 34.352 302.268 34.48 301.82 34.736C301.372 34.992 301.015 35.3653 300.748 35.856C300.481 36.3467 300.348 36.9227 300.348 37.584C300.348 38.256 300.481 38.8427 300.748 39.344C301.015 39.8347 301.372 40.2133 301.82 40.48C302.268 40.736 302.764 40.864 303.308 40.864C303.852 40.864 304.348 40.736 304.796 40.48C305.255 40.2133 305.617 39.8347 305.884 39.344C306.151 38.8427 306.284 38.2613 306.284 37.6ZM314.568 33.072C315.23 33.072 315.827 33.216 316.36 33.504C316.894 33.7813 317.31 34.2027 317.608 34.768C317.918 35.3333 318.072 36.0213 318.072 36.832V42H316.632V37.04C316.632 36.1653 316.414 35.4987 315.976 35.04C315.539 34.5707 314.942 34.336 314.184 34.336C313.416 34.336 312.803 34.576 312.344 35.056C311.896 35.536 311.672 36.2347 311.672 37.152V42H310.216V30.16H311.672V34.48C311.96 34.032 312.355 33.6853 312.856 33.44C313.368 33.1947 313.939 33.072 314.568 33.072ZM320.915 42.096C320.637 42.096 320.403 42 320.211 41.808C320.019 41.616 319.923 41.3813 319.923 41.104C319.923 40.8267 320.019 40.592 320.211 40.4C320.403 40.208 320.637 40.112 320.915 40.112C321.181 40.112 321.405 40.208 321.587 40.4C321.779 40.592 321.875 40.8267 321.875 41.104C321.875 41.3813 321.779 41.616 321.587 41.808C321.405 42 321.181 42.096 320.915 42.096Z" fill="#D2D2D2"/>
</svg>
