<svg width="320" height="319" viewBox="0 0 320 319" fill="none" xmlns="http://www.w3.org/2000/svg">
<g clip-path="url(#clip0_257_557)">
<path d="M281.499 273.63C273.169 282.219 265.717 287.271 260.01 291.084C204.36 328.267 140.746 317.546 121.078 313.887C89.3448 307.977 62.5587 303.808 39.5446 283.002C-12.7504 235.724 -10.2068 137.095 29.753 76.0071C34.4911 68.7624 74.3906 9.58097 138.143 1.24187C139.702 1.0376 140.865 0.921537 141.885 0.813599C151.743 -0.230964 212.862 -5.74626 262.695 36.0316C269.829 42.0123 281.308 52.7992 291.953 69.2499C330.878 129.405 331.001 222.572 281.499 273.63Z" fill="url(#paint0_linear_257_557)"/>
<path d="M211.445 23.8926L41.1661 18.6431C32.9148 18.3878 26.1852 24.4056 26.1852 32.0855V274.871C26.1852 282.55 32.9125 288.267 41.1661 287.645L211.445 274.789C218.579 274.25 224.33 268.076 224.33 260.993V37.1087C224.33 30.03 218.579 24.112 211.445 23.8926Z" fill="#62B3FE"/>
<g style="mix-blend-mode:soft-light" opacity="0.74">
<path d="M30.9883 275.979V30.7624C30.9883 26.3427 34.8576 22.8701 39.6142 23.0117L212.793 28.0488C216.907 28.1649 220.231 31.5806 220.231 35.6707V262.618C220.231 266.708 216.907 270.269 212.793 270.572L39.6142 283.345C34.8576 283.696 30.9883 280.399 30.9883 275.979Z" fill="white"/>
</g>
<path d="M211.445 23.8926L41.1661 18.6431C32.9148 18.3878 26.1852 24.4056 26.1852 32.0855V42.0599L224.33 46.3101V37.1122C224.33 30.03 218.579 24.112 211.445 23.8926Z" fill="url(#paint1_linear_257_557)"/>
<path d="M52.7857 31.4274C52.7857 33.9146 50.6214 35.8784 47.9467 35.8134C45.272 35.7484 43.0892 33.6732 43.0892 31.1709C43.0892 28.6686 45.2662 26.7106 47.9467 26.7838C50.6272 26.8569 52.7857 28.9402 52.7857 31.4274Z" fill="white"/>
<path d="M69.634 31.8638C69.634 34.3336 67.4987 36.2858 64.86 36.222C62.2213 36.1581 60.0627 34.0957 60.0627 31.6154C60.0627 29.1352 62.2108 27.1853 64.8553 27.2585C67.4998 27.3316 69.634 29.3894 69.634 31.8638Z" fill="white"/>
<path d="M86.2572 32.2909C86.2572 34.7445 84.1509 36.6827 81.547 36.6201C78.9431 36.5574 76.8182 34.51 76.8182 32.046C76.8182 29.582 78.9373 27.6449 81.547 27.7169C84.1567 27.7889 86.2572 29.8397 86.2572 32.2909Z" fill="white"/>
<path d="M122.945 92.7665L52.8588 92.6505C51.7163 92.6505 50.7896 91.7974 50.7896 90.7494V86.2868C50.7896 85.2422 51.7174 84.3938 52.8588 84.4007L122.945 84.7942C124.01 84.7942 124.872 85.624 124.872 86.6338V90.9351C124.872 91.9471 124.01 92.7677 122.945 92.7665Z" fill="white"/>
<path d="M55.5764 94.3357L61.6019 116.448C61.9823 117.846 63.3486 118.813 64.9133 118.796L111.569 118.271C113.061 118.255 114.36 117.282 114.722 115.913L120.405 94.3856L55.5764 94.3357ZM72.8723 115.152C72.8723 116.029 72.1045 116.747 71.1557 116.758L69.518 116.774C68.5681 116.785 67.7956 116.078 67.7956 115.199V98.0613C67.7956 97.1816 68.5681 96.4689 69.518 96.4689H71.1557C72.1045 96.4689 72.8723 97.1804 72.8723 98.0567V115.152ZM81.9773 115.064C81.9773 115.938 81.2164 116.655 80.2769 116.664L78.6531 116.68C77.7102 116.691 76.9458 115.984 76.9458 115.113V98.052C76.9458 97.1757 77.7102 96.4666 78.6531 96.4655H80.2769C81.2164 96.4655 81.9773 97.1734 81.9773 98.0462V115.064ZM91.0023 114.98C91.0023 115.849 90.2472 116.562 89.3158 116.571L87.7071 116.587C86.7792 116.597 86.016 115.898 86.016 115.026V98.0416C86.016 97.1699 86.7734 96.4631 87.7071 96.4631H89.3158C90.2437 96.4631 91.0023 97.1676 91.0023 98.0369V114.98ZM99.946 114.894C99.946 115.76 99.1979 116.469 98.2746 116.479L96.681 116.496C95.7531 116.505 95.0038 115.81 95.0038 114.941V98.0323C95.0038 97.1653 95.7554 96.4608 96.681 96.4608H98.2746C99.2025 96.4608 99.946 97.1572 99.946 98.0277V114.894ZM108.81 114.81C108.81 115.673 108.069 116.378 107.155 116.388L105.574 116.404C104.657 116.413 103.913 115.72 103.913 114.857V98.0277C103.913 97.1641 104.657 96.4631 105.574 96.4631H107.153C108.067 96.4631 108.809 97.1595 108.809 98.023L108.81 114.81Z" fill="white"/>
<path d="M63.4507 82.2141C62.9227 82.6231 62.2627 82.8234 61.5966 82.7767C60.9304 82.7301 60.3048 82.4397 59.8389 81.9611C59.6187 81.7351 59.4491 81.465 59.3412 81.1685C59.2334 80.872 59.1897 80.5559 59.2132 80.2413C59.2367 79.9266 59.3267 79.6206 59.4774 79.3434C59.628 79.0662 59.8359 78.8243 60.0871 78.6335C60.6157 78.2256 61.2758 78.0265 61.9417 78.0742C62.6076 78.1219 63.2326 78.4132 63.6977 78.8924C63.9168 79.1182 64.0855 79.388 64.1928 79.6838C64.3 79.9797 64.3434 80.2949 64.3201 80.6088C64.2967 80.9226 64.2072 81.228 64.0573 81.5047C63.9075 81.7814 63.7007 82.0232 63.4507 82.2141V82.2141Z" fill="white"/>
<path d="M85.9417 61.2033C85.5938 60.8226 84.8642 60.8632 84.3179 61.2961L62.1261 78.9307C61.5682 79.3729 61.4082 80.0426 61.7677 80.4256C62.1273 80.8086 62.8696 80.7587 63.4263 80.3165L85.5903 62.675C86.1366 62.2455 86.292 61.5851 85.9417 61.2033Z" fill="white"/>
<path d="M112.964 82.546C113.456 82.9506 114.081 83.1548 114.717 83.1178C115.352 83.0808 115.95 82.8053 116.391 82.3464C116.599 82.1237 116.759 81.8604 116.861 81.573C116.962 81.2855 117.003 80.9802 116.982 80.676C116.96 80.3719 116.876 80.0755 116.734 79.8055C116.592 79.5355 116.396 79.2978 116.159 79.1071C115.668 78.7015 115.043 78.4961 114.408 78.532C113.772 78.568 113.174 78.8426 112.732 79.3009C112.523 79.5236 112.362 79.7872 112.26 80.0753C112.157 80.3633 112.116 80.6694 112.138 80.9743C112.159 81.2792 112.244 81.5763 112.386 81.8468C112.529 82.1173 112.726 82.3554 112.964 82.546V82.546Z" fill="white"/>
<path d="M91.0753 61.2927C91.4233 60.9236 92.1459 60.9898 92.6864 61.4401L114.222 79.3648C114.751 79.8047 114.903 80.4581 114.562 80.826C114.221 81.1939 113.518 81.1359 112.985 80.696L91.4233 62.7748C90.8816 62.3245 90.7262 61.6606 91.0753 61.2927Z" fill="white"/>
<path d="M204.555 71.6826L132.282 70.7587V61.7569L204.555 63.0104V71.6826Z" fill="white"/>
<path d="M204.555 86.8635L132.282 86.5188V77.517L204.555 78.1925V86.8635Z" fill="white"/>
<path d="M204.555 102.045L132.282 102.278V93.2772L204.555 93.3735V102.045Z" fill="white"/>
<path d="M204.555 117.226L132.282 118.038V109.036L204.555 108.555V117.226Z" fill="white"/>
<path d="M178.935 142.229L50.7896 145.318V135.944L178.935 133.441V142.229Z" fill="white"/>
<path d="M178.935 157.615L50.7896 161.73V152.355L178.935 148.827V157.615Z" fill="white"/>
<path d="M178.935 173.002L50.7896 178.142V168.768L178.935 164.214V173.002Z" fill="white"/>
<path d="M178.935 188.388L50.7896 194.555V185.18L178.935 179.6V188.388Z" fill="white"/>
<path d="M204.555 141.611L187.697 142.019V133.27L204.555 132.94V141.611Z" fill="white"/>
<path d="M204.555 156.794L187.697 157.334V148.586L204.555 148.123V156.794Z" fill="white"/>
<path d="M204.555 171.975L187.697 172.651V163.902L204.555 163.304V171.975Z" fill="white"/>
<path d="M204.555 187.156L187.697 187.967V179.218L204.555 178.484V187.156Z" fill="white"/>
<path d="M178.935 213.357L50.7896 221.187V211.813L178.935 204.568V213.357Z" fill="white"/>
<path d="M178.935 228.743L50.7896 237.6V228.225L178.935 219.955V228.743Z" fill="white"/>
<path d="M178.935 244.13L50.7896 254.012V244.638L178.935 235.341V244.13Z" fill="white"/>
<path d="M178.935 259.516L50.7896 270.425V261.05L178.935 250.728V259.516Z" fill="white"/>
<path d="M204.555 211.791L187.697 212.822V204.073L204.555 203.12V211.791Z" fill="white"/>
<path d="M204.555 226.973L187.697 228.137V219.39L204.555 218.301V226.973Z" fill="url(#paint2_linear_257_557)"/>
<path d="M204.555 242.154L187.697 243.454V234.705L204.555 233.483V242.154Z" fill="url(#paint3_linear_257_557)"/>
<path d="M204.555 257.335L187.697 258.77V250.022L204.555 248.664V257.335Z" fill="url(#paint4_linear_257_557)"/>
<path d="M233.92 220.167L195.484 215.466V158.741L233.92 151.456V220.167Z" fill="url(#paint5_linear_257_557)"/>
<path d="M280.803 217.179L233.92 220.167V151.456L280.803 157.932V217.179Z" fill="url(#paint6_linear_257_557)"/>
<g style="mix-blend-mode:soft-light">
<path d="M251.593 153.897V181.914L267.2 183.158V156.053L251.593 153.897Z" fill="white"/>
</g>
<path d="M297.647 302.134L226.345 307.153V202.652L297.647 207.671V302.134Z" fill="url(#paint7_linear_257_557)"/>
<path d="M226.345 307.153L167.889 300.001V209.323L226.345 202.652V307.153Z" fill="url(#paint8_linear_257_557)"/>
<g style="mix-blend-mode:soft-light">
<path d="M251.586 204.429V246.831H275.476V206.111L251.586 204.429Z" fill="white"/>
</g>
<path d="M118.665 168.996C121.958 165.479 112.843 152.261 107.963 146.47C103.701 141.411 99.3197 136.21 93.939 136.869C89.216 137.449 84.6195 142.432 84.3446 147.209C83.6081 160.061 113.984 174.003 118.665 168.996Z" fill="#162F73"/>
<path d="M79.1275 304.812C78.5081 305.315 78.3933 306.575 78.3156 307.398C78.2819 307.766 78.2657 307.95 78.3075 308.08C78.6067 309.027 80.4428 309.125 83.3216 309.421C87.8706 309.885 89.2242 310.243 89.5849 309.567C89.9189 308.932 89.1117 307.892 89.02 307.777C88.5317 307.162 87.9309 306.937 86.771 306.555C84.6253 305.848 83.1754 305.462 82.7358 305.344C79.9927 304.612 79.5346 304.481 79.1275 304.812Z" fill="#09005D"/>
<path d="M81.8335 300.653L82.2882 305.84C82.1594 306.091 80.6179 306.843 79.3943 306.198L78.2251 301.099L81.8335 300.653Z" fill="url(#paint9_linear_257_557)"/>
<path d="M115.206 304.146C114.464 304.966 114.295 306.478 114.941 307.222C115.587 307.966 116.53 307.406 119.232 307.487C122.132 307.573 122.891 308.259 124.862 307.719C125.658 307.499 127.066 306.965 127.038 306.396C127.02 305.996 126.303 305.789 123.907 304.987C120.513 303.85 120.527 303.787 119.806 303.667C118.006 303.362 116.188 303.065 115.206 304.146Z" fill="#09005D"/>
<path d="M117.066 299.411L118.52 304.253C118.404 304.513 116.931 305.38 115.662 304.834L113.501 300.133L117.066 299.411Z" fill="url(#paint10_linear_257_557)"/>
<path d="M104.138 193.346C104.603 229.615 109.412 265.697 118.463 300.82L112.896 302.32C108.187 297.926 102.246 291.008 99.3788 281.234C97.5996 275.167 98.1923 272.048 97.0591 264.587C95.2624 252.705 91.6228 246.481 87.8613 236.899C84.4803 228.289 80.4845 215.659 78.3423 198.763L104.138 193.346Z" fill="#7D97F4"/>
<path d="M87.3823 191.793C86.2456 212.494 85.3177 233.574 84.5986 255.036C84.0674 271.138 83.6738 287.035 83.4178 302.726L77.7287 303.428C75.1244 298.587 73.1315 293.441 71.796 288.108C69.772 279.984 70.2406 275.16 69.3521 266.741C68.3558 257.297 66.9094 255.24 64.3461 243.328C59.1476 219.152 56.546 207.061 62.35 199.537C64.2382 197.1 70.1397 190.977 87.3823 191.793Z" fill="#7D97F4"/>
<path d="M59.7472 139.771C65.92 138.032 72.2636 136.972 78.6659 136.608C90.0326 135.965 95.7159 135.645 99.7453 138.349C109.049 144.606 101.846 159.046 105.654 194.841C106.198 199.948 106.319 205.101 106.714 210.226C107.366 218.713 107.514 219.174 106.924 220.034C103.224 225.427 89.4167 217.294 69.1816 220.508C57.8589 222.307 52.7242 226.452 49.6227 223.462C46.0051 219.98 49.1077 210.599 51.7789 202.528C54.8444 193.262 56.7385 193.143 58.4795 186.163C60.2981 178.87 59.1974 175.115 58.9144 163.613C58.726 155.656 59.0041 147.695 59.7472 139.771V139.771Z" fill="#1E3F94"/>
<g style="mix-blend-mode:multiply" opacity="0.3">
<path d="M87.2651 206.971C81.9761 206.557 78.544 209.549 73.9788 207.217C67.7155 204.019 65.7066 194.072 66.1056 187.03C66.7122 176.332 72.8166 173.511 71.7646 166.596C71.1963 162.857 68.5274 157.892 58.9469 152.818C58.8193 157.088 58.8437 160.727 58.9144 163.612C59.1974 175.114 60.2981 178.869 58.4795 186.162C56.7397 193.141 54.8444 193.259 51.7789 202.527C49.1112 210.598 46.0051 219.975 49.6227 223.461C52.7242 226.451 57.8578 222.3 69.1816 220.507C86.6179 217.737 99.2733 223.386 104.81 221.552C98.1192 210.493 92.0507 207.346 87.2651 206.971Z" fill="#202A43"/>
</g>
<path d="M66.9616 140.504C63.1839 137.398 55.5891 140.914 53.5581 141.854C42.2366 147.094 32.0704 161.217 34.5896 176.14C34.9677 178.379 36.7191 188.848 45.5782 193.921C53.5721 198.497 64.3681 197.32 73.0126 190.838L76.5584 187.689C77.7182 186.433 78.8812 185.175 80.0473 183.916C77.3033 181.631 74.1483 179.892 70.7521 178.792C65.0026 176.935 60.8154 180.267 58.1477 177.735C56.307 175.987 56.3024 172.898 56.7559 171.027C57.6722 167.257 60.9952 166.196 63.7673 163.518C70.2835 157.23 71.4839 144.223 66.9616 140.504Z" fill="url(#paint11_linear_257_557)"/>
<path d="M121.246 189.224L70.6152 188.468L84.079 194.97L121.376 192.527L121.246 189.224Z" fill="#5377D3"/>
<path d="M68.8279 189.815C68.8279 190.277 68.9703 190.729 69.2356 191.108C69.501 191.487 69.8766 191.776 70.3114 191.934L86.4892 198.28L86.5635 193.88L70.6176 188.468C70.4089 188.408 70.1891 188.397 69.9755 188.436C69.7618 188.475 69.5602 188.563 69.3866 188.694C69.213 188.825 69.0721 188.994 68.9751 189.188C68.8782 189.383 68.8278 189.597 68.8279 189.815V189.815Z" fill="#202A43"/>
<path d="M76.6245 186.817C76.3136 186.748 78.1323 183.11 79.5706 183.53C81.0088 183.95 88.0075 188.012 88.6442 189.681L89.2822 191.354C89.2822 191.354 86.2259 191.593 84.3307 190.955C82.4354 190.318 79.1507 187.381 76.6245 186.817Z" fill="url(#paint12_linear_257_557)"/>
<path d="M87.9065 163.009L84.3376 195.525C84.2147 196.647 85.784 198.318 86.9102 198.265L139.266 195.049C139.683 195.029 140.082 194.868 140.395 194.59C140.708 194.313 140.917 193.937 140.988 193.525L147.559 162.121C147.755 160.978 145.703 159.8 144.543 159.83L89.6811 161.373C89.2378 161.385 88.8138 161.558 88.4875 161.858C88.1613 162.159 87.9549 162.568 87.9065 163.009V163.009Z" fill="url(#paint13_linear_257_557)"/>
<path d="M89.1035 163.957L85.5335 196.473C85.5045 196.737 85.533 197.004 85.6171 197.256C85.7012 197.508 85.8388 197.738 86.0205 197.932C86.2021 198.125 86.4235 198.277 86.6694 198.377C86.9153 198.476 87.1799 198.521 87.4449 198.509L140.463 195.997C140.88 195.977 141.278 195.816 141.592 195.538C141.905 195.261 142.114 194.886 142.185 194.473L147.602 162.925C147.647 162.658 147.633 162.383 147.561 162.122C147.488 161.86 147.358 161.618 147.181 161.413C147.003 161.208 146.782 161.044 146.534 160.934C146.286 160.825 146.017 160.771 145.746 160.778L90.8839 162.322C90.4396 162.332 90.0141 162.504 89.6867 162.805C89.3592 163.105 89.152 163.515 89.1035 163.957V163.957Z" fill="#202A43"/>
<path style="mix-blend-mode:multiply" opacity="0.3" d="M120.234 188.378C115.605 186.415 117.24 182.671 111.767 178.005C104.557 171.854 97.2052 174.523 94.6327 169.75C93.8312 168.264 93.4484 165.952 94.8437 162.206L90.8712 162.322C90.4282 162.334 90.0048 162.507 89.679 162.807C89.3532 163.108 89.1472 163.516 89.0989 163.957L85.5335 196.473C85.5047 196.737 85.5334 197.004 85.6176 197.256C85.7017 197.507 85.8393 197.738 86.0209 197.931C86.2026 198.125 86.4239 198.276 86.6697 198.376C86.9155 198.476 87.18 198.521 87.4449 198.509L140.463 195.997C140.88 195.977 141.278 195.816 141.592 195.538C141.905 195.261 142.114 194.886 142.185 194.473L142.932 190.12C141.131 189.104 139.183 188.374 137.158 187.954C129.38 186.376 125.564 190.639 120.234 188.378Z" fill="url(#paint14_linear_257_557)"/>
<path d="M143.805 191.449C143.826 191.388 143.832 191.324 143.823 191.26C143.815 191.197 143.792 191.136 143.756 191.083C143.72 191.03 143.672 190.987 143.616 190.955C143.56 190.924 143.498 190.906 143.434 190.903C142.314 190.846 139.714 190.823 138.28 191.702C136.416 192.845 134.007 194.929 136.035 195.981L137.931 196.963C138.015 197.008 138.114 197.022 138.208 197.001C138.882 196.854 141.715 196.224 142.025 196.073C142.304 195.925 143.384 192.717 143.805 191.449Z" fill="url(#paint15_linear_257_557)"/>
<path d="M79.5149 124.181C79.5448 126.824 79.3089 129.464 78.8109 132.059C78.4038 134.158 78.115 134.7 77.7357 135.14C77.172 135.801 76.3172 136.357 71.4875 137.555C68.8592 138.207 68.5217 138.19 68.4637 138.451C68.1807 139.728 75.3463 144.063 82.7498 143.017C87.2814 142.377 91.4036 139.79 91.1507 138.431C90.8979 137.072 86.3698 137.799 85.0208 135.325C84.0825 133.604 85.1368 131.162 86.3779 129.139C85.1728 126.882 80.7189 126.439 79.5149 124.181Z" fill="url(#paint16_linear_257_557)"/>
<path d="M87.9239 125.514C88.9933 124.093 89.0595 121.612 87.8277 120.042C86.7676 118.693 85.0985 118.5 84.0999 118.385C81.2002 118.051 77.5524 119.259 76.2823 121.925C75.5296 123.506 77.158 126.788 77.4132 127.38C77.702 128.047 78.2251 128.277 78.7099 128.781C79.3803 129.477 80.4312 130.594 82.1466 132.454C82.3087 131.781 82.5287 131.124 82.8043 130.489C83.162 129.664 83.6239 128.888 84.1787 128.18C85.6877 126.335 86.9102 126.861 87.9239 125.514Z" fill="#09005D"/>
<path d="M79.7005 130.887C79.7005 130.887 81.6027 134.011 85.392 133.764C88.7846 133.543 89.281 125.931 87.1144 124.316C86.3918 123.777 84.9431 123.553 83.767 123.883C83.0711 124.078 82.8391 124.367 81.6931 124.664C80.64 124.937 80.3419 124.821 80.0241 125.088C79.6262 125.423 79.3351 126.248 79.9997 128.47C79.3525 127.814 78.5754 127.562 78.0279 127.822C77.84 127.925 77.6839 128.077 77.5768 128.263C77.0989 129.132 77.8922 130.248 79.7005 130.887Z" fill="url(#paint17_linear_257_557)"/>
<path d="M79.871 124.633C80.0345 124.755 79.5346 125.365 79.4975 126.23C79.4244 127.908 81.1213 129.922 82.853 130.092C83.8772 130.193 84.159 129.576 85.8513 129.396C86.6763 129.311 87.5096 129.36 88.3195 129.539C88.8507 131.379 88.3508 133.214 87.1213 134.065C85.7979 134.982 84.1057 134.426 83.4005 134.193C82.9284 134.037 81.4124 133.543 80.6168 132.152C79.7909 130.703 80.6005 129.831 79.6541 128.85C79.1774 128.356 78.5499 128.141 77.9398 127.185C77.8069 126.979 77.6906 126.764 77.5918 126.54C78.4756 125.613 79.6344 124.456 79.871 124.633Z" fill="#09005D"/>
<path d="M87.0877 130.222C87.0877 130.222 86.3558 130.605 85.0892 130.534C85.0278 130.534 84.9593 130.548 84.9524 130.581C84.9234 130.697 85.7353 131.239 86.4834 131.029C87.0146 130.879 87.4287 130.377 87.3568 130.248C87.3266 130.194 87.2037 130.201 87.0877 130.222Z" fill="url(#paint18_linear_257_557)"/>
<path d="M162.61 305.813C159.907 305.599 156.449 304.848 153.131 302.68C149.535 300.331 144.862 295.502 146.083 292.46C146.539 291.325 147.851 290.353 149.005 290.445C150.709 290.582 150.907 292.95 153.866 295.527C154.413 296.003 157.24 298.464 158.646 297.634C159.342 297.222 159.552 296.08 159.437 295.211C159.104 292.67 156.005 292.28 153.025 289.531C150.009 286.745 147.486 281.879 148.925 278.591C149.753 276.701 151.941 275.21 153.379 275.629C153.994 275.808 154.383 276.311 156.25 280.346C157.782 283.657 158.122 284.621 159.11 284.936C160.126 285.259 161.707 284.854 162.308 283.852C163.871 281.242 157.11 277.388 156.497 270.083C156.221 266.81 157.106 261.959 160.068 260.915C162.071 260.212 164.923 261.286 165.955 263.12C166.883 264.777 165.755 266.021 166.465 269.746C166.679 270.876 167.122 273.201 168.057 273.323C169.154 273.466 170.383 270.501 170.666 269.779C172.802 264.345 170.352 261.551 172.367 258.911C173.938 256.855 177.355 256.028 180.063 257.067C182.432 257.977 184.328 260.341 184.454 262.792C184.584 265.285 182.482 267.767 178.296 272.731C176.308 275.086 174.727 276.677 174.817 279.016C174.86 280.157 175.312 281.761 176.129 281.908C177.931 282.231 178.817 274.97 183.088 273.849C185.274 273.275 187.991 274.402 189.184 276.374C190.647 278.79 189.667 282.214 187.829 284.014C185.432 286.365 182.974 284.579 178.463 287.103C176.461 288.222 173.317 290.603 173.778 292.572C173.978 293.429 174.876 294.27 175.865 294.381C178.069 294.632 178.804 291.01 182.361 289.416C184.919 288.269 188.458 288.393 189.299 289.837C190.485 291.875 186.27 296.504 184.03 298.549C181.314 301.028 174.926 305.716 162.61 305.813Z" fill="url(#paint19_linear_257_557)"/>
<path opacity="0.5" d="M163.824 304.651C163.466 298.593 167.477 286.25 170.395 280.415C173.251 274.705 175.982 265.675 176.01 265.583L176.188 265.636C176.161 265.726 173.424 274.775 170.561 280.492C167.652 286.309 163.653 298.606 164.009 304.633L163.824 304.651Z" fill="white"/>
<path d="M156.239 306.604C154.204 303.776 151.218 298.674 150.683 291.849C150.463 289.036 150.032 283.543 153.391 278.806C155.064 276.444 158.61 272.951 161.012 273.959C162.555 274.606 163.513 277.073 163.078 278.949C162.643 280.826 161.041 281.015 159.302 284.223C158.659 285.411 157.923 286.805 158.49 287.589C158.963 288.247 160.258 288.367 161.23 287.972C163.237 287.16 162.609 284.657 164.779 282.865C166.322 281.589 168.894 280.991 169.999 282.036C170.961 282.942 170.794 285.06 169.943 286.473C168.579 288.735 166.134 288.071 164.54 290.543C163.833 291.64 163.331 293.297 163.949 293.952C164.654 294.698 166.732 294.053 168.059 293.228C169.815 292.139 169.88 290.979 171.038 290.834C172.328 290.672 173.938 291.901 174.193 293.261C174.541 295.166 172.211 297.221 170.365 298.114C167.998 299.256 166.238 298.585 165.082 300.146C164.657 300.719 164.27 301.655 164.618 302.222C165.114 303.035 166.91 302.764 168.098 302.587C170.997 302.155 171.795 301.102 172.835 301.614C173.874 302.126 174.429 303.88 173.975 305.107C173.722 305.788 172.962 306.847 169.198 307.506C166.565 307.967 162.139 308.294 156.239 306.604Z" fill="url(#paint20_linear_257_557)"/>
<path d="M301.72 96.3389C301.72 121.35 281.579 142.973 256.657 144.64C231.65 146.313 211.317 127.272 211.317 102.106C211.317 76.9402 231.65 55.3038 256.661 53.7869C281.579 52.2734 301.72 71.3274 301.72 96.3389Z" fill="#1E3F94"/>
<path d="M255.066 123.795C253.106 123.923 251.282 123.011 250.267 121.381L233.231 94.0002C231.634 91.4353 232.495 87.9197 235.152 86.1509C237.809 84.3821 241.253 85.0298 242.848 87.5936L254.666 106.6L270.258 74.8232C271.658 71.9704 275.019 70.6624 277.766 71.8996C280.512 73.1368 281.604 76.4481 280.201 79.2986L260.051 120.398C259.602 121.32 258.928 122.113 258.09 122.704C257.253 123.295 256.279 123.665 255.261 123.778C255.197 123.785 255.131 123.791 255.066 123.795Z" fill="white"/>
</g>
<defs>
<linearGradient id="paint0_linear_257_557" x1="335.73" y1="363.097" x2="106.076" y2="105.05" gradientUnits="userSpaceOnUse">
<stop stop-color="#DAE3FE"/>
<stop offset="1" stop-color="#E9EFFD"/>
</linearGradient>
<linearGradient id="paint1_linear_257_557" x1="126.311" y1="29.3174" x2="109.366" y2="182.377" gradientUnits="userSpaceOnUse">
<stop stop-color="#40447E"/>
<stop offset="1" stop-color="#3C3B6B"/>
</linearGradient>
<linearGradient id="paint2_linear_257_557" x1="68.4591" y1="223.22" x2="530.719" y2="223.22" gradientUnits="userSpaceOnUse">
<stop stop-color="#AA80F9"/>
<stop offset="1" stop-color="#6165D7"/>
</linearGradient>
<linearGradient id="paint3_linear_257_557" x1="68.4591" y1="238.468" x2="530.719" y2="238.468" gradientUnits="userSpaceOnUse">
<stop stop-color="#AA80F9"/>
<stop offset="1" stop-color="#6165D7"/>
</linearGradient>
<linearGradient id="paint4_linear_257_557" x1="68.4591" y1="253.717" x2="530.719" y2="253.717" gradientUnits="userSpaceOnUse">
<stop stop-color="#AA80F9"/>
<stop offset="1" stop-color="#6165D7"/>
</linearGradient>
<linearGradient id="paint5_linear_257_557" x1="234.399" y1="156.167" x2="192.175" y2="227.432" gradientUnits="userSpaceOnUse">
<stop stop-color="#FFC444"/>
<stop offset="0.31" stop-color="#FBA94A"/>
<stop offset="1" stop-color="#F36F56"/>
</linearGradient>
<linearGradient id="paint6_linear_257_557" x1="272.995" y1="157.899" x2="229.199" y2="231.816" gradientUnits="userSpaceOnUse">
<stop stop-color="#FFC444"/>
<stop offset="0.31" stop-color="#FBA94A"/>
<stop offset="1" stop-color="#F36F56"/>
</linearGradient>
<linearGradient id="paint7_linear_257_557" x1="287.677" y1="208.993" x2="218.72" y2="325.379" gradientUnits="userSpaceOnUse">
<stop stop-color="#FFC444"/>
<stop offset="0.31" stop-color="#FBA94A"/>
<stop offset="1" stop-color="#F36F56"/>
</linearGradient>
<linearGradient id="paint8_linear_257_557" x1="226.107" y1="209.245" x2="161.892" y2="317.628" gradientUnits="userSpaceOnUse">
<stop stop-color="#FFC444"/>
<stop offset="0.31" stop-color="#FBA94A"/>
<stop offset="1" stop-color="#F36F56"/>
</linearGradient>
<linearGradient id="paint9_linear_257_557" x1="82.2882" y1="303.552" x2="78.224" y2="303.552" gradientUnits="userSpaceOnUse">
<stop stop-color="#FFC444"/>
<stop offset="1" stop-color="#F36F56"/>
</linearGradient>
<linearGradient id="paint10_linear_257_557" x1="118.52" y1="302.211" x2="113.501" y2="302.211" gradientUnits="userSpaceOnUse">
<stop stop-color="#FFC444"/>
<stop offset="1" stop-color="#F36F56"/>
</linearGradient>
<linearGradient id="paint11_linear_257_557" x1="52.3148" y1="156.097" x2="78.2319" y2="280.311" gradientUnits="userSpaceOnUse">
<stop stop-color="#1E3F94"/>
<stop offset="1" stop-color="#6165D7"/>
</linearGradient>
<linearGradient id="paint12_linear_257_557" x1="89.281" y1="187.449" x2="76.5897" y2="187.449" gradientUnits="userSpaceOnUse">
<stop stop-color="#FFC444"/>
<stop offset="1" stop-color="#F36F56"/>
</linearGradient>
<linearGradient id="paint13_linear_257_557" x1="121.194" y1="186.371" x2="109.242" y2="169.411" gradientUnits="userSpaceOnUse">
<stop stop-color="#444B8C"/>
<stop offset="1" stop-color="#26264F"/>
</linearGradient>
<linearGradient id="paint14_linear_257_557" x1="85.523" y1="180.36" x2="142.932" y2="180.36" gradientUnits="userSpaceOnUse">
<stop stop-color="#311944"/>
<stop offset="1" stop-color="#893976"/>
</linearGradient>
<linearGradient id="paint15_linear_257_557" x1="143.824" y1="193.945" x2="135.262" y2="193.945" gradientUnits="userSpaceOnUse">
<stop stop-color="#FFC444"/>
<stop offset="1" stop-color="#F36F56"/>
</linearGradient>
<linearGradient id="paint16_linear_257_557" x1="78.9663" y1="124.212" x2="81.159" y2="161.454" gradientUnits="userSpaceOnUse">
<stop stop-color="#FFC444"/>
<stop offset="1" stop-color="#F36F56"/>
</linearGradient>
<linearGradient id="paint17_linear_257_557" x1="88.4204" y1="128.753" x2="77.4387" y2="128.753" gradientUnits="userSpaceOnUse">
<stop stop-color="#FFC444"/>
<stop offset="1" stop-color="#F36F56"/>
</linearGradient>
<linearGradient id="paint18_linear_257_557" x1="87.3649" y1="130.642" x2="84.9512" y2="130.642" gradientUnits="userSpaceOnUse">
<stop stop-color="#FFC444"/>
<stop offset="1" stop-color="#F36F56"/>
</linearGradient>
<linearGradient id="paint19_linear_257_557" x1="188.271" y1="248.644" x2="165.07" y2="292.888" gradientUnits="userSpaceOnUse">
<stop stop-color="#1E3F94"/>
<stop offset="1" stop-color="#6165D7"/>
</linearGradient>
<linearGradient id="paint20_linear_257_557" x1="172.074" y1="281.943" x2="145.45" y2="313.838" gradientUnits="userSpaceOnUse">
<stop stop-color="#8DB5E3"/>
<stop offset="1" stop-color="#9571F6"/>
</linearGradient>
<clipPath id="clip0_257_557">
<rect width="320" height="318.164" fill="white"/>
</clipPath>
</defs>
</svg>
