<svg width="272" height="60" viewBox="0 0 272 60" fill="none" xmlns="http://www.w3.org/2000/svg">
<rect width="272" height="60" rx="10" fill="#F4F4F4"/>
<rect x="2.5" y="2.5" width="267" height="55" rx="7.5" fill="#F4F4F4" stroke="#CFCFCF" stroke-dasharray="6 6"/>
<path d="M72.3955 31.8213C72.1318 30.874 72.5859 29.7754 73.7578 28.5254C74.9395 27.2754 76.5459 26.0156 78.5771 24.7461C80.6182 23.4766 82.791 22.3486 85.0957 21.3623C87.4004 20.3662 89.5488 19.6533 91.541 19.2236C93.543 18.7842 95.0908 18.7744 96.1846 19.1943C97.1709 19.6533 97.6055 20.2979 97.4883 21.1279C97.3711 21.9482 96.8877 22.7979 96.0381 23.6768C95.1885 24.5557 94.1582 25.3027 92.9473 25.918C91.7461 26.5332 90.5449 26.8555 89.3438 26.8848C88.9824 26.875 88.7871 26.7627 88.7578 26.5479C88.7285 26.333 88.7969 26.1035 88.9629 25.8594C89.1289 25.6152 89.3193 25.4395 89.5342 25.332C89.7588 25.2246 89.9443 25.2637 90.0908 25.4492C90.1006 25.4688 90.1104 25.4883 90.1201 25.5078C90.1592 25.5664 90.1885 25.6201 90.208 25.6689C90.2275 25.7178 90.2178 25.7764 90.1787 25.8447C90.1787 25.8643 90.1738 25.8789 90.1641 25.8887C90.1348 25.9277 90.1201 25.957 90.1201 25.9766C90.1201 25.9961 90.1494 26.0059 90.208 26.0059C90.96 25.8984 91.7998 25.5957 92.7275 25.0977C93.665 24.5898 94.5049 23.999 95.2471 23.3252C95.9893 22.6416 96.458 21.9922 96.6533 21.377C96.8486 20.752 96.5898 20.2734 95.877 19.9414C94.8418 19.5508 93.3818 19.5752 91.4971 20.0146C89.6123 20.4541 87.5762 21.1621 85.3887 22.1387C83.2012 23.1152 81.1357 24.2041 79.1924 25.4053C77.2588 26.5967 75.7158 27.7539 74.5635 28.877C73.4209 30 72.9424 30.9277 73.1279 31.6602C73.3135 32.0703 73.9189 32.2949 74.9443 32.334C75.9795 32.3633 77.2246 32.2949 78.6797 32.1289C80.1445 31.9531 81.6045 31.7529 83.0596 31.5283C85.1396 31.2061 86.7021 31.0254 87.7471 30.9863C87.9717 30.9766 88.2793 30.9863 88.6699 31.0156C89.0605 31.0352 89.4219 31.1084 89.7539 31.2354C90.0957 31.3525 90.3008 31.5527 90.3691 31.8359C90.4082 32.1973 90.1348 32.6465 89.5488 33.1836C88.9629 33.7109 88.2256 34.2627 87.3369 34.8389C86.4482 35.4053 85.5645 35.9326 84.6855 36.4209C83.8164 36.9189 83.1133 37.3096 82.5762 37.5928C82.3613 37.71 82.1953 37.7979 82.0781 37.8564C81.7363 38.042 81.3311 38.2617 80.8623 38.5156C79.6514 39.1406 78.3574 39.8535 76.9805 40.6543C75.6035 41.4551 74.5977 42.1875 73.9629 42.8516C73.8359 42.9883 73.7236 43.0518 73.626 43.042C73.5283 43.042 73.4697 42.9883 73.4502 42.8809C73.4307 42.7734 73.4795 42.6465 73.5967 42.5C74.2705 41.7969 75.3154 41.0107 76.7314 40.1416C78.1572 39.2822 79.4512 38.5352 80.6133 37.9004C80.9648 37.7051 81.2676 37.5342 81.5215 37.3877C81.6094 37.3389 81.7607 37.2559 81.9756 37.1387C82.6592 36.7578 83.6113 36.2109 84.832 35.498C86.0527 34.7852 87.1611 34.0869 88.1572 33.4033C89.1631 32.7197 89.6709 32.2314 89.6807 31.9385C89.6416 31.8115 89.4561 31.7285 89.124 31.6895C88.792 31.6504 88.4453 31.6357 88.084 31.6455C87.7324 31.6553 87.5029 31.6699 87.3955 31.6895C86.5361 31.7578 85.3496 31.9238 83.8359 32.1875C82.3027 32.4609 80.7061 32.7002 79.0459 32.9053C77.3857 33.1104 75.9355 33.1592 74.6953 33.0518C73.4551 32.9346 72.6885 32.5244 72.3955 31.8213ZM95.3496 31.5283C94.9395 31.9385 94.5244 32.4951 94.1045 33.1982C93.6943 33.8916 93.46 34.4287 93.4014 34.8096C93.4014 35.0635 93.6211 35.1318 94.0605 35.0146C94.5098 34.9072 95.0371 34.7119 95.6426 34.4287C96.2578 34.1357 96.8047 33.8525 97.2832 33.5791C97.7715 33.3057 98.0498 33.1396 98.1182 33.0811C98.2646 32.9736 98.3818 32.9297 98.4697 32.9492C98.5576 32.9688 98.6016 33.0176 98.6016 33.0957C98.6016 33.1738 98.5527 33.2568 98.4551 33.3447C98.1816 33.5693 97.6934 33.8867 96.9902 34.2969C96.2871 34.707 95.5596 35.0537 94.8076 35.3369C94.0557 35.6201 93.4746 35.6787 93.0645 35.5127C92.6445 35.3467 92.5908 34.8047 92.9033 33.8867C93.167 33.1934 93.6162 32.4512 94.251 31.6602C94.8857 30.8594 95.4619 30.3857 95.9795 30.2393C96.2139 30.2002 96.4043 30.2393 96.5508 30.3564C96.707 30.4736 96.8047 30.6299 96.8438 30.8252C96.8047 31.04 96.7119 31.2109 96.5654 31.3379C96.4189 31.4551 96.2676 31.5234 96.1113 31.543C95.9551 31.5625 95.8428 31.5234 95.7744 31.4258C95.7646 31.3965 95.7549 31.3721 95.7451 31.3525C95.7354 31.3135 95.7207 31.2891 95.7012 31.2793C95.6816 31.2598 95.6426 31.2695 95.584 31.3086C95.5352 31.3477 95.457 31.4209 95.3496 31.5283ZM105.809 33.0078C106.072 32.8711 106.229 32.8613 106.277 32.9785C106.326 33.0957 106.233 33.2373 105.999 33.4033C105.628 33.6279 105.149 33.8477 104.563 34.0625C103.987 34.2676 103.47 34.3311 103.011 34.2529C102.552 34.165 102.312 33.7939 102.293 33.1396V33.0664C102.303 32.9297 102.293 32.8613 102.264 32.8613C102.234 32.8516 102.151 32.8906 102.015 32.9785C100.501 33.9648 99.3877 34.5801 98.6748 34.8242C97.9717 35.0684 97.5566 35.0781 97.4297 34.8535C97.2734 34.541 97.4688 34.0576 98.0156 33.4033C98.5625 32.7393 99.2656 32.1094 100.125 31.5137C100.994 30.918 101.824 30.5615 102.615 30.4443C103.406 30.3174 103.963 30.6299 104.285 31.3818C104.314 31.4795 104.3 31.5674 104.241 31.6455C104.183 31.7236 104.104 31.7773 104.007 31.8066C103.909 31.8359 103.797 31.8164 103.67 31.748C103.553 31.6797 103.47 31.5967 103.421 31.499C103.421 31.4795 103.426 31.46 103.436 31.4404C103.445 31.4209 103.455 31.4014 103.465 31.3818C103.475 31.3623 103.484 31.3428 103.494 31.3232C103.504 31.3037 103.504 31.2842 103.494 31.2646C103.25 30.9326 102.83 30.8838 102.234 31.1182C101.639 31.3525 101.009 31.7188 100.345 32.2168C99.6807 32.7148 99.1191 33.1885 98.6602 33.6377C98.2012 34.0771 97.9863 34.3457 98.0156 34.4434C98.0547 34.541 98.4404 34.3799 99.1729 33.96C99.9053 33.54 101.106 32.7539 102.776 31.6016C102.864 31.5527 102.952 31.5381 103.04 31.5576C103.138 31.5674 103.216 31.6162 103.274 31.7041C103.343 31.8213 103.348 31.9385 103.289 32.0557C102.918 32.8564 102.874 33.3496 103.157 33.5352C103.45 33.7207 103.865 33.7354 104.402 33.5791C104.949 33.4229 105.418 33.2324 105.809 33.0078ZM104.739 35.0879C104.935 34.6094 105.232 34.0283 105.633 33.3447C106.023 32.6611 106.404 32.0068 106.775 31.3818C106.98 31.0498 107.156 30.7617 107.303 30.5176C107.244 30.4395 107.215 30.3564 107.215 30.2686C107.215 30.1807 107.244 30.1025 107.303 30.0342C107.557 29.7607 107.742 29.6094 107.859 29.5801L107.889 29.5654C107.977 29.5361 108.055 29.5361 108.123 29.5654C108.27 29.6143 108.362 29.707 108.401 29.8438C108.401 29.8535 108.401 29.8682 108.401 29.8877C108.401 29.8975 108.401 29.9072 108.401 29.917C108.401 30.0049 108.377 30.0928 108.328 30.1807C107.967 30.7666 107.562 31.4355 107.112 32.1875C106.673 32.9297 106.282 33.6035 105.94 34.209C106.175 33.9844 106.551 33.6621 107.068 33.2422C107.596 32.8125 108.118 32.417 108.636 32.0557C109.163 31.6846 109.539 31.4893 109.764 31.4697C110.115 31.4795 110.315 31.6211 110.364 31.8945C110.413 32.1582 110.413 32.4561 110.364 32.7881C110.335 33.042 110.33 33.2617 110.35 33.4473C110.369 33.623 110.467 33.7109 110.643 33.7109C110.828 33.7109 111.141 33.5645 111.58 33.2715C111.707 33.1934 111.795 33.1738 111.844 33.2129C111.902 33.252 111.922 33.3203 111.902 33.418C111.883 33.5059 111.829 33.5791 111.741 33.6377C110.862 34.1943 110.281 34.3018 109.998 33.96C109.715 33.6084 109.642 33.0127 109.778 32.1729C109.573 32.1924 109.266 32.3682 108.855 32.7002C108.445 33.0225 108.001 33.3984 107.522 33.8281C107.103 34.1992 106.702 34.541 106.321 34.8535C105.94 35.166 105.618 35.3906 105.354 35.5273C105.159 35.6152 104.993 35.6152 104.856 35.5273C104.72 35.4395 104.681 35.293 104.739 35.0879ZM119.681 31.8213C119.417 30.874 119.871 29.7754 121.043 28.5254C122.225 27.2754 123.831 26.0156 125.862 24.7461C127.903 23.4766 130.076 22.3486 132.381 21.3623C134.686 20.3662 136.834 19.6533 138.826 19.2236C140.828 18.7842 142.376 18.7744 143.47 19.1943C144.456 19.6533 144.891 20.2979 144.773 21.1279C144.656 21.9482 144.173 22.7979 143.323 23.6768C142.474 24.5557 141.443 25.3027 140.232 25.918C139.031 26.5332 137.83 26.8555 136.629 26.8848C136.268 26.875 136.072 26.7627 136.043 26.5479C136.014 26.333 136.082 26.1035 136.248 25.8594C136.414 25.6152 136.604 25.4395 136.819 25.332C137.044 25.2246 137.229 25.2637 137.376 25.4492C137.386 25.4688 137.396 25.4883 137.405 25.5078C137.444 25.5664 137.474 25.6201 137.493 25.6689C137.513 25.7178 137.503 25.7764 137.464 25.8447C137.464 25.8643 137.459 25.8789 137.449 25.8887C137.42 25.9277 137.405 25.957 137.405 25.9766C137.405 25.9961 137.435 26.0059 137.493 26.0059C138.245 25.8984 139.085 25.5957 140.013 25.0977C140.95 24.5898 141.79 23.999 142.532 23.3252C143.274 22.6416 143.743 21.9922 143.938 21.377C144.134 20.752 143.875 20.2734 143.162 19.9414C142.127 19.5508 140.667 19.5752 138.782 20.0146C136.897 20.4541 134.861 21.1621 132.674 22.1387C130.486 23.1152 128.421 24.2041 126.478 25.4053C124.544 26.5967 123.001 27.7539 121.849 28.877C120.706 30 120.228 30.9277 120.413 31.6602C120.599 32.0703 121.204 32.2949 122.229 32.334C123.265 32.3633 124.51 32.2949 125.965 32.1289C127.43 31.9531 128.89 31.7529 130.345 31.5283C132.425 31.2061 133.987 31.0254 135.032 30.9863C135.257 30.9766 135.564 30.9863 135.955 31.0156C136.346 31.0352 136.707 31.1084 137.039 31.2354C137.381 31.3525 137.586 31.5527 137.654 31.8359C137.693 32.1973 137.42 32.6465 136.834 33.1836C136.248 33.7109 135.511 34.2627 134.622 34.8389C133.733 35.4053 132.85 35.9326 131.971 36.4209C131.102 36.9189 130.398 37.3096 129.861 37.5928C129.646 37.71 129.48 37.7979 129.363 37.8564C129.021 38.042 128.616 38.2617 128.147 38.5156C126.937 39.1406 125.643 39.8535 124.266 40.6543C122.889 41.4551 121.883 42.1875 121.248 42.8516C121.121 42.9883 121.009 43.0518 120.911 43.042C120.813 43.042 120.755 42.9883 120.735 42.8809C120.716 42.7734 120.765 42.6465 120.882 42.5C121.556 41.7969 122.601 41.0107 124.017 40.1416C125.442 39.2822 126.736 38.5352 127.898 37.9004C128.25 37.7051 128.553 37.5342 128.807 37.3877C128.895 37.3389 129.046 37.2559 129.261 37.1387C129.944 36.7578 130.896 36.2109 132.117 35.498C133.338 34.7852 134.446 34.0869 135.442 33.4033C136.448 32.7197 136.956 32.2314 136.966 31.9385C136.927 31.8115 136.741 31.7285 136.409 31.6895C136.077 31.6504 135.73 31.6357 135.369 31.6455C135.018 31.6553 134.788 31.6699 134.681 31.6895C133.821 31.7578 132.635 31.9238 131.121 32.1875C129.588 32.4609 127.991 32.7002 126.331 32.9053C124.671 33.1104 123.221 33.1592 121.98 33.0518C120.74 32.9346 119.974 32.5244 119.681 31.8213ZM144.114 28.2617C144.378 28.2812 144.5 28.3643 144.48 28.5107C144.461 28.6475 144.363 28.7891 144.188 28.9355C144.021 29.0723 143.841 29.165 143.646 29.2139C143.46 29.2529 143.323 29.1895 143.235 29.0234C143.216 28.9746 143.221 28.9307 143.25 28.8916C143.289 28.8428 143.338 28.8037 143.396 28.7744C143.465 28.7354 143.523 28.7012 143.572 28.6719C143.611 28.6621 143.641 28.6523 143.66 28.6426C143.68 28.6328 143.689 28.623 143.689 28.6133C143.699 28.5059 143.743 28.418 143.821 28.3496C143.899 28.2812 143.997 28.252 144.114 28.2617ZM140.848 35.2197C140.467 35.2197 140.242 35.0977 140.174 34.8535C140.105 34.6094 140.14 34.3018 140.276 33.9307C140.403 33.5498 140.584 33.1543 140.818 32.7441C141.053 32.3242 141.287 31.9434 141.521 31.6016C141.756 31.25 141.941 30.9814 142.078 30.7959C142.117 30.7275 142.151 30.6787 142.181 30.6494C142.122 30.4932 142.176 30.3223 142.342 30.1367C142.508 29.9414 142.703 29.7998 142.928 29.7119C143.152 29.6143 143.313 29.6289 143.411 29.7559C143.479 29.8633 143.494 29.9658 143.455 30.0635C143.416 30.1611 143.362 30.2539 143.294 30.3418C143.274 30.3613 143.255 30.3857 143.235 30.415C142.864 30.9424 142.459 31.5332 142.02 32.1875C141.59 32.832 141.268 33.374 141.053 33.8135C140.887 34.1943 140.989 34.4043 141.36 34.4434C141.741 34.4824 142.229 34.4238 142.825 34.2676C143.431 34.1113 143.982 33.9453 144.48 33.7695C144.988 33.584 145.291 33.4619 145.389 33.4033C145.496 33.3447 145.579 33.335 145.638 33.374C145.706 33.4131 145.735 33.4766 145.726 33.5645C145.716 33.6426 145.647 33.7256 145.521 33.8135C144.886 34.165 144.056 34.4873 143.03 34.7803C142.015 35.0732 141.287 35.2197 140.848 35.2197ZM153.108 30.6348C153.206 30.6055 153.328 30.6055 153.475 30.6348C153.621 30.6641 153.738 30.7227 153.826 30.8105C153.914 30.8984 153.924 31.0059 153.855 31.1328C153.602 31.7383 153.304 32.3291 152.962 32.9053C152.923 32.9639 152.889 33.0225 152.859 33.0811C152.654 33.4424 152.454 33.8037 152.259 34.165C151.937 34.751 151.595 35.3418 151.233 35.9375C151.116 36.123 151.038 36.2598 150.999 36.3477C150.96 36.4453 150.945 36.5186 150.955 36.5674C150.965 36.6162 150.994 36.6699 151.043 36.7285C151.053 36.7383 151.062 36.748 151.072 36.7578C151.131 36.8359 151.15 36.9189 151.131 37.0068C151.121 37.0947 151.082 37.168 151.014 37.2266C150.691 37.4609 150.413 37.6953 150.179 37.9297C149.944 38.1738 149.72 38.4619 149.505 38.7939C149.271 39.1846 148.973 39.6777 148.611 40.2734C147.791 41.6504 146.893 43.0859 145.916 44.5801C144.949 46.084 144.202 47.0557 143.675 47.4951C143.304 47.7393 143.016 47.793 142.811 47.6562C142.596 47.5293 142.527 47.251 142.605 46.8213C142.791 46.0791 143.113 45.3027 143.572 44.4922C144.021 43.6816 144.485 42.9785 144.964 42.3828C145.94 41.1328 146.995 39.9512 148.128 38.8379C148.509 38.4668 148.836 38.1201 149.109 37.7979C149.383 37.4854 149.661 37.1045 149.944 36.6553L152.098 33.1982C152.273 32.9346 152.435 32.666 152.581 32.3926C152.688 32.1973 152.732 32.0752 152.713 32.0264C152.703 31.9678 152.654 31.9629 152.566 32.0117C152.479 32.0508 152.376 32.1143 152.259 32.2021C152.151 32.29 152.049 32.3779 151.951 32.4658C151.893 32.5146 151.844 32.5537 151.805 32.583C151.551 32.7783 151.15 33.1104 150.604 33.5791C149.93 34.1553 149.163 34.7949 148.304 35.498C147.444 36.2012 146.639 36.7969 145.887 37.2852C145.135 37.7832 144.588 38.0225 144.246 38.0029C143.836 38.0029 143.587 37.8711 143.499 37.6074C143.401 37.3535 143.387 37.0557 143.455 36.7139C143.66 35.6885 144.188 34.585 145.037 33.4033C145.887 32.2119 146.883 31.2061 148.025 30.3857C149.168 29.5654 150.286 29.1895 151.38 29.2578C151.673 29.2969 151.883 29.4043 152.01 29.5801C152.137 29.7559 152.161 29.9365 152.083 30.1221C152.015 30.3076 151.824 30.4248 151.512 30.4736C151.414 30.4932 151.346 30.4883 151.307 30.459C151.268 30.4297 151.233 30.3906 151.204 30.3418C151.185 30.293 151.15 30.249 151.102 30.21C151.062 30.1611 150.994 30.127 150.896 30.1074C150.809 30.0879 150.672 30.0977 150.486 30.1367C149.627 30.3027 148.743 30.752 147.835 31.4844C146.927 32.207 146.131 33.0469 145.447 34.0039C144.764 34.9512 144.339 35.8447 144.173 36.6846C144.114 37.0264 144.168 37.207 144.334 37.2266C144.5 37.2461 144.715 37.1777 144.979 37.0215C145.232 36.8652 145.472 36.6992 145.696 36.5234C145.921 36.3477 146.067 36.2256 146.136 36.1572C147.845 34.6924 149.593 33.2764 151.38 31.9092C151.946 31.4697 152.522 31.0449 153.108 30.6348ZM143.382 46.9092C143.558 46.8408 143.807 46.5723 144.129 46.1035C144.451 45.6445 144.783 45.127 145.125 44.5508C145.457 43.9746 145.735 43.4814 145.96 43.0713C146.106 42.8076 146.204 42.6367 146.253 42.5586C146.272 42.5293 146.302 42.4854 146.341 42.4268C146.419 42.3096 146.512 42.1631 146.619 41.9873C146.727 41.8213 146.81 41.6602 146.868 41.5039C146.937 41.3574 146.946 41.2646 146.897 41.2256C146.81 41.1865 146.614 41.3525 146.312 41.7236C146.019 42.1045 145.677 42.5879 145.286 43.1738C144.905 43.7598 144.544 44.3408 144.202 44.917C143.86 45.5029 143.606 45.9863 143.44 46.3672C143.274 46.748 143.255 46.9287 143.382 46.9092ZM154.163 35.0879C154.358 34.6094 154.656 34.0283 155.057 33.3447C155.447 32.6611 155.828 32.0068 156.199 31.3818C156.404 31.0498 156.58 30.7617 156.727 30.5176C156.668 30.4395 156.639 30.3564 156.639 30.2686C156.639 30.1807 156.668 30.1025 156.727 30.0342C156.98 29.7607 157.166 29.6094 157.283 29.5801L157.312 29.5654C157.4 29.5361 157.479 29.5361 157.547 29.5654C157.693 29.6143 157.786 29.707 157.825 29.8438C157.825 29.8535 157.825 29.8682 157.825 29.8877C157.825 29.8975 157.825 29.9072 157.825 29.917C157.825 30.0049 157.801 30.0928 157.752 30.1807C157.391 30.7666 156.985 31.4355 156.536 32.1875C156.097 32.9297 155.706 33.6035 155.364 34.209C155.599 33.9844 155.975 33.6621 156.492 33.2422C157.02 32.8125 157.542 32.417 158.06 32.0557C158.587 31.6846 158.963 31.4893 159.188 31.4697C159.539 31.4795 159.739 31.6211 159.788 31.8945C159.837 32.1582 159.837 32.4561 159.788 32.7881C159.759 33.042 159.754 33.2617 159.773 33.4473C159.793 33.623 159.891 33.7109 160.066 33.7109C160.252 33.7109 160.564 33.5645 161.004 33.2715C161.131 33.1934 161.219 33.1738 161.268 33.2129C161.326 33.252 161.346 33.3203 161.326 33.418C161.307 33.5059 161.253 33.5791 161.165 33.6377C160.286 34.1943 159.705 34.3018 159.422 33.96C159.139 33.6084 159.065 33.0127 159.202 32.1729C158.997 32.1924 158.689 32.3682 158.279 32.7002C157.869 33.0225 157.425 33.3984 156.946 33.8281C156.526 34.1992 156.126 34.541 155.745 34.8535C155.364 35.166 155.042 35.3906 154.778 35.5273C154.583 35.6152 154.417 35.6152 154.28 35.5273C154.144 35.4395 154.104 35.293 154.163 35.0879ZM168.621 33.0078C168.885 32.8711 169.041 32.8613 169.09 32.9785C169.139 33.0957 169.046 33.2373 168.812 33.4033C168.44 33.6279 167.962 33.8477 167.376 34.0625C166.8 34.2676 166.282 34.3311 165.823 34.2529C165.364 34.165 165.125 33.7939 165.105 33.1396V33.0664C165.115 32.9297 165.105 32.8613 165.076 32.8613C165.047 32.8516 164.964 32.8906 164.827 32.9785C163.313 33.9648 162.2 34.5801 161.487 34.8242C160.784 35.0684 160.369 35.0781 160.242 34.8535C160.086 34.541 160.281 34.0576 160.828 33.4033C161.375 32.7393 162.078 32.1094 162.938 31.5137C163.807 30.918 164.637 30.5615 165.428 30.4443C166.219 30.3174 166.775 30.6299 167.098 31.3818C167.127 31.4795 167.112 31.5674 167.054 31.6455C166.995 31.7236 166.917 31.7773 166.819 31.8066C166.722 31.8359 166.609 31.8164 166.482 31.748C166.365 31.6797 166.282 31.5967 166.233 31.499C166.233 31.4795 166.238 31.46 166.248 31.4404C166.258 31.4209 166.268 31.4014 166.277 31.3818C166.287 31.3623 166.297 31.3428 166.307 31.3232C166.316 31.3037 166.316 31.2842 166.307 31.2646C166.062 30.9326 165.643 30.8838 165.047 31.1182C164.451 31.3525 163.821 31.7188 163.157 32.2168C162.493 32.7148 161.932 33.1885 161.473 33.6377C161.014 34.0771 160.799 34.3457 160.828 34.4434C160.867 34.541 161.253 34.3799 161.985 33.96C162.718 33.54 163.919 32.7539 165.589 31.6016C165.677 31.5527 165.765 31.5381 165.853 31.5576C165.95 31.5674 166.028 31.6162 166.087 31.7041C166.155 31.8213 166.16 31.9385 166.102 32.0557C165.73 32.8564 165.687 33.3496 165.97 33.5352C166.263 33.7207 166.678 33.7354 167.215 33.5791C167.762 33.4229 168.23 33.2324 168.621 33.0078ZM168.255 25.1562C168.235 25.2441 168.162 25.293 168.035 25.3027C167.908 25.3027 167.771 25.2734 167.625 25.2148C167.479 25.1562 167.371 25.083 167.303 24.9951C167.234 24.8975 167.254 24.7949 167.361 24.6875C167.469 24.5801 167.708 24.4775 168.079 24.3799C169.925 24.0674 171.736 23.7988 173.514 23.5742C173.855 23.5352 174.114 23.4961 174.29 23.457C174.476 23.418 174.617 23.3545 174.715 23.2666C174.822 23.1689 174.93 23.0176 175.037 22.8125C175.213 22.5098 175.394 22.207 175.579 21.9043C175.618 21.8359 175.657 21.7676 175.696 21.6992C177.21 19.1699 178.235 17.6611 178.772 17.1729C179.612 16.4014 179.974 16.5283 179.856 17.5537C179.661 18.8916 178.978 20.5518 177.806 22.5342C177.806 22.5439 177.801 22.5586 177.791 22.5781C177.615 22.8516 177.532 23.0176 177.542 23.0762C177.552 23.1348 177.664 23.1494 177.879 23.1201C177.918 23.1201 177.952 23.1201 177.981 23.1201C178.089 23.1104 178.196 23.1055 178.304 23.1055C180.735 22.9492 183.235 22.8809 185.804 22.9004C185.97 22.9004 186.077 22.9395 186.126 23.0176C186.175 23.0859 186.17 23.1543 186.111 23.2227C186.053 23.2812 185.936 23.3057 185.76 23.2959C183.006 23.2471 180.335 23.374 177.747 23.6768C177.659 23.6865 177.581 23.6963 177.513 23.7061C177.366 23.7061 177.249 23.7256 177.161 23.7646C177.073 23.8037 176.98 23.9014 176.883 24.0576C175.662 25.9326 174.383 27.6953 173.045 29.3457C171.717 30.9961 170.608 32.2266 169.72 33.0371C169.671 33.0859 169.632 33.1201 169.603 33.1396C169.573 33.1592 169.549 33.1738 169.529 33.1836C169.51 33.1934 169.49 33.208 169.471 33.2275C169.451 33.2471 169.427 33.2764 169.397 33.3154C169.368 33.3545 169.329 33.418 169.28 33.5059C167.112 36.9629 164.93 40.4102 162.732 43.8477C162.908 43.8477 162.991 43.9111 162.981 44.0381C162.962 44.1748 162.884 44.2969 162.747 44.4043C162.317 44.7266 162.02 44.8242 161.854 44.6973C161.688 44.5703 161.697 44.292 161.883 43.8623C162.391 43.0615 162.898 42.2656 163.406 41.4746C166.951 35.9668 170.438 30.4004 173.865 24.7754C173.904 24.6973 173.943 24.6289 173.982 24.5703C174.1 24.4043 174.153 24.292 174.144 24.2334C174.144 24.165 174.026 24.1504 173.792 24.1895C171.976 24.4531 170.13 24.7461 168.255 25.0684C168.255 25.0977 168.255 25.127 168.255 25.1562ZM175.901 22.7539C175.804 22.9199 175.735 23.0566 175.696 23.1641C175.657 23.2715 175.682 23.3203 175.77 23.3105C175.916 23.291 176.062 23.2764 176.209 23.2666C176.307 23.2666 176.385 23.2568 176.443 23.2373C176.502 23.2178 176.556 23.1787 176.604 23.1201C176.653 23.0518 176.717 22.9541 176.795 22.8271C177.879 20.9717 178.631 19.3311 179.051 17.9053C178.523 18.4912 177.61 19.8779 176.312 22.0654C176.253 22.1631 176.194 22.2607 176.136 22.3584C176.058 22.4854 175.979 22.6172 175.901 22.7539ZM174.979 24.292C174.646 24.8389 174.3 25.415 173.938 26.0205C173.069 27.5244 172.142 29.0283 171.155 30.5322C170.647 31.2939 170.682 31.3574 171.258 30.7227C172.732 29.0039 174.261 26.8994 175.843 24.4092C175.95 24.2236 176.023 24.0967 176.062 24.0283C176.102 23.9502 176.102 23.9062 176.062 23.8965C176.033 23.877 175.97 23.8721 175.872 23.8818C175.862 23.8818 175.848 23.8818 175.828 23.8818C175.809 23.8916 175.784 23.8965 175.755 23.8965C175.589 23.9062 175.442 23.9355 175.315 23.9844C175.188 24.0234 175.076 24.126 174.979 24.292ZM174.861 32.1729C174.842 32.1924 174.812 32.207 174.773 32.2168C174.744 32.2266 174.71 32.2363 174.671 32.2461C174.642 32.2559 174.622 32.2754 174.612 32.3047C174.485 32.4805 174.344 32.71 174.188 32.9932C174.031 33.2764 173.899 33.5645 173.792 33.8574C173.694 34.1406 173.655 34.3848 173.675 34.5898C173.694 34.7852 173.821 34.8828 174.056 34.8828C174.808 34.8047 175.657 34.4385 176.604 33.7842C177.552 33.1299 178.367 32.5146 179.051 31.9385C179.178 31.8408 179.29 31.7529 179.388 31.6748C179.563 31.5186 179.773 31.3623 180.018 31.2061C180.262 31.0498 180.496 30.9473 180.721 30.8984C180.945 30.8496 181.106 30.9033 181.204 31.0596C181.224 31.2939 181.18 31.5869 181.072 31.9385C180.887 32.7783 180.916 33.3203 181.16 33.5645C181.404 33.8086 181.78 33.8672 182.288 33.7402C182.806 33.6133 183.372 33.4131 183.987 33.1396C184.183 33.042 184.314 33.0127 184.383 33.0518C184.451 33.0908 184.466 33.1592 184.427 33.2568C184.388 33.3545 184.295 33.4375 184.148 33.5059C183.455 33.8672 182.786 34.1162 182.142 34.2529C181.507 34.3799 180.999 34.3213 180.618 34.0771C180.237 33.833 180.086 33.3301 180.164 32.5684C180.213 32.2266 180.198 32.0508 180.12 32.041C180.052 32.0312 179.871 32.1533 179.578 32.4072C179.568 32.417 179.554 32.4268 179.534 32.4365C179.456 32.5049 179.368 32.5781 179.271 32.6562C178.577 33.252 177.771 33.8525 176.854 34.458C175.936 35.0635 175.042 35.4004 174.173 35.4688C173.86 35.4785 173.592 35.4248 173.367 35.3076C173.016 35.0439 172.864 34.6973 172.913 34.2676C172.952 33.8379 173.089 33.3984 173.323 32.9492C173.558 32.5 173.777 32.1191 173.982 31.8066C174.031 31.7188 174.075 31.6406 174.114 31.5723C174.212 31.4258 174.339 31.3184 174.495 31.25C174.661 31.1719 174.803 31.1426 174.92 31.1621C175.027 31.1719 175.11 31.2061 175.169 31.2646C175.237 31.3232 175.252 31.4258 175.213 31.5723C175.174 31.7188 175.057 31.9189 174.861 32.1729ZM186.844 28.7891C186.57 28.457 186.414 28.1348 186.375 27.8223C186.355 27.3535 186.497 27.0215 186.8 26.8262C187.103 26.6309 187.464 26.6943 187.884 27.0166C188.04 27.1924 188.138 27.4121 188.177 27.6758C188.226 27.9395 188.182 28.2422 188.045 28.584C187.986 28.7012 187.962 28.7939 187.972 28.8623C187.991 28.9209 188.064 28.9795 188.191 29.0381C188.963 29.3799 189.495 29.7754 189.788 30.2246C190.081 30.6738 189.949 31.2646 189.393 31.9971C189.1 32.3779 188.821 32.8467 188.558 33.4033C188.294 33.9502 188.211 34.4336 188.309 34.8535C188.426 35.127 188.733 35.1904 189.231 35.0439C189.739 34.9072 190.296 34.668 190.901 34.3262C191.507 33.9844 192.029 33.6523 192.469 33.3301C192.605 33.2129 192.713 33.1592 192.791 33.1689C192.869 33.1689 192.908 33.208 192.908 33.2861C192.918 33.3643 192.879 33.4473 192.791 33.5352C191.492 34.6777 190.325 35.3662 189.29 35.6006C188.255 35.835 187.635 35.6152 187.43 34.9414C187.225 34.2676 187.713 33.1445 188.895 31.5723C189.227 31.1133 189.275 30.7422 189.041 30.459C188.807 30.166 188.45 29.8877 187.972 29.624C187.952 29.6143 187.938 29.6045 187.928 29.5947C187.83 29.5264 187.742 29.502 187.664 29.5215C187.596 29.5312 187.503 29.6191 187.386 29.7852C187.269 29.9414 187.181 30.0537 187.122 30.1221C186.966 30.3174 186.829 30.4248 186.712 30.4443C186.595 30.4541 186.507 30.415 186.448 30.3271C186.399 30.2393 186.385 30.1416 186.404 30.0342C186.434 29.9365 186.482 29.8828 186.551 29.873C186.619 29.8633 186.761 29.7363 186.976 29.4922C187.073 29.3555 187.098 29.2334 187.049 29.126C187.01 29.0088 186.941 28.8965 186.844 28.7891ZM187.547 28.2178C187.586 27.9736 187.562 27.7588 187.474 27.5732C187.386 27.3877 187.288 27.2949 187.181 27.2949C187.073 27.2852 187.024 27.4365 187.034 27.749C187.044 27.7979 187.073 27.8809 187.122 27.998C187.171 28.1055 187.225 28.208 187.283 28.3057C187.352 28.4033 187.415 28.4521 187.474 28.4521C187.493 28.4521 187.503 28.4424 187.503 28.4229C187.513 28.3936 187.518 28.3643 187.518 28.335C187.527 28.2959 187.537 28.2568 187.547 28.2178ZM196.248 30.2686C196.795 30.3857 197.015 30.6201 196.907 30.9717C196.8 31.3232 196.517 31.6895 196.058 32.0703C195.599 32.4512 195.12 32.7393 194.622 32.9346C194.134 33.1201 193.777 33.1104 193.553 32.9053C193.396 33.1006 193.216 33.3594 193.011 33.6816C192.815 33.9941 192.703 34.2725 192.674 34.5166C192.674 34.8877 192.928 35.0488 193.436 35C193.943 34.9512 194.549 34.79 195.252 34.5166C195.955 34.2432 196.6 33.9648 197.186 33.6816C197.771 33.3887 198.143 33.1885 198.299 33.0811C198.416 33.0029 198.523 32.9688 198.621 32.9785C198.729 32.9883 198.772 33.042 198.753 33.1396C198.743 33.2373 198.616 33.374 198.372 33.5498C198.079 33.7549 197.581 34.0479 196.878 34.4287C196.185 34.7998 195.447 35.1221 194.666 35.3955C193.885 35.6689 193.221 35.7617 192.674 35.6738C192.127 35.5859 191.863 35.1855 191.883 34.4727C191.932 33.9941 192.205 33.4229 192.703 32.7588C193.201 32.0947 193.777 31.5137 194.432 31.0156C195.096 30.5078 195.701 30.2588 196.248 30.2686ZM195.955 31.0742C195.867 31.1035 195.716 31.1865 195.501 31.3232C195.286 31.4502 195.057 31.5967 194.812 31.7627C194.578 31.9287 194.373 32.085 194.197 32.2314C194.021 32.3779 193.919 32.4854 193.89 32.5537C193.86 32.6221 193.948 32.6221 194.153 32.5537C194.437 32.4463 194.783 32.2607 195.193 31.9971C195.604 31.7236 195.916 31.4746 196.131 31.25C196.229 31.1426 196.268 31.0742 196.248 31.0449C196.238 31.0156 196.141 31.0254 195.955 31.0742Z" fill="#AFAFAF"/>
</svg>
