<svg width="175" height="130" viewBox="0 0 175 130" fill="none" xmlns="http://www.w3.org/2000/svg">
<g clip-path="url(#clip0_314_5986)">
<path d="M174.608 114.244H0V114.331H174.608V114.244Z" fill="#EBEBEB"/>
<path d="M157.112 119.858H145.546V119.945H157.112V119.858Z" fill="#EBEBEB"/>
<path d="M115.667 120.807H112.633V120.894H115.667V120.807Z" fill="#EBEBEB"/>
<path d="M145.197 116.62H138.495V116.707H145.197V116.62Z" fill="#EBEBEB"/>
<path d="M33.4025 117.206H18.3198V117.293H33.4025V117.206Z" fill="#EBEBEB"/>
<path d="M38.7245 117.206H36.5139V117.293H38.7245V117.206Z" fill="#EBEBEB"/>
<path d="M78.6259 118.678H45.9114V118.766H78.6259V118.678Z" fill="#EBEBEB"/>
<path d="M82.7641 98.6835H15.334C14.8058 98.6826 14.2995 98.4723 13.9263 98.0988C13.5531 97.7253 13.3435 97.2191 13.3435 96.6913V1.99205C13.3481 1.46733 13.5597 0.96561 13.9324 0.59587C14.3051 0.22613 14.8088 0.0182329 15.334 0.017334H82.7641C83.2929 0.017334 83.8001 0.227222 84.1741 0.600825C84.548 0.974428 84.7581 1.48114 84.7581 2.0095V96.6913C84.7581 97.2197 84.548 97.7264 84.1741 98.1C83.8001 98.4736 83.2929 98.6835 82.7641 98.6835ZM15.334 0.0871123C14.8289 0.0880365 14.3449 0.289142 13.988 0.646288C13.6312 1.00343 13.4308 1.48744 13.4308 1.99205V96.6913C13.4308 97.196 13.6312 97.68 13.988 98.0371C14.3449 98.3943 14.8289 98.5954 15.334 98.5963H82.7641C83.2695 98.5954 83.7539 98.3944 84.1113 98.0373C84.4687 97.6803 84.6699 97.1963 84.6708 96.6913V1.99205C84.6699 1.48711 84.4687 1.00312 84.1113 0.646075C83.7539 0.289029 83.2695 0.0880346 82.7641 0.0871123H15.334Z" fill="#EBEBEB"/>
<path d="M158.303 98.6835H90.8695C90.3409 98.6826 89.8343 98.4724 89.4605 98.099C89.0868 97.7256 88.8764 97.2194 88.8755 96.6913V1.99205C88.881 1.46701 89.0934 0.965296 89.4667 0.595652C89.8399 0.226008 90.3439 0.0182231 90.8695 0.017334H158.303C158.828 0.0191498 159.33 0.227453 159.702 0.597095C160.074 0.966737 160.285 1.46793 160.29 1.99205V96.6913C160.29 97.2185 160.081 97.7242 159.709 98.0976C159.336 98.471 158.831 98.6817 158.303 98.6835ZM90.8695 0.0871123C90.3641 0.0880346 89.8797 0.289029 89.5223 0.646075C89.1649 1.00312 88.9637 1.48711 88.9628 1.99205V96.6913C88.9637 97.1963 89.1649 97.6803 89.5223 98.0373C89.8797 98.3944 90.3641 98.5954 90.8695 98.5963H158.303C158.808 98.5954 159.293 98.3944 159.65 98.0373C160.008 97.6803 160.209 97.1963 160.21 96.6913V1.99205C160.209 1.48711 160.008 1.00312 159.65 0.646075C159.293 0.289029 158.808 0.0880346 158.303 0.0871123H90.8695Z" fill="#EBEBEB"/>
<path d="M90.2197 114.24H100.309V78.3327H90.2197V114.24Z" fill="#E6E6E6"/>
<path d="M92.1335 114.244H90.2163V110.912H94.1415L92.1335 114.244Z" fill="#F0F0F0"/>
<path d="M147.781 114.24H157.87V78.3327H147.781V114.24Z" fill="#E6E6E6"/>
<path d="M90.2199 113.368L149.454 113.368V78.3329H90.2199V113.368Z" fill="#F0F0F0"/>
<path d="M129.922 80.4157V111.425H147.481V80.4157H129.922Z" fill="#E6E6E6"/>
<path d="M136.966 82.195H140.437C141.21 82.1814 141.97 81.9944 142.661 81.6477C143.352 81.3011 143.956 80.8037 144.429 80.1924H132.974C133.447 80.8032 134.052 81.3001 134.742 81.6467C135.433 81.9933 136.193 82.1807 136.966 82.195Z" fill="#F0F0F0"/>
<path d="M111.054 80.4157V111.425H128.613V80.4157H111.054Z" fill="#E6E6E6"/>
<path d="M117.92 82.195H121.394C122.164 82.1788 122.921 81.9906 123.609 81.644C124.296 81.2975 124.898 80.8015 125.368 80.1924H113.932C114.404 80.8033 115.007 81.3004 115.698 81.647C116.388 81.9936 117.147 82.1809 117.92 82.195Z" fill="#F0F0F0"/>
<path d="M92.186 80.4157V111.425H109.745V80.4157H92.186Z" fill="#E6E6E6"/>
<path d="M99.0515 82.195H102.526C103.298 82.1804 104.057 81.9929 104.746 81.6463C105.436 81.2997 106.039 80.8028 106.511 80.1924H95.0635C95.5357 80.8033 96.1392 81.3004 96.8294 81.647C97.5197 81.9936 98.2791 82.1809 99.0515 82.195Z" fill="#F0F0F0"/>
<path d="M147.537 114.244H149.45V110.912H145.525L147.537 114.244Z" fill="#F0F0F0"/>
<path d="M26.7673 69L94.4558 69V11.4226L26.7673 11.4226V69Z" fill="#E6E6E6"/>
<path d="M25.2447 69L93.7922 69V11.4226L25.2447 11.4226V69Z" fill="#F5F5F5"/>
<path d="M91.0581 66.2333V14.1824L27.9793 14.1824V66.2333H91.0581Z" fill="#FAFAFA"/>
<path d="M83.3194 66.2368L58.4936 14.1824H50.0601L74.8858 66.2368H83.3194Z" fill="white"/>
<path d="M72.4972 66.2368L47.668 14.1824H41.864L66.6898 66.2368H72.4972Z" fill="white"/>
<path d="M51.4045 66.2333V14.1824H48.1429V66.2333H51.4045Z" fill="#E6E6E6"/>
<path d="M73.0837 66.2333V14.1824H69.8221V66.2333H73.0837Z" fill="#E6E6E6"/>
<path d="M50.8145 67.9917V12.1309H46.6902V67.9917H50.8145Z" fill="#F5F5F5"/>
<path d="M72.4937 67.9917V12.1309H68.3694V67.9917H72.4937Z" fill="#F5F5F5"/>
<path d="M28.269 66.2333L28.269 14.1824H27.9792L27.9792 66.2333H28.269Z" fill="#E6E6E6"/>
<path d="M24.0958 7.86743H97.4311C97.5237 7.86743 97.6125 7.90419 97.678 7.96962C97.7435 8.03505 97.7803 8.12379 97.7803 8.21632C97.7803 8.30885 97.7435 8.3976 97.678 8.46302C97.6125 8.52845 97.5237 8.56521 97.4311 8.56521H24.0958C24.0032 8.56521 23.9144 8.52845 23.8489 8.46302C23.7834 8.3976 23.7466 8.30885 23.7466 8.21632C23.7466 8.12379 23.7834 8.03505 23.8489 7.96962C23.9144 7.90419 24.0032 7.86743 24.0958 7.86743Z" fill="#E6E6E6"/>
<path d="M94.456 10.1944C94.5823 10.1935 94.703 10.1428 94.792 10.0532C94.881 9.96368 94.9309 9.84263 94.9309 9.71647V8.69422C94.9309 8.56837 94.8809 8.44768 94.7918 8.3587C94.7027 8.26972 94.5819 8.21973 94.456 8.21973C94.3297 8.21972 94.2085 8.2696 94.1189 8.35849C94.0293 8.44737 93.9785 8.56806 93.9775 8.69422V9.71647C93.9785 9.84295 94.0292 9.964 94.1187 10.0534C94.2082 10.1429 94.3294 10.1935 94.456 10.1944Z" fill="#E6E6E6"/>
<path d="M29.4144 10.1944C29.541 10.1935 29.6621 10.1429 29.7517 10.0534C29.8412 9.964 29.8919 9.84295 29.8928 9.71647V8.69422C29.8919 8.56806 29.8411 8.44737 29.7515 8.35849C29.6618 8.2696 29.5407 8.21972 29.4144 8.21973C29.2884 8.21973 29.1676 8.26972 29.0786 8.3587C28.9895 8.44768 28.9395 8.56837 28.9395 8.69422V9.71647C28.9394 9.84263 28.9894 9.96368 29.0783 10.0532C29.1673 10.1428 29.2881 10.1935 29.4144 10.1944Z" fill="#E6E6E6"/>
<path opacity="0.6" d="M24.2076 36.7974L92.7063 36.7974V8.21976L24.2076 8.21976V36.7974Z" fill="#E0E0E0"/>
<path d="M25.1469 114.244H26.907L26.907 85.4116H25.1469L25.1469 114.244Z" fill="#E6E6E6"/>
<path d="M66.4349 79.7981H56.9048V85.4083H66.4349V79.7981Z" fill="#E6E6E6"/>
<path d="M19.0533 85.4082H56.9048V79.7981H19.0533V85.4082Z" fill="#F5F5F5"/>
<path d="M66.4349 88.8972H56.9048V94.5074H66.4349V88.8972Z" fill="#E6E6E6"/>
<path d="M19.0533 94.5107H56.9048V88.9006H19.0533V94.5107Z" fill="#F5F5F5"/>
<path d="M66.4349 97.9998H56.9048V103.61H66.4349V97.9998Z" fill="#E6E6E6"/>
<path d="M19.0533 103.61H56.9048V97.9997H19.0533V103.61Z" fill="#F5F5F5"/>
<path d="M62.9985 114.244H64.7585V85.4116H62.9985V114.244Z" fill="#E6E6E6"/>
<path d="M55.1447 114.244H56.9048V85.4116H55.1447V114.244Z" fill="#F5F5F5"/>
<path d="M19.0532 114.244H20.8132L20.8132 85.4116H19.0532L19.0532 114.244Z" fill="#F5F5F5"/>
<path d="M87.3039 130C124.699 130 155.013 128.232 155.013 126.051C155.013 123.869 124.699 122.101 87.3039 122.101C49.909 122.101 19.5945 123.869 19.5945 126.051C19.5945 128.232 49.909 130 87.3039 130Z" fill="#F5F5F5"/>
<path d="M138.289 110.211H81.5767C81.0193 110.218 80.4666 110.107 79.9546 109.887C79.4425 109.667 78.9824 109.342 78.6042 108.932C78.2259 108.523 77.9379 108.039 77.7588 107.512C77.5796 106.984 77.5133 106.425 77.5642 105.871L84.5101 14.8906C84.6183 13.7184 85.1556 12.6273 86.0191 11.8265C86.8826 11.0256 88.0116 10.5712 89.1896 10.5504H145.902C146.46 10.5431 147.013 10.6531 147.525 10.8731C148.037 11.0932 148.498 11.4184 148.876 11.8276C149.254 12.2369 149.542 12.7211 149.721 13.2488C149.9 13.7765 149.966 14.3358 149.915 14.8906L142.969 105.871C142.86 107.043 142.322 108.133 141.459 108.934C140.596 109.735 139.467 110.189 138.289 110.211Z" fill="#407BFF"/>
<path opacity="0.5" d="M138.289 110.211H81.5767C81.0193 110.218 80.4666 110.107 79.9546 109.887C79.4425 109.667 78.9824 109.342 78.6042 108.932C78.2259 108.523 77.9379 108.039 77.7588 107.512C77.5796 106.984 77.5133 106.425 77.5642 105.871L84.5101 14.8906C84.6183 13.7184 85.1556 12.6273 86.0191 11.8265C86.8826 11.0256 88.0116 10.5712 89.1896 10.5504H145.902C146.46 10.5431 147.013 10.6531 147.525 10.8731C148.037 11.0932 148.498 11.4184 148.876 11.8276C149.254 12.2369 149.542 12.7211 149.721 13.2488C149.9 13.7765 149.966 14.3358 149.915 14.8906L142.969 105.871C142.86 107.043 142.322 108.133 141.459 108.934C140.596 109.735 139.467 110.189 138.289 110.211Z" fill="white"/>
<path d="M137.448 110.211H80.7317C80.1743 110.218 79.6216 110.107 79.1096 109.887C78.5975 109.667 78.1375 109.342 77.7592 108.932C77.381 108.523 77.0929 108.039 76.9138 107.512C76.7346 106.984 76.6684 106.425 76.7193 105.871L83.6687 14.8906C83.7769 13.7178 84.3147 12.6263 85.179 11.8253C86.0432 11.0243 87.173 10.5703 88.3516 10.5504H145.064C145.622 10.5431 146.175 10.6531 146.687 10.8731C147.199 11.0932 147.66 11.4184 148.038 11.8276C148.416 12.2369 148.704 12.7211 148.883 13.2488C149.062 13.7765 149.128 14.3358 149.077 14.8906L142.131 105.871C142.023 107.043 141.485 108.135 140.621 108.936C139.756 109.737 138.627 110.191 137.448 110.211Z" fill="#407BFF"/>
<path opacity="0.7" d="M137.448 110.211H80.7317C80.1743 110.218 79.6216 110.107 79.1096 109.887C78.5975 109.667 78.1375 109.342 77.7592 108.932C77.381 108.523 77.0929 108.039 76.9138 107.512C76.7346 106.984 76.6684 106.425 76.7193 105.871L83.6687 14.8906C83.7769 13.7178 84.3147 12.6263 85.179 11.8253C86.0432 11.0243 87.173 10.5703 88.3516 10.5504H145.064C145.622 10.5431 146.175 10.6531 146.687 10.8731C147.199 11.0932 147.66 11.4184 148.038 11.8276C148.416 12.2369 148.704 12.7211 148.883 13.2488C149.062 13.7765 149.128 14.3358 149.077 14.8906L142.131 105.871C142.023 107.043 141.485 108.135 140.621 108.936C139.756 109.737 138.627 110.191 137.448 110.211Z" fill="white"/>
<path d="M80.8434 108.763C80.4716 108.768 80.1027 108.696 79.7609 108.549C79.4191 108.403 79.112 108.186 78.8596 107.913C78.6073 107.641 78.4153 107.318 78.2962 106.966C78.1771 106.614 78.1335 106.241 78.1684 105.871L85.0235 16.0977C85.0941 15.316 85.4518 14.588 86.0275 14.054C86.6033 13.52 87.3565 13.2177 88.142 13.2054H144.855C145.226 13.1998 145.595 13.2726 145.937 13.419C146.279 13.5654 146.586 13.782 146.838 14.0549C147.091 14.3278 147.283 14.6507 147.402 15.0027C147.521 15.3547 147.564 15.7278 147.53 16.0977L140.675 105.871C140.604 106.652 140.247 107.379 139.672 107.913C139.097 108.447 138.344 108.75 137.56 108.763H80.8434Z" fill="#202A43"/>
<path opacity="0.2" d="M137.158 28.3055H96.5721C96.3516 28.3084 96.1329 28.265 95.9304 28.1779C95.7278 28.0909 95.5458 27.9623 95.3963 27.8004C95.2468 27.6385 95.133 27.4469 95.0624 27.2382C94.9918 27.0295 94.966 26.8083 94.9866 26.589C95.0303 26.1266 95.2427 25.6965 95.5834 25.3806C95.9241 25.0646 96.3692 24.885 96.834 24.8759H137.42C137.64 24.8725 137.859 24.9155 138.061 25.0022C138.264 25.0888 138.446 25.2171 138.595 25.3787C138.745 25.5404 138.859 25.7317 138.929 25.9402C139 26.1487 139.026 26.3698 139.005 26.589C138.964 27.0525 138.752 27.4844 138.411 27.8013C138.07 28.1183 137.624 28.2979 137.158 28.3055Z" fill="black"/>
<path opacity="0.3" d="M119.844 12.3192H113.289C113.235 12.3199 113.181 12.3092 113.131 12.2878C113.081 12.2664 113.036 12.2348 112.999 12.195C112.963 12.1552 112.934 12.1081 112.917 12.0568C112.899 12.0055 112.893 11.951 112.898 11.897C112.909 11.7834 112.961 11.6778 113.045 11.6C113.128 11.5222 113.238 11.4777 113.352 11.4749H119.91C119.964 11.4746 120.017 11.4857 120.067 11.5073C120.116 11.5289 120.161 11.5606 120.197 11.6003C120.234 11.6401 120.262 11.687 120.279 11.7381C120.296 11.7892 120.303 11.8433 120.298 11.897C120.288 12.0112 120.236 12.1177 120.152 12.1958C120.068 12.2738 119.958 12.3178 119.844 12.3192Z" fill="#407BFF"/>
<path d="M96.3835 26.589C96.4415 25.9821 96.3708 25.3699 96.1758 24.7923C95.9809 24.2147 95.6661 23.6846 95.2522 23.2368C94.8382 22.789 94.3344 22.4335 93.7735 22.1935C93.2126 21.9535 92.6074 21.8344 91.9973 21.844H133.205C133.815 21.8344 134.42 21.9535 134.981 22.1935C135.542 22.4335 136.046 22.789 136.46 23.2368C136.874 23.6846 137.188 24.2147 137.383 24.7923C137.578 25.3699 137.649 25.9821 137.591 26.589H96.3835Z" fill="#F0F0F0"/>
<path d="M92.0079 21.844C90.7191 21.8638 89.4833 22.3596 88.5386 23.2357C87.594 24.1118 87.0074 25.3063 86.8919 26.5889L82.6699 81.8776C82.5553 83.1598 81.9694 84.3543 81.0253 85.2305C80.0812 86.1067 78.8458 86.6026 77.5574 86.6225H118.765C120.054 86.6026 121.289 86.1069 122.234 85.2307C123.179 84.3546 123.765 83.1601 123.881 81.8776L128.103 26.5889C128.217 25.3066 128.803 24.1122 129.747 23.236C130.692 22.3598 131.927 21.8639 133.215 21.844H92.0079Z" fill="white"/>
<path d="M114.375 81.8774C114.317 82.4843 114.388 83.0965 114.583 83.6741C114.778 84.2517 115.092 84.7818 115.506 85.2296C115.92 85.6774 116.424 86.0329 116.985 86.2729C117.546 86.5129 118.151 86.632 118.761 86.6224H77.5538C76.9437 86.632 76.3385 86.5129 75.7776 86.2729C75.2167 86.0329 74.7129 85.6774 74.2989 85.2296C73.8849 84.7818 73.5702 84.2517 73.3753 83.6741C73.1803 83.0965 73.1096 82.4843 73.1676 81.8774H114.375Z" fill="#F0F0F0"/>
<path d="M90.2547 80.7854C90.4119 78.7654 89.7763 77.1326 87.7578 77.1326H119.488C121.506 77.1326 123.025 78.9782 121.988 80.7854H90.2547Z" fill="#E0E0E0"/>
<path d="M114.375 81.8774C114.487 80.5933 115.072 79.3963 116.016 78.5179C116.961 77.6396 118.198 77.1422 119.488 77.1221H78.2802C76.9918 77.142 75.7564 77.6379 74.8123 78.5141C73.8682 79.3903 73.2824 80.5847 73.1677 81.867L114.375 81.8774Z" fill="#F0F0F0"/>
<path d="M133.858 95.5854H86.5567C86.3966 95.5875 86.2378 95.556 86.0907 95.4929C85.9436 95.4298 85.8115 95.3365 85.7028 95.219C85.5941 95.1016 85.5114 94.9626 85.46 94.8111C85.4085 94.6597 85.3895 94.4991 85.4042 94.3398C85.4351 94.0037 85.589 93.6908 85.8364 93.461C86.0839 93.2312 86.4074 93.1006 86.7452 93.0943H134.05C134.21 93.0926 134.368 93.1245 134.515 93.1879C134.661 93.2512 134.793 93.3446 134.902 93.462C135.01 93.5794 135.092 93.7181 135.143 93.8694C135.195 94.0206 135.214 94.1809 135.199 94.3398C135.168 94.6759 135.014 94.9889 134.767 95.2187C134.519 95.4485 134.196 95.5791 133.858 95.5854Z" fill="white"/>
<path d="M109.971 101.572H86.099C85.9388 101.575 85.7798 101.544 85.6324 101.481C85.485 101.418 85.3526 101.325 85.2439 101.207C85.1351 101.089 85.0524 100.95 85.0011 100.799C84.9499 100.647 84.9313 100.486 84.9466 100.327C84.9775 99.9906 85.1314 99.6777 85.3788 99.4478C85.6262 99.218 85.9498 99.0875 86.2876 99.0812H110.16C110.32 99.079 110.479 99.1105 110.626 99.1736C110.773 99.2368 110.905 99.3301 111.014 99.4475C111.122 99.565 111.205 99.7039 111.257 99.8554C111.308 100.007 111.327 100.167 111.312 100.327C111.281 100.663 111.128 100.976 110.88 101.206C110.633 101.435 110.309 101.566 109.971 101.572Z" fill="white"/>
<path d="M126.5 101.572H116.83C116.67 101.575 116.511 101.544 116.363 101.481C116.216 101.418 116.084 101.325 115.975 101.207C115.866 101.09 115.783 100.95 115.732 100.799C115.681 100.647 115.662 100.486 115.678 100.327C115.708 99.9908 115.862 99.6779 116.11 99.448C116.357 99.2182 116.681 99.0877 117.019 99.0814H126.688C126.848 99.0798 127.007 99.1116 127.154 99.1749C127.3 99.2382 127.432 99.3315 127.541 99.4489C127.649 99.5662 127.732 99.7049 127.784 99.8562C127.835 100.007 127.855 100.168 127.841 100.327C127.81 100.663 127.656 100.976 127.409 101.206C127.161 101.436 126.838 101.566 126.5 101.572Z" fill="white"/>
<path d="M136.17 77.8826L133.701 78.2699C133.641 78.0414 133.545 77.8236 133.418 77.6245C133.292 77.4726 133.136 77.348 132.96 77.2581L132.814 79.1526C134.117 79.5085 134.977 79.8829 135.391 80.276C135.66 80.5316 135.866 80.8461 135.993 81.1949C136.12 81.5437 136.163 81.9171 136.121 82.2856C136.09 82.7504 135.946 83.2007 135.702 83.5975C135.472 83.9821 135.171 84.3196 134.815 84.5918C134.486 84.8482 134.115 85.0453 133.718 85.1744C133.264 85.3047 132.794 85.3763 132.321 85.3873L132.227 86.6223H131.305L131.399 85.3873C130.874 85.353 130.356 85.2485 129.859 85.0767C129.487 84.938 129.147 84.7242 128.861 84.4488C128.605 84.2037 128.399 83.9109 128.256 83.587C128.109 83.2311 128.018 82.8544 127.988 82.4705L130.659 82.1635C130.674 82.49 130.757 82.8096 130.904 83.102C131.059 83.3262 131.275 83.5026 131.525 83.6114L131.7 81.2983C131.073 81.1377 130.461 80.9253 129.87 80.6633C129.497 80.4648 129.188 80.1664 128.976 79.8015C128.726 79.3626 128.623 78.8552 128.682 78.3536C128.706 77.9815 128.803 77.6177 128.969 77.2835C129.134 76.9493 129.364 76.6513 129.646 76.4068C130.352 75.8383 131.233 75.5313 132.14 75.5381L132.189 74.8892H133.145L133.097 75.5381C133.883 75.5367 134.649 75.7807 135.29 76.2359C135.781 76.6537 136.096 77.2422 136.17 77.8826ZM132.004 77.2267C131.774 77.2881 131.565 77.4083 131.396 77.5756C131.276 77.7085 131.204 77.8783 131.193 78.0571C131.175 78.2346 131.221 78.4128 131.323 78.5595C131.468 78.7279 131.66 78.8494 131.874 78.9084L132.004 77.2267ZM132.468 83.6777C132.785 83.6248 133.079 83.4819 133.317 83.266C133.493 83.0971 133.602 82.8704 133.624 82.6275C133.641 82.4226 133.579 82.2187 133.449 82.0589C133.225 81.8268 132.941 81.6604 132.629 81.5774L132.468 83.6777Z" fill="white"/>
<path d="M89.6506 37.2334H90.8275L90.5376 41.0223H89.3643L89.6506 37.2334Z" fill="#407BFF"/>
<path d="M91.6761 37.2334H92.7691L94.0368 39.3267L94.1974 37.2334H95.3009L95.0111 41.0223H93.9076L92.6469 38.929L92.4863 41.0223H91.3862L91.6761 37.2334Z" fill="#407BFF"/>
<path d="M95.7061 37.2334H96.9318L97.5779 39.9617L98.6255 37.2334H99.8128L98.1296 41.0223H96.862L95.7061 37.2334Z" fill="#407BFF"/>
<path d="M99.7256 39.1315C99.7418 38.5873 99.9669 38.0701 100.354 37.6871C100.762 37.33 101.293 37.1449 101.835 37.1707C102.094 37.1508 102.354 37.1856 102.599 37.2727C102.844 37.3599 103.068 37.4975 103.256 37.6766C103.421 37.8717 103.541 38.0996 103.611 38.3451C103.68 38.5905 103.696 38.8479 103.658 39.1001C103.643 39.4821 103.538 39.8552 103.35 40.1886C103.183 40.4693 102.941 40.6986 102.652 40.8515C102.32 41.0178 101.951 41.0993 101.58 41.0888C101.219 41.1025 100.861 41.032 100.532 40.8829C100.258 40.7414 100.036 40.515 99.9002 40.2375C99.7426 39.8915 99.6822 39.5092 99.7256 39.1315ZM100.899 39.1315C100.848 39.4162 100.901 39.7097 101.049 39.9584C101.116 40.0417 101.202 40.1077 101.3 40.1508C101.398 40.1939 101.505 40.2128 101.611 40.2061C101.723 40.2113 101.835 40.1922 101.939 40.1501C102.042 40.1079 102.136 40.0437 102.212 39.9619C102.397 39.7064 102.494 39.3978 102.488 39.0827C102.535 38.8106 102.479 38.5307 102.331 38.2977C102.263 38.2149 102.176 38.1496 102.077 38.1072C101.979 38.0647 101.872 38.0463 101.765 38.0534C101.654 38.0506 101.544 38.0715 101.443 38.1149C101.341 38.1582 101.249 38.2229 101.175 38.3046C100.994 38.5435 100.897 38.8354 100.899 39.135V39.1315Z" fill="#407BFF"/>
<path d="M104.478 37.2334H105.652L105.365 41.0223H104.188L104.478 37.2334Z" fill="#407BFF"/>
<path d="M108.847 39.4733L109.849 39.7838C109.772 40.0465 109.643 40.2909 109.469 40.5025C109.313 40.693 109.112 40.8427 108.885 40.9387C108.615 41.0468 108.325 41.0978 108.033 41.0887C107.692 41.1012 107.353 41.0393 107.038 40.9073C106.765 40.771 106.544 40.5492 106.41 40.2758C106.231 39.9188 106.163 39.5168 106.214 39.1209C106.224 38.5778 106.443 38.0593 106.825 37.673C107.225 37.3223 107.747 37.142 108.278 37.1707C108.667 37.145 109.055 37.2466 109.381 37.4602C109.66 37.6835 109.851 37.997 109.923 38.3464L108.875 38.5767C108.858 38.4884 108.826 38.4035 108.781 38.3255C108.726 38.238 108.649 38.1669 108.557 38.1196C108.46 38.0697 108.352 38.0446 108.243 38.0464C108.119 38.0425 107.995 38.0698 107.884 38.1259C107.773 38.182 107.678 38.265 107.607 38.3673C107.467 38.5901 107.392 38.8475 107.391 39.1105C107.337 39.4049 107.381 39.7088 107.517 39.9757C107.578 40.054 107.657 40.1163 107.748 40.157C107.838 40.1977 107.938 40.2157 108.037 40.2095C108.132 40.2156 108.228 40.2021 108.318 40.1697C108.409 40.1373 108.491 40.0867 108.561 40.0211C108.699 39.864 108.797 39.6761 108.847 39.4733Z" fill="#407BFF"/>
<path d="M110.611 37.2334H113.753L113.694 38.0428H111.728L111.683 38.6464H113.495L113.436 39.4174H111.613L111.553 40.1641H113.579L113.513 41.0223H110.314L110.611 37.2334Z" fill="#407BFF"/>
<path d="M123.049 45.9139H88.9905L89.0603 44.9719H123.123L123.049 45.9139Z" fill="#407BFF"/>
<path d="M123.05 45.9138H88.9906L88.7671 48.8026H122.83L123.05 45.9138Z" fill="#F0F0F0"/>
<path d="M122.61 51.6951H88.5472L88.3271 54.5839H122.39L122.61 51.6951Z" fill="#F0F0F0"/>
<path d="M122.166 57.4727H88.107L87.887 60.3615H121.946L122.166 57.4727Z" fill="#F0F0F0"/>
<path d="M121.726 63.2537H87.6636L87.4436 66.1425H121.506L121.726 63.2537Z" fill="#F0F0F0"/>
<path d="M121.213 69.977H87.1501L87.2235 69.0315H121.286L121.213 69.977Z" fill="#407BFF"/>
<path d="M117.315 28.3054H124.394L124.073 32.5235H116.994L117.315 28.3054Z" fill="#F0F0F0"/>
<path d="M47.9055 55.1422L49.1697 55.6481C49.6311 55.8334 50.0357 56.1366 50.343 56.5273L50.9227 57.2599C51.1099 57.4952 51.2082 57.7887 51.2006 58.0892C51.1929 58.3896 51.0797 58.6778 50.8808 58.9032L50.2662 59.601C50.1537 59.729 50.0169 59.8335 49.8638 59.9083C49.7106 59.9831 49.5441 60.0268 49.3739 60.0369C49.2037 60.0469 49.0332 60.0231 48.8722 59.9669C48.7113 59.9106 48.5631 59.823 48.4363 59.7091L47.8427 59.1858C47.8427 59.1858 46.0267 57.9124 45.4924 56.2272L45.8416 55.8783C46.1031 55.6016 46.4264 55.3906 46.7851 55.2627C47.1438 55.1347 47.5278 55.0934 47.9055 55.1422Z" fill="#FFB573"/>
<path d="M51.3696 42.9032L50.9575 43.1753L50.5 43.4893C50.1962 43.7056 49.8889 43.9289 49.592 44.1557C48.9949 44.6197 48.4152 45.0977 47.8774 45.6071C46.8155 46.56 45.9042 47.6681 45.1745 48.8936C45.0872 49.0402 45.0103 49.1867 44.937 49.3367L44.8811 49.4484C44.8952 49.4013 44.9069 49.3536 44.916 49.3053C44.9279 49.2478 44.9279 49.1884 44.916 49.1309C44.8846 49.0297 44.8811 49.2914 44.9614 49.5495C45.1755 50.2196 45.4551 50.867 45.7961 51.4824C46.5155 52.857 47.4164 54.2735 48.2685 55.6691L48.2895 55.7075C48.4584 55.9852 48.5103 56.3185 48.4337 56.6344C48.3571 56.9502 48.1583 57.2229 47.8809 57.3926C47.6669 57.5208 47.4192 57.5817 47.1701 57.5674C46.921 57.5531 46.6819 57.4642 46.484 57.3124C45.7861 56.7699 45.1204 56.1874 44.49 55.5679C43.8452 54.9413 43.2365 54.2785 42.6671 53.5827C42.0328 52.8222 41.4945 51.9868 41.0642 51.0951C40.9353 50.8169 40.8256 50.5301 40.7359 50.2369C40.6208 49.8553 40.5597 49.4596 40.5543 49.0611C40.5519 48.7911 40.5812 48.5218 40.6416 48.2586C40.6769 48.1084 40.7212 47.9604 40.7743 47.8156L40.8407 47.6376C40.928 47.3969 41.0258 47.1631 41.1271 46.9398C41.9429 45.1616 43.0712 43.5439 44.4586 42.1635C45.1148 41.4934 45.8147 40.8675 46.5539 40.29C46.924 40.0039 47.2977 39.7248 47.6853 39.4631C47.8809 39.3305 48.0764 39.198 48.279 39.0724L48.5898 38.884L48.939 38.6816C49.4873 38.3859 50.128 38.3105 50.73 38.4709C51.3321 38.6312 51.8502 39.0153 52.1783 39.5445C52.5065 40.0737 52.62 40.7081 52.4956 41.3181C52.3713 41.9281 52.0184 42.4676 51.5092 42.8264L51.3696 42.9032Z" fill="#FFB573"/>
<path d="M51.4114 37.3662C49.372 37.3662 47.137 38.2489 44.2734 41.7971C44.2734 43.9149 48.7469 46.7304 48.7469 46.7304C48.7469 46.7304 56.0804 37.3488 51.4114 37.3662Z" fill="#263238"/>
<path d="M36.2592 121.236C36.2225 121.235 36.1861 121.229 36.1509 121.218C35.7284 121.068 35.3302 119.994 35.3058 119.394C35.3041 119.375 35.3082 119.356 35.3176 119.34C35.327 119.324 35.3411 119.311 35.3582 119.303C35.3744 119.293 35.3932 119.287 35.4123 119.287C35.4315 119.287 35.4502 119.293 35.4664 119.303C35.5118 119.341 36.563 120.203 36.6119 120.782C36.6187 120.838 36.6139 120.895 36.5977 120.949C36.5814 121.003 36.5542 121.053 36.5176 121.096C36.4872 121.137 36.4484 121.17 36.4038 121.195C36.3591 121.219 36.3098 121.233 36.2592 121.236ZM35.5293 119.627C35.6236 120.196 35.9484 120.936 36.2277 121.023C36.2554 121.032 36.2853 121.031 36.3125 121.021C36.3398 121.011 36.3628 120.992 36.3779 120.967C36.3974 120.944 36.4119 120.918 36.4203 120.889C36.4287 120.86 36.4309 120.83 36.4268 120.8C36.3884 120.468 35.8715 119.935 35.5293 119.627Z" fill="#263238"/>
<path d="M36.9157 119.955C36.3615 119.925 35.8232 119.76 35.3477 119.474C35.3323 119.463 35.3203 119.448 35.3129 119.431C35.3055 119.414 35.303 119.395 35.3058 119.376C35.3091 119.357 35.3178 119.34 35.3308 119.326C35.3438 119.311 35.3605 119.301 35.3791 119.296C35.435 119.296 36.7516 118.947 37.2474 119.24C37.2972 119.267 37.3407 119.305 37.375 119.35C37.4093 119.395 37.4337 119.447 37.4465 119.502C37.4642 119.566 37.4617 119.634 37.4392 119.696C37.4166 119.759 37.3753 119.813 37.3208 119.851C37.1991 119.925 37.0581 119.961 36.9157 119.955ZM35.669 119.429C36.1823 119.687 36.975 119.861 37.209 119.701C37.2439 119.676 37.2754 119.641 37.2544 119.547C37.2481 119.517 37.2351 119.489 37.2163 119.465C37.1976 119.441 37.1736 119.421 37.1462 119.408C36.8563 119.23 36.1195 119.338 35.669 119.429Z" fill="#263238"/>
<path d="M31.6878 119.16C32.7223 118.054 33.599 116.811 34.293 115.465C34.293 115.465 37.5337 116.261 36.8981 117.21C35.7422 118.902 35.18 122.38 36.6676 124.243C37.5162 125.308 36.1752 125.485 35.2708 125.028C33.8739 124.306 33.9193 124.034 33.1755 122.837C32.5469 121.815 32.2989 121.414 31.4294 120.974C30.731 120.594 31.0802 119.882 31.6878 119.16Z" fill="#407BFF"/>
<path d="M59.1712 58.3975C59.1712 58.3975 54.4777 81.2847 51.0344 91.078C47.4236 101.342 37.4535 117.185 37.0658 117.866C35.648 117.486 34.3838 116.99 33.5422 116.17C33.5422 116.17 38.2217 98.9874 42.7825 87.8403C44.5286 64.5693 48.3315 58.4149 48.3315 58.4149L59.1712 58.3975Z" fill="#263238"/>
<path opacity="0.2" d="M52.0017 70.6434C51.7887 75.0708 51.6525 81.159 51.8516 88.5694C53.2868 83.9501 54.8478 77.6875 56.1609 72.0669C55.2844 70.8981 53.9224 70.3364 52.0017 70.6434Z" fill="black"/>
<path d="M52.2847 30.3325C52.7771 32.3247 53.259 35.5659 52.4732 37.3103C52.4732 37.3103 55.4136 37.4429 59.1712 40.4503C60.9417 37.8546 58.8918 37.3452 58.8918 37.3452C57.3308 36.9963 57.4077 34.903 57.4112 33.4202L52.2847 30.3325Z" fill="#FFB573"/>
<path d="M51.5442 38.2C50.0775 38.0395 51.0902 35.2554 51.8515 35.5275C53.7792 36.2253 58.1025 35.4507 59.44 36.1869C60.7775 36.9231 60.4388 38.4338 60.4388 38.4338C60.4388 38.4338 53.1227 38.3744 51.5442 38.2Z" fill="#407BFF"/>
<path opacity="0.7" d="M51.5442 38.2C50.0775 38.0395 51.0902 35.2554 51.8515 35.5275C53.7792 36.2253 58.1025 35.4507 59.44 36.1869C60.7775 36.9231 60.4388 38.4338 60.4388 38.4338C60.4388 38.4338 53.1227 38.3744 51.5442 38.2Z" fill="white"/>
<path d="M60.0999 26.8192C60.1488 27.0844 60.3269 27.2763 60.5015 27.2449C60.6761 27.2135 60.7774 26.9727 60.732 26.7076C60.6866 26.4424 60.505 26.2505 60.3304 26.2819C60.1558 26.3133 60.065 26.5541 60.0999 26.8192Z" fill="#263238"/>
<path d="M60.2571 26.31L60.8647 26.0134C60.8647 26.0134 60.6238 26.5717 60.2571 26.31Z" fill="#263238"/>
<path d="M60.4562 24.6911C60.4641 24.6724 60.4682 24.6522 60.4682 24.6318C60.4682 24.6115 60.4641 24.5913 60.4562 24.5725C60.4448 24.532 60.4179 24.4976 60.3813 24.4767C60.3448 24.4558 60.3014 24.4501 60.2607 24.4609C60.0156 24.5207 59.7884 24.638 59.5977 24.803C59.407 24.9681 59.2584 25.1761 59.1641 25.4098C59.1526 25.4501 59.1567 25.4932 59.1754 25.5307C59.1942 25.5682 59.2263 25.5972 59.2654 25.6122C59.3057 25.6255 59.3496 25.6223 59.3876 25.6033C59.4255 25.5844 59.4544 25.5512 59.468 25.511C59.5439 25.3261 59.6631 25.1621 59.8157 25.0328C59.9682 24.9035 60.1495 24.8127 60.3445 24.7679C60.3675 24.7636 60.3892 24.7545 60.4085 24.7413C60.4277 24.7281 60.444 24.711 60.4562 24.6911Z" fill="#263238"/>
<path d="M60.4143 27.4683C60.7191 28.0564 61.1034 28.5999 61.5562 29.0836C61.4292 29.1963 61.2788 29.2798 61.1159 29.328C60.9529 29.3762 60.7814 29.3881 60.6134 29.3627L60.4143 27.4683Z" fill="#ED893E"/>
<path d="M50.9855 26.6831C51.7642 29.9208 52.0331 31.3059 53.9433 32.698C56.8313 34.7913 60.561 33.1376 60.7495 29.7394C60.9172 26.6761 59.6181 21.8998 56.2447 21.1532C52.8712 20.4066 50.2067 23.4454 50.9855 26.6831Z" fill="#FFB573"/>
<path d="M57.2713 27.2798C59.178 24.7608 60.4142 22.7233 59.4818 20.4939C58.6961 18.6308 56.5205 19.1751 56.2166 20.1066C50.4336 19.6147 48.3558 21.708 49.5501 25.169C50.3114 27.3775 47.357 26.2157 48.0764 29.0347C48.6247 31.1839 46.6796 32.0038 47.6678 33.2389C49.0926 35.0217 52.033 32.6981 55.389 34.0343C58.1269 35.1298 62.2546 33.4726 57.2713 27.2798Z" fill="#263238"/>
<path d="M56.9536 27.7892C57.1111 28.0478 57.3217 28.2702 57.5715 28.4415C57.8213 28.6129 58.1046 28.7295 58.4028 28.7835C59.1606 28.8951 59.4225 28.0439 59.1012 27.2554C58.8219 26.5576 58.092 25.633 57.3761 25.8877C56.6602 26.1424 56.524 27.1088 56.9536 27.7892Z" fill="#FFB573"/>
<path d="M58.0815 123.371C57.4721 123.297 56.8979 123.046 56.4297 122.649C56.4162 122.636 56.4065 122.62 56.4016 122.602C56.3967 122.585 56.3967 122.566 56.4018 122.548C56.4076 122.529 56.4186 122.513 56.4335 122.501C56.4483 122.488 56.4664 122.481 56.4856 122.478C56.5415 122.478 57.8825 122.328 58.3434 122.698C58.3893 122.732 58.4272 122.775 58.4544 122.825C58.4815 122.875 58.4973 122.931 58.5006 122.987C58.5151 123.057 58.5058 123.129 58.4741 123.192C58.4424 123.256 58.3902 123.306 58.326 123.336C58.248 123.366 58.1646 123.377 58.0815 123.371ZM56.751 122.653C57.2259 122.984 57.9837 123.274 58.2387 123.148C58.2771 123.127 58.312 123.096 58.305 123.001C58.3028 122.971 58.2938 122.941 58.2787 122.915C58.2636 122.888 58.2427 122.865 58.2177 122.848C57.9698 122.632 57.212 122.625 56.751 122.653Z" fill="#263238"/>
<path d="M56.4961 122.677C56.4805 122.676 56.4653 122.672 56.4514 122.665C56.4375 122.658 56.4254 122.647 56.4158 122.635C56.4056 122.619 56.4001 122.6 56.4001 122.581C56.4001 122.562 56.4056 122.543 56.4158 122.527C56.4438 122.478 57.1143 121.299 57.6835 121.156C57.7382 121.139 57.7959 121.135 57.8526 121.142C57.9093 121.15 57.9636 121.17 58.0117 121.201C58.0743 121.233 58.1246 121.284 58.1549 121.347C58.1852 121.41 58.1938 121.482 58.1794 121.55C58.1025 121.993 57.1038 122.562 56.5206 122.684L56.4961 122.677ZM57.7987 121.337H57.7289C57.4006 121.421 56.9571 122.018 56.7092 122.405C57.2539 122.216 57.9349 121.777 57.9838 121.498C57.9838 121.456 57.9838 121.407 57.9035 121.355C57.8706 121.34 57.8346 121.334 57.7987 121.337Z" fill="#263238"/>
<path d="M60.6763 124.596C57.8477 124.376 55.9409 122.436 56.1365 120.381C56.2448 119.247 52.6199 119.146 52.6199 119.146C53.1926 122.659 52.4732 123.162 52.2358 124.069C51.9983 124.976 52.0577 125.981 52.8085 125.998C53.706 126.023 54.125 125.852 55.253 125.894C56.559 125.946 57.9699 125.995 60.2922 125.998C61.2106 126.002 61.9335 124.693 60.6763 124.596Z" fill="#407BFF"/>
<path d="M64.0602 58.3975C64.0602 58.3975 63.8122 75.7338 62.4433 87.1251C61.0744 98.5164 56.3669 120.859 56.3669 120.859C55.1288 121.151 53.8383 121.139 52.6059 120.824C52.6059 120.824 51.1182 103.38 53.6151 86.5041C51.7817 68.8258 50.6328 58.3975 50.6328 58.3975H64.0602Z" fill="#263238"/>
<path d="M64.7026 42.3623C64.6433 43.7021 66.7595 46.8002 64.1474 48.5935C64.6363 49.6855 65.0484 57.0785 64.0601 58.3973C62.6178 59.444 54.8129 59.2521 48.3454 58.3973C48.0695 55.7248 49.5432 50.188 47.7377 41.5564C47.6388 41.0838 47.6405 40.5957 47.7427 40.1238C47.8448 39.6519 48.0451 39.2068 48.3307 38.8172C48.6162 38.4277 48.9805 38.1025 49.3999 37.8627C49.8194 37.623 50.2846 37.474 50.7654 37.4255C51.3102 37.3732 51.8864 37.3244 52.4766 37.2965C54.5379 37.1515 56.6069 37.1515 58.6682 37.2965C59.3352 37.3593 60.0266 37.443 60.6867 37.5372C61.8365 37.6991 62.8848 38.283 63.6273 39.175C64.3697 40.067 64.7531 41.2033 64.7026 42.3623Z" fill="#62B3FE"/>
<g opacity="0.3">
<path d="M47.8984 41.0889L47.7552 41.1692C47.7424 41.173 47.7305 41.1797 47.7206 41.1887C47.7106 41.1977 47.7028 41.2088 47.6976 41.2212C47.6925 41.2336 47.6901 41.247 47.6908 41.2604C47.6914 41.2738 47.695 41.2868 47.7014 41.2987C47.7077 41.3105 47.7165 41.3208 47.7273 41.3288C47.7381 41.3368 47.7505 41.3423 47.7637 41.3449C47.7768 41.3476 47.7904 41.3473 47.8035 41.344C47.8165 41.3408 47.8286 41.3347 47.839 41.3262L47.9997 41.2389C48.6981 41.4936 49.4419 42.0728 49.8714 42.1321C49.173 41.5215 48.6806 41.0854 48.1254 41.1622C48.2895 41.0645 48.4501 40.9668 48.6108 40.8621C49.2464 41.0994 49.9378 41.6297 50.3324 41.682C49.6899 41.1168 49.2289 40.7121 48.7225 40.7889L49.0717 40.5481L49.2673 40.4051C49.8435 40.6528 50.4511 41.1796 50.8143 41.2529C50.2346 40.6807 49.8261 40.276 49.3371 40.3562C49.4908 40.2411 49.641 40.126 49.7876 40.0074C50.315 40.2376 50.8737 40.7051 51.2055 40.7854C50.6746 40.2586 50.301 39.8887 49.8505 39.9585L50.2276 39.6445L50.3184 39.5678C50.7829 39.812 51.2439 40.2934 51.5477 40.3807C51.1077 39.8538 50.8004 39.4875 50.3394 39.5468C50.4581 39.4456 50.5769 39.341 50.6886 39.2328C51.1181 39.4596 51.5407 39.9027 51.8201 39.9829C51.415 39.498 51.1216 39.163 50.7096 39.2154L51.0797 38.8665C51.4534 39.0968 51.8096 39.5154 52.0575 39.6026C51.7083 39.1421 51.4848 38.8246 51.1042 38.8421C51.1705 38.7758 51.2369 38.713 51.2997 38.6467L51.4115 38.5316C51.7607 38.7444 52.0855 39.1316 52.3125 39.2119C52.0052 38.7897 51.7851 38.4932 51.4359 38.5141C51.5372 38.4094 51.6385 38.3013 51.7363 38.1931C52.0506 38.3641 52.3474 38.6886 52.5569 38.7514C52.281 38.4025 52.0855 38.1443 51.7502 38.1792L51.8061 38.1199L52.0156 37.8756C52.2558 38.0571 52.5052 38.226 52.763 38.3815C52.5115 38.0571 52.3334 37.8303 52.0331 37.8547C52.1134 37.757 52.1937 37.6524 52.2636 37.5477C52.2666 37.5451 52.2689 37.5418 52.2706 37.5382C52.2722 37.5346 52.273 37.5307 52.273 37.5267C52.273 37.5228 52.2722 37.5189 52.2706 37.5153C52.2689 37.5117 52.2666 37.5084 52.2636 37.5058C52.2581 37.5016 52.2513 37.4993 52.2444 37.4993C52.2374 37.4993 52.2307 37.5016 52.2252 37.5058C52.1553 37.6035 52.082 37.6977 52.0052 37.7884C52.0213 37.6242 51.9752 37.4598 51.8759 37.3279H51.7572C51.8317 37.4959 51.8958 37.6684 51.9493 37.8442C51.8864 37.9175 51.8201 37.9873 51.7572 38.0571L51.7118 38.1059C51.7782 37.8512 51.6455 37.6314 51.4429 37.3523H51.3766C51.4324 37.5686 51.5966 37.8652 51.6629 38.1513L51.3836 38.4339C51.4743 38.1129 51.2508 37.8303 50.94 37.4291C50.94 37.6698 51.2334 38.085 51.3451 38.4757L51.2474 38.5734L51.0553 38.7548C51.1426 38.406 50.9051 38.1024 50.5664 37.6733C50.5664 37.9315 50.8842 38.3711 51.0064 38.8002L50.6572 39.1037C50.7305 38.7548 50.4965 38.4059 50.1788 37.9524C50.1788 38.228 50.4616 38.7165 50.5769 39.1735L50.301 39.4073C50.3813 39.0305 50.1299 38.6606 49.7841 38.1547C49.7841 38.4548 50.0915 38.9851 50.2137 39.4805L50.1403 39.5398C50.0146 39.6445 49.8854 39.7457 49.7562 39.8469C49.8575 39.4596 49.6165 39.0235 49.2848 38.4304C49.2603 38.7514 49.5467 39.3794 49.634 39.9341C49.4873 40.0457 49.3406 40.1504 49.1905 40.2586C49.3581 39.819 49.0857 39.327 48.7086 38.6432C48.6771 38.9921 49.0054 39.7108 49.0997 40.3214L48.967 40.4121L48.5514 40.6807C48.7435 40.2376 48.5095 39.7143 48.1673 39.0026C48.1498 39.027 48.1324 39.0514 48.1184 39.0758C48.1428 39.4945 48.3873 40.1644 48.4397 40.747C48.286 40.8447 48.1254 40.9354 47.9682 41.0226C48.1498 40.6528 48.0451 40.2341 47.8216 39.7108C47.7702 39.8589 47.7294 40.0105 47.6993 40.1644C47.7895 40.467 47.856 40.7761 47.8984 41.0889Z" fill="#263238"/>
<path d="M56.8209 38.6711C56.2936 38.3222 55.7733 37.7186 55.4241 37.5895C55.9025 38.2454 56.2447 38.7095 56.7406 38.7095C56.5695 38.7967 56.3914 38.8874 56.2377 38.9816C55.7558 38.6711 55.2809 38.1059 54.9631 37.9873C55.4031 38.5908 55.7174 39.0165 56.1714 39.0339C56.0282 39.1142 55.8885 39.1979 55.7488 39.2816L55.6476 39.3444C55.225 39.0304 54.8479 38.4827 54.5615 38.3466C54.9107 38.9397 55.1587 39.3479 55.6092 39.3619C55.473 39.4421 55.3403 39.5293 55.2076 39.6166C54.8234 39.327 54.4742 38.8211 54.2123 38.699C54.5336 39.2398 54.7571 39.6166 55.1866 39.6305L54.7675 39.9131C54.4358 39.627 54.1494 39.156 53.9189 39.0304C54.1774 39.5363 54.359 39.8922 54.7396 39.9341L54.5126 40.0945L54.3869 40.1887C54.0796 39.9271 53.8142 39.491 53.6012 39.3758C53.8421 39.8433 54.0097 40.1678 54.359 40.2097C54.2402 40.2969 54.125 40.3841 54.0097 40.4748C53.7234 40.2585 53.4824 39.8922 53.2834 39.798C53.5034 40.1957 53.6535 40.4714 53.9818 40.4958L53.9189 40.5446L53.671 40.7539C53.4126 40.5516 53.1926 40.2201 53.011 40.1329C53.21 40.4818 53.3602 40.747 53.6501 40.7714C53.5558 40.8551 53.4615 40.9458 53.3707 41.04C53.3678 41.0423 53.3654 41.0452 53.3638 41.0486C53.3622 41.0519 53.3614 41.0555 53.3614 41.0592C53.3614 41.0629 53.3622 41.0666 53.3638 41.0699C53.3654 41.0732 53.3678 41.0761 53.3707 41.0784C53.3759 41.0833 53.3827 41.0861 53.3899 41.0861C53.397 41.0861 53.4039 41.0833 53.4091 41.0784C53.4913 40.9917 53.5787 40.9101 53.671 40.8342C53.5837 41.0714 53.7094 41.3122 53.877 41.6401C53.8483 41.3512 53.8005 41.0645 53.7339 40.7819C53.8072 40.7191 53.8805 40.6632 53.9574 40.6039L54.0097 40.5621C53.891 40.8307 54.0272 41.0994 54.2193 41.4762C54.1851 41.1559 54.1327 40.8379 54.0621 40.5237C54.1704 40.44 54.2751 40.3632 54.3869 40.2864C54.2472 40.5865 54.4218 40.904 54.6663 41.3331C54.6907 41.0959 54.4777 40.6353 54.4323 40.2376L54.544 40.1574L54.7606 40.0108C54.6209 40.3353 54.806 40.6772 55.0714 41.1552C55.0958 40.897 54.8688 40.4051 54.8164 39.9724L55.1971 39.7282C55.0679 40.0597 55.2425 40.426 55.4834 40.9389C55.5253 40.6667 55.3263 40.1399 55.2844 39.6724L55.5952 39.484C55.4555 39.8329 55.6441 40.2481 55.9095 40.8028C55.9549 40.5062 55.7349 39.9306 55.693 39.4247L55.7733 39.3793L56.2028 39.1351C56.0422 39.5014 56.2028 39.969 56.4403 40.6109C56.5171 40.2969 56.3355 39.6305 56.3285 39.0688C56.4927 38.9816 56.6533 38.8979 56.8209 38.8176C56.5835 39.2258 56.772 39.7526 57.0409 40.4888C57.1247 40.1399 56.9152 39.3898 56.9187 38.7723L57.0619 38.7025L57.5194 38.5001C57.247 38.9258 57.4181 39.5119 57.6625 40.3248C57.7743 39.948 57.5927 39.1246 57.6381 38.4513C57.8057 38.3815 57.9873 38.3187 58.1479 38.2559C57.8197 38.7199 58.0083 39.3654 58.2772 40.2655C58.4029 39.8573 58.2003 38.9502 58.2527 38.221L58.4099 38.1652C58.4214 38.1617 58.432 38.1558 58.4412 38.148C58.4503 38.1402 58.4577 38.1306 58.463 38.1198C58.4682 38.109 58.4712 38.0972 58.4716 38.0852C58.4721 38.0732 58.4701 38.0612 58.4657 38.0501C58.4571 38.028 58.4404 38.0099 58.4191 37.9996C58.3977 37.9892 58.3732 37.9873 58.3505 37.9942L58.1794 38.057C57.775 37.7997 57.3877 37.5165 57.02 37.2092H56.7406C57.1946 37.75 57.5682 38.1129 58.0327 38.1198C57.8546 38.1861 57.6835 38.2629 57.5054 38.3396C56.9152 37.9907 56.3181 37.3732 55.9374 37.2546C56.4822 37.9175 56.8733 38.3885 57.3867 38.392L56.9955 38.5734L56.8209 38.6711Z" fill="#263238"/>
<path d="M52.4592 45.1952C52.0751 44.7766 51.8062 44.4974 51.4291 44.5428L51.6037 44.33L51.7014 44.2044C52.0507 44.3753 52.4348 44.7242 52.6723 44.7766C52.3231 44.3928 52.0681 44.1206 51.7189 44.1765C51.8097 44.0613 51.897 43.9462 51.9843 43.8276C52.3161 43.9602 52.6478 44.2497 52.8643 44.2881C52.5466 43.9636 52.3265 43.7369 51.9948 43.8101C52.013 43.7895 52.0294 43.7673 52.0437 43.7438C52.1065 43.6566 52.1659 43.5694 52.2253 43.4787C52.4854 43.6334 52.7535 43.7744 53.0285 43.9008C52.7386 43.6043 52.5396 43.3984 52.2427 43.4577C52.3126 43.3496 52.3789 43.2379 52.4383 43.1089C52.4415 43.1019 52.4419 43.094 52.4393 43.0868C52.4366 43.0796 52.4313 43.0737 52.4243 43.0705C52.4174 43.0672 52.4094 43.0669 52.4022 43.0695C52.395 43.0721 52.3891 43.0775 52.3859 43.0844C52.3297 43.1896 52.2667 43.291 52.1973 43.388C52.2183 43.1368 52.0332 42.9379 51.7818 42.6658C51.8876 42.9376 52.0112 43.2022 52.1519 43.4577L51.9843 43.688L51.9424 43.7404C51.9878 43.4508 51.7818 43.2275 51.4989 42.917C51.6158 43.2181 51.7511 43.5117 51.904 43.7962L51.656 44.1102C51.7084 43.7787 51.457 43.524 51.1008 43.1577C51.1427 43.3949 51.45 43.7787 51.6211 44.152L51.5338 44.2602L51.3627 44.4591C51.4116 44.1102 51.1427 43.8311 50.7586 43.4403C50.804 43.695 51.1532 44.1102 51.3208 44.5114L51.0205 44.8603C51.0554 44.5114 50.7865 44.1939 50.4163 43.7683C50.4513 44.0439 50.7865 44.4974 50.9506 44.937L50.7027 45.2022C50.7411 44.8184 50.4478 44.48 50.0462 44.016C50.0811 44.3125 50.4443 44.808 50.6224 45.2824L50.556 45.3522C50.4443 45.4708 50.3255 45.586 50.2068 45.7011C50.2662 45.3069 49.9798 44.9022 49.5852 44.3474C49.5852 44.6684 49.9344 45.2615 50.1055 45.8023C49.9728 45.9279 49.8366 46.0535 49.7004 46.1721C49.8192 45.7186 49.4944 45.2615 49.0404 44.623C49.0404 44.9719 49.456 45.6488 49.6166 46.2454L49.4944 46.3501C49.3687 46.4582 49.2395 46.5629 49.1103 46.6675C49.2604 46.1826 48.9357 45.6662 48.4852 44.9475C48.4852 45.3383 48.8728 46.0849 49.009 46.7443C48.867 46.8559 48.7203 46.9641 48.569 47.0688C48.6153 46.905 48.6274 46.7334 48.6045 46.5648C48.5817 46.3962 48.5244 46.234 48.4363 46.0884C48.4782 46.5036 48.5131 46.9083 48.541 47.306L48.5899 47.2711C49.3058 47.4491 50.116 47.9375 50.549 47.948C49.7947 47.4177 49.25 47.0409 48.7157 47.1804C48.8693 47.0653 49.0195 46.9467 49.1661 46.8315C49.8262 46.9955 50.563 47.4456 50.9681 47.456C50.2697 46.9641 49.7633 46.6117 49.2674 46.7583C49.3792 46.6641 49.4874 46.5733 49.5957 46.4757L49.7738 46.3117C50.3744 46.4966 51.0379 46.9536 51.4046 46.9815C50.769 46.4791 50.3151 46.1233 49.8366 46.2559C49.9763 46.1268 50.1125 45.9942 50.2487 45.8581C50.797 46.0291 51.4081 46.4477 51.7434 46.4757C51.1567 46.0116 50.7411 45.6837 50.3011 45.8058C50.4163 45.6872 50.5316 45.572 50.6503 45.4569L50.7306 45.3697C51.2195 45.5616 51.7329 45.9872 52.0437 46.043C51.5478 45.5685 51.2021 45.2371 50.7516 45.3452C50.8563 45.2301 50.9646 45.1115 51.0659 44.9964C51.5164 45.1743 51.9878 45.565 52.2742 45.6139C51.8202 45.1778 51.5024 44.8777 51.0868 44.9754C51.1986 44.8498 51.3068 44.7207 51.4116 44.5916C51.8027 44.7591 52.2043 45.1359 52.4592 45.1952Z" fill="#263238"/>
<path d="M58.5389 44.9406C58.2875 45.0523 57.9487 45.5024 57.5751 45.7885L57.2503 45.628C57.6309 45.5547 57.8684 45.1779 58.1967 44.658C57.9208 44.7767 57.5541 45.2686 57.149 45.5791L57.0652 45.5338C56.9185 45.4605 56.7754 45.3803 56.6322 45.3035C57.0268 45.2442 57.3306 44.8499 57.7462 44.3092C57.4389 44.4138 56.9779 44.9267 56.5065 45.2337C56.3458 45.143 56.1887 45.0523 56.0315 44.9546C56.4995 44.9372 56.8452 44.4906 57.3236 43.8696C56.9744 43.9882 56.4611 44.5673 55.9268 44.8953L55.7906 44.8116L55.3785 44.5359C55.8814 44.5359 56.283 44.0789 56.8382 43.4369C56.4611 43.5416 55.8639 44.1347 55.2737 44.4627C55.1224 44.358 54.9757 44.2498 54.8337 44.1382C55.3995 44.1661 55.843 43.6602 56.4611 42.9485C56.0455 43.0601 55.389 43.7195 54.7429 44.0684L54.6137 43.9638C54.5962 43.9473 54.5731 43.9382 54.5491 43.9382C54.5251 43.9382 54.502 43.9473 54.4845 43.9638C54.4683 43.9806 54.4592 44.0031 54.4592 44.0266C54.4592 44.05 54.4683 44.0725 54.4845 44.0894L54.6277 44.201C54.6696 44.9372 54.4356 45.8547 54.5509 46.2734C54.8372 45.3942 55.0432 44.7627 54.7534 44.2952C54.9071 44.4068 55.0642 44.515 55.2214 44.6197C55.2563 45.3174 55.0432 46.1408 55.1515 46.5246C55.4169 45.7117 55.6055 45.1291 55.3296 44.6929L55.6788 44.9232L55.8884 45.0488C55.8884 45.6733 55.6439 46.4444 55.7207 46.7933C56.0176 46.0397 56.2271 45.5024 55.9617 45.0872C56.1258 45.1814 56.3109 45.2721 56.4611 45.3628C56.4611 45.9385 56.2376 46.6397 56.3074 46.9712C56.5798 46.2734 56.7719 45.7815 56.5274 45.3977L56.9674 45.621L57.0722 45.6733C57.0338 46.1932 56.7754 46.8107 56.8138 47.1212C57.1246 46.5107 57.3376 46.0745 57.1001 45.6838L57.5297 45.8827C57.4913 46.3641 57.2538 46.9293 57.2922 47.2189C57.5751 46.6537 57.7706 46.2629 57.5541 45.8966C57.7078 45.9664 57.8614 46.0327 58.0186 46.0955C57.9557 46.5281 57.7113 47.0235 57.7287 47.2852C58.0186 46.7933 58.2176 46.4513 58.05 46.1094L58.3084 46.2141L58.4551 46.2699C58.3992 46.6711 58.1757 47.1247 58.1897 47.3654C58.4551 46.9154 58.6402 46.5979 58.4865 46.2804C58.6227 46.3327 58.7589 46.3851 58.8986 46.4304C58.8707 46.7793 58.6891 47.1875 58.717 47.4073C58.9335 47.0096 59.0662 46.7305 58.9195 46.4374L58.9964 46.4653C59.0976 46.4967 59.1989 46.5316 59.3037 46.5595C59.2324 46.853 59.1765 47.1499 59.1361 47.4492C59.3316 47.1003 59.4853 46.8351 59.3281 46.5665C59.4516 46.6053 59.5776 46.6356 59.7053 46.6572C59.7122 46.6583 59.7193 46.6567 59.7251 46.6528C59.7309 46.649 59.735 46.643 59.7367 46.6363C59.7379 46.6289 59.7365 46.6214 59.7327 46.615C59.7288 46.6086 59.7228 46.6038 59.7158 46.6014C59.597 46.5769 59.4818 46.5455 59.3665 46.5107C59.611 46.4548 59.7472 46.2246 59.9323 45.9036C59.7577 45.9803 59.5377 46.2909 59.2862 46.4862L59.0173 46.3955L58.9545 46.3711C59.2443 46.3292 59.398 46.0676 59.611 45.7047C59.4119 45.7919 59.171 46.1373 58.8881 46.3467C58.7659 46.3013 58.6402 46.256 58.5179 46.2036C58.8462 46.1583 59.0208 45.8547 59.2618 45.3977C59.0488 45.5059 58.7764 45.928 58.4656 46.1827L58.3364 46.1304L58.0954 46.0257C58.4446 45.9734 58.6332 45.6314 58.8951 45.1535C58.6646 45.2686 58.3713 45.7222 58.036 46.0013C57.8963 45.942 57.7601 45.8792 57.624 45.8129C58.0186 45.764 58.2386 45.4186 58.5389 44.9406Z" fill="#263238"/>
<path d="M56.524 49.5913C56.7922 49.7286 57.0672 49.852 57.3481 49.9611C57.0443 49.6855 56.8278 49.4936 56.538 49.5668C56.6008 49.4552 56.6602 49.3435 56.7126 49.2179C56.7142 49.2145 56.7151 49.2108 56.7152 49.207C56.7154 49.2032 56.7148 49.1994 56.7135 49.1959C56.7122 49.1923 56.7103 49.189 56.7077 49.1862C56.7051 49.1834 56.702 49.1812 56.6986 49.1796C56.6952 49.178 56.6914 49.1771 56.6876 49.1769C56.6838 49.1767 56.6801 49.1773 56.6765 49.1786C56.6729 49.1799 56.6697 49.1819 56.6669 49.1844C56.6641 49.187 56.6618 49.1901 56.6602 49.1935C56.6078 49.3017 56.5519 49.4063 56.4926 49.511C56.4926 49.2598 56.297 49.0714 56.0316 48.8132C56.1532 49.0767 56.2921 49.332 56.4472 49.5773L56.297 49.818L56.2586 49.8739C56.283 49.5808 56.0665 49.3715 55.7627 49.0819C55.899 49.3729 56.0517 49.656 56.2202 49.9297L55.9967 50.2611C56.0281 49.9297 55.7592 49.6855 55.3821 49.347C55.4379 49.5808 55.7871 49.9436 55.9618 50.3065L55.8814 50.4181C55.8325 50.4879 55.7767 50.5577 55.7243 50.6275C55.7522 50.2786 55.4659 50.0134 55.0573 49.6506C55.1201 49.9018 55.4938 50.2925 55.6859 50.6972C55.5951 50.8193 55.5008 50.938 55.4065 51.0461C55.4065 50.6972 55.1341 50.3972 54.736 49.9995C54.7884 50.2681 55.1516 50.6972 55.3401 51.1299C55.2656 51.2252 55.1888 51.3194 55.1097 51.4125C55.1097 51.0252 54.8128 50.7147 54.3833 50.2681C54.4357 50.5612 54.8303 51.0322 55.0398 51.4962L54.977 51.5695C54.8687 51.6951 54.7605 51.8172 54.6487 51.9358C54.6836 51.5416 54.3693 51.1508 53.9503 50.624C53.9782 50.945 54.3728 51.5136 54.5614 52.044C54.4357 52.1765 54.31 52.3091 54.1808 52.4382C54.2681 51.9812 53.9153 51.5416 53.423 50.9345C53.4579 51.2834 53.9049 51.9323 54.1004 52.5184L53.9887 52.6301L53.622 52.979C53.7407 52.487 53.3845 51.9916 52.8921 51.3043C52.8921 51.6951 53.3496 52.4173 53.5277 53.0488C53.3915 53.1709 53.2518 53.2895 53.1087 53.3977C53.2658 52.8534 52.8782 52.3056 52.3264 51.5416C52.3264 51.9707 52.8293 52.7592 53.0248 53.4674L52.8921 53.5721C52.8827 53.5794 52.8749 53.5885 52.869 53.5989C52.8631 53.6093 52.8594 53.6207 52.8579 53.6325C52.8564 53.6443 52.8573 53.6563 52.8605 53.6678C52.8637 53.6793 52.8691 53.6901 52.8764 53.6994C52.8838 53.7088 52.8929 53.7167 52.9033 53.7226C52.9136 53.7284 52.9251 53.7322 52.9369 53.7337C52.9487 53.7351 52.9608 53.7342 52.9722 53.7311C52.9837 53.7279 52.9945 53.7225 53.0039 53.7151L53.1436 53.6C53.8699 53.7291 54.7116 54.1687 55.1446 54.1513C54.3554 53.6698 53.7896 53.3244 53.2658 53.4988C53.409 53.3767 53.5522 53.2476 53.6919 53.1185C54.3589 53.2406 55.1306 53.6419 55.5287 53.6279C54.7989 53.1813 54.2715 52.8638 53.7826 53.0313C53.8874 52.9301 53.9922 52.8324 54.0934 52.7278L54.2646 52.5533C54.8722 52.6999 55.5636 53.1116 55.9303 53.1185C55.2633 52.658 54.7919 52.33 54.3204 52.494C54.4531 52.3545 54.5789 52.2149 54.7046 52.0719C55.2668 52.2044 55.8989 52.5847 56.2376 52.5917C55.623 52.1661 55.19 51.866 54.757 52.0126C54.8652 51.8904 54.97 51.7648 55.0747 51.6392L55.1481 51.545C55.6509 51.7055 56.1957 52.0998 56.503 52.1347C55.9757 51.6916 55.6125 51.3846 55.169 51.5241L55.4624 51.1543C55.9233 51.3008 56.4157 51.6602 56.7056 51.6916C56.2237 51.2869 55.8884 50.9938 55.4798 51.1299C55.5811 50.9973 55.6824 50.8612 55.7802 50.7251C56.1887 50.8856 56.6148 51.238 56.8732 51.2799C56.4611 50.8891 56.1748 50.6135 55.8011 50.6972C55.857 50.624 55.9094 50.5472 55.9618 50.4739C56.0141 50.4007 56.0211 50.3832 56.0525 50.3414C56.4262 50.4879 56.8173 50.8124 57.0583 50.8508C56.6776 50.5019 56.4122 50.2367 56.07 50.3135C56.1538 50.1925 56.2341 50.0704 56.311 49.9471C56.6602 50.0588 57.0094 50.3274 57.2189 50.3518C56.8697 50.0483 56.6462 49.8355 56.3214 49.9297L56.3668 49.8599L56.524 49.5913Z" fill="#263238"/>
<path d="M58.6401 53.485C58.7146 53.3897 58.7915 53.299 58.8706 53.2129C58.8182 53.4571 58.9684 53.6804 59.1779 53.9874C59.1115 53.7038 59.0287 53.4242 58.93 53.1501L59.129 52.9477L59.1744 52.8989C59.0906 53.1815 59.2583 53.4327 59.4957 53.7781C59.4226 53.465 59.3317 53.1563 59.2233 52.8535L59.5132 52.5779C59.4154 52.8954 59.6249 53.1885 59.9253 53.6002C59.9253 53.3594 59.6529 52.9303 59.5551 52.5535L59.6598 52.4628L59.8554 52.2883C59.7541 52.6372 59.9811 52.9442 60.3024 53.3873C60.3024 53.1257 60.0126 52.6651 59.9043 52.2465C60.0195 52.1453 60.1348 52.0511 60.2535 51.9534C60.1662 52.3023 60.3862 52.6512 60.6865 53.1222C60.6865 52.8466 60.4316 52.3442 60.3373 51.8871L60.6237 51.6638C60.5259 52.0371 60.7669 52.4139 61.0951 52.9338C61.0951 52.6337 60.8158 52.0895 60.711 51.594L60.7878 51.5347L61.1824 51.2452C61.0672 51.6254 61.2907 52.0685 61.6015 52.6756C61.6364 52.3546 61.3745 51.7162 61.3012 51.1614C61.4513 51.0567 61.6015 50.9521 61.7551 50.8509C61.5701 51.2835 61.825 51.7859 62.1812 52.4837C62.2231 52.1348 61.9193 51.4056 61.832 50.7916L61.9647 50.7079C62.1079 50.6206 62.251 50.5334 62.3942 50.4532C62.1742 50.9067 62.4187 51.465 62.7434 52.243C62.8098 51.8557 62.5304 51.0602 62.492 50.3904C62.6491 50.2997 62.8098 50.2124 62.9739 50.1322C62.705 50.6311 62.9739 51.2486 63.3511 52.1104C63.4244 51.6882 63.1136 50.8125 63.0752 50.0833L63.2218 50.0101C63.2326 50.0052 63.2422 49.9983 63.2501 49.9896C63.2581 49.9809 63.2642 49.9708 63.2681 49.9597C63.272 49.9486 63.2736 49.9369 63.2729 49.9251C63.2722 49.9134 63.269 49.9019 63.2638 49.8915C63.2585 49.8806 63.2512 49.871 63.2422 49.863C63.2333 49.855 63.2228 49.8489 63.2114 49.845C63.2 49.8411 63.188 49.8395 63.176 49.8403C63.164 49.8411 63.1523 49.8442 63.1415 49.8496L62.9809 49.9333C62.2999 49.6542 61.5666 49.0471 61.1405 48.9739C61.811 49.6089 62.2929 50.0659 62.8412 50.0205C62.6736 50.1078 62.5095 50.2055 62.3453 50.2997C61.7167 50.0415 61.0462 49.4867 60.6551 49.4205C61.2767 50.0101 61.7237 50.4287 62.2336 50.3694L61.8669 50.5997L61.6643 50.7358C61.0986 50.4636 60.5084 49.9159 60.1522 49.8321C60.7075 50.4253 61.1021 50.8439 61.5945 50.7811C61.4374 50.8893 61.2837 51.0009 61.13 51.13C60.6097 50.8823 60.0824 50.3799 59.7332 50.3031C60.2465 50.8474 60.6097 51.2312 61.0602 51.1789C60.931 51.2766 60.7983 51.3742 60.6726 51.4754L60.5783 51.5522C60.1243 51.2905 59.6808 50.7916 59.3805 50.6939C59.7995 51.2382 60.0789 51.6115 60.5573 51.5696L60.1907 51.8697C59.7716 51.6324 59.363 51.1719 59.0871 51.0812C59.4748 51.5801 59.7437 51.9255 60.1697 51.8906C60.0405 51.9988 59.9148 52.1069 59.7891 52.2395C59.4398 51.9953 59.0906 51.5626 58.8392 51.4684C59.157 51.9394 59.384 52.2674 59.7646 52.2639L59.5586 52.4488L59.4433 52.5605C59.0941 52.3337 58.7938 51.936 58.5668 51.8627C58.8636 52.2953 59.0697 52.5988 59.4224 52.5954C59.3141 52.6965 59.2094 52.7977 59.1081 52.9024C58.8008 52.7244 58.5144 52.3895 58.3049 52.3197C58.5703 52.6686 58.7554 52.9408 59.0941 52.9198L59.0382 52.9756C58.9649 53.0524 58.8881 53.1326 58.8182 53.2129C58.5354 53.0454 58.277 52.7419 58.0884 52.6791C58.3293 53.0105 58.497 53.2443 58.7868 53.2338C58.6997 53.3279 58.6181 53.4269 58.5424 53.5304C58.5394 53.533 58.537 53.5362 58.5354 53.5398C58.5337 53.5434 58.5329 53.5474 58.5329 53.5513C58.5329 53.5553 58.5337 53.5592 58.5354 53.5628C58.537 53.5664 58.5394 53.5696 58.5424 53.5722C58.5446 53.5752 58.5476 53.5775 58.5509 53.5791C58.5542 53.5807 58.5579 53.5816 58.5616 53.5816C58.5653 53.5816 58.5689 53.5807 58.5722 53.5791C58.5756 53.5775 58.5785 53.5752 58.5808 53.5722L58.6401 53.485Z" fill="#263238"/>
<path d="M54.5474 58.4567C54.6871 58.3265 54.8233 58.1939 54.956 58.059C55.5078 58.2299 56.1154 58.6486 56.4542 58.6765C55.8675 58.2125 55.4519 57.8845 55.0119 58.0031C55.1271 57.888 55.2424 57.7694 55.3611 57.6543L55.4414 57.567C55.9303 57.7589 56.4402 58.1846 56.7545 58.2404C56.2586 57.7624 55.9129 57.4345 55.4589 57.5426C55.5672 57.4275 55.6719 57.3089 55.7767 57.1937C56.2272 57.3717 56.6986 57.7624 56.985 57.8113C56.5275 57.3751 56.2097 57.0716 55.7976 57.1728L56.1224 56.789C56.5205 56.9739 56.9221 57.3507 57.1701 57.41C56.7859 56.9949 56.5135 56.7123 56.1224 56.7611L56.297 56.5483L56.3948 56.4227C56.7615 56.5936 57.1316 56.939 57.3691 56.9949C57.0199 56.6076 56.765 56.3389 56.4157 56.3948C56.5065 56.2796 56.5938 56.1645 56.6777 56.0459C57.0269 56.1784 57.3412 56.468 57.5577 56.5064C57.2434 56.1819 57.0234 55.9552 56.6916 56.0284L56.7405 55.9621C56.7999 55.8749 56.8627 55.7877 56.9221 55.697C57.1814 55.85 57.4483 55.9897 57.7218 56.1156C57.4355 55.8226 57.2329 55.6167 56.9361 55.6726C57.0074 55.5658 57.0727 55.4551 57.1316 55.3411C57.1335 55.3379 57.1347 55.3344 57.1351 55.3307C57.1356 55.327 57.1353 55.3233 57.1344 55.3198C57.1334 55.3162 57.1317 55.3129 57.1295 55.3099C57.1272 55.307 57.1244 55.3046 57.1212 55.3027C57.118 55.3009 57.1144 55.2997 57.1107 55.2993C57.1071 55.2988 57.1034 55.2991 57.0998 55.3C57.0962 55.301 57.0929 55.3027 57.09 55.3049C57.087 55.3072 57.0846 55.31 57.0828 55.3132C57.0245 55.4179 56.9617 55.519 56.8942 55.6167C56.8942 55.3655 56.73 55.1667 56.4786 54.8945C56.5795 55.1651 56.6961 55.4295 56.8278 55.6865L56.6637 55.9168L56.6218 55.9691C56.6672 55.6795 56.4611 55.4562 56.1748 55.1457C56.2941 55.4447 56.4293 55.737 56.5799 56.0215C56.4996 56.1296 56.4192 56.2343 56.3354 56.3354C56.3878 56.0075 56.1364 55.7493 55.7802 55.3865C55.8221 55.6237 56.1469 56.0075 56.3005 56.3808C56.2691 56.4157 56.2411 56.4541 56.2132 56.489L56.0421 56.6878C56.091 56.3389 55.8221 56.0598 55.4379 55.6691C55.4833 55.9238 55.8326 56.3355 56.0002 56.7402L55.6999 57.0891C55.7348 56.7402 55.4659 56.4227 55.0957 55.997C55.1271 56.2692 55.4449 56.7262 55.6265 57.1658L55.3786 57.431C55.417 57.0437 55.1271 56.7088 54.7255 56.2447C54.7605 56.5413 55.1236 57.0367 55.3017 57.5112L55.2354 57.581L54.8862 57.9299C54.9455 57.5356 54.6557 57.1274 54.2611 56.5762C54.2611 56.8972 54.6278 57.4903 54.7814 58.0311L54.3798 58.4009C54.4951 57.9473 54.1738 57.4903 53.7163 56.8518C53.7163 57.2007 54.1354 57.8775 54.296 58.4741L54.1738 58.5788C54.0481 58.687 53.9189 58.7916 53.7896 58.8928C53.9398 58.4113 53.615 57.895 53.1646 57.1763C53.1646 57.5635 53.5417 58.2962 53.6814 58.9486H53.9503C54.0585 58.8579 54.1668 58.7672 54.2716 58.673C54.3763 58.5788 54.3938 58.5649 54.4532 58.509C54.866 58.6645 55.2695 58.8439 55.6614 59.0463H55.9268C55.403 58.6311 54.984 58.3346 54.5474 58.4567Z" fill="#263238"/>
<path d="M52.6162 57.3821C52.6162 57.731 52.8781 58.3031 53.0632 58.8858L53.3286 58.9067C53.2972 58.4741 53.0003 57.9961 52.6162 57.3821Z" fill="#263238"/>
<path d="M54.0027 58.9556L54.53 58.987C54.3608 58.9268 54.1779 58.9159 54.0027 58.9556Z" fill="#263238"/>
<path d="M64.165 58.223C64.1757 58.2027 64.1851 58.1817 64.1929 58.1602L64.0672 58.1148L64.0043 58.0939C64.1027 58.0774 64.1946 58.0339 64.2697 57.9683C64.3012 57.8776 64.3326 57.7799 64.3605 57.6717C64.23 57.8148 64.0887 57.9478 63.938 58.0694L63.5573 57.9334C63.8856 57.8845 64.0602 57.5845 64.3012 57.1239C64.0881 57.2321 63.8158 57.6543 63.5049 57.9124L63.3757 57.8601L63.1348 57.7554C63.484 57.6996 63.6726 57.3612 63.9345 56.8797C63.704 56.9983 63.4107 57.4519 63.0754 57.731L62.6633 57.5426C63.0126 57.4694 63.2291 57.1239 63.5294 56.646C63.278 56.7576 62.9392 57.2112 62.5656 57.4973L62.2408 57.3368C62.6214 57.26 62.8589 56.8832 63.1872 56.3634C62.9113 56.4855 62.5446 56.9774 62.1395 57.2844L62.0557 57.2426L61.6227 57.0088C62.0173 56.9495 62.3211 56.5553 62.7367 56.018C62.4294 56.1226 61.9684 56.6355 61.497 56.939C61.3363 56.8518 61.1792 56.7576 61.022 56.6634C61.49 56.6425 61.8357 56.1994 62.3141 55.5784C61.9649 55.6935 61.4516 56.2761 60.9173 56.6041L60.7811 56.5204C60.6414 56.4297 60.5052 56.3389 60.369 56.2413C60.8719 56.2413 61.2735 55.7842 61.8287 55.1457C61.4516 55.2504 60.8544 55.8435 60.2642 56.1715L59.8207 55.8435C60.3899 55.8714 60.8334 55.3655 61.4516 54.6538C61.036 54.7689 60.3795 55.4249 59.7334 55.7737L59.6042 55.6726C59.5948 55.6652 59.5841 55.6598 59.5726 55.6566C59.5611 55.6535 59.5491 55.6526 59.5372 55.654C59.5133 55.657 59.4916 55.6693 59.4767 55.6883C59.4619 55.7072 59.4553 55.7313 59.4582 55.7552C59.4611 55.7791 59.4735 55.8008 59.4925 55.8156L59.6356 55.9238C59.6775 56.6599 59.4436 57.581 59.5588 57.9962C59.8452 57.1205 60.0512 56.489 59.7614 56.018C59.915 56.1331 60.0722 56.2413 60.2293 56.3459C60.2642 57.0228 60.0512 57.8671 60.1595 58.2509C60.4249 57.4345 60.6134 56.8553 60.3376 56.4192C60.4598 56.4959 60.5785 56.5762 60.6868 56.6495L60.8963 56.7751C60.8963 57.3996 60.6519 58.1706 60.7287 58.5195C61.0255 57.7624 61.235 57.2286 60.9696 56.8099C61.1338 56.9076 61.3189 56.9984 61.469 57.0856C61.469 57.6612 61.2455 58.366 61.3154 58.694C61.5878 57.9962 61.7798 57.5077 61.5354 57.1239L61.9754 57.3437L62.0801 57.3961C62.0417 57.9194 61.7833 58.5335 61.8217 58.8475C62.1325 58.2334 62.3456 57.8008 62.1081 57.41L62.5376 57.6089C62.5027 58.0764 62.2792 58.6172 62.2967 58.9138H62.3141C62.59 58.3695 62.7751 57.9857 62.5621 57.6229L63.0265 57.8252C62.9741 58.1741 62.8065 58.5649 62.7541 58.8405L62.8484 58.823C63.0719 58.4323 63.1976 58.1253 63.058 57.8392L63.3129 57.9404L63.463 57.9997C63.4148 58.2458 63.3494 58.4883 63.2675 58.7254L63.4281 58.6765C63.4922 58.579 63.5317 58.4675 63.5433 58.3515C63.5548 58.2354 63.5381 58.1183 63.4945 58.0101L63.9065 58.1602C63.8944 58.2781 63.8722 58.3948 63.8402 58.509C63.8935 58.4824 63.9448 58.4521 63.9938 58.4183C63.9955 58.329 63.9725 58.2409 63.9275 58.1636L64.0043 58.1881L64.165 58.223Z" fill="#263238"/>
<path d="M50.727 50.9554C50.7496 50.9481 50.7687 50.9326 50.7803 50.9119C50.792 50.8912 50.7954 50.8669 50.7898 50.8438C50.7833 50.8207 50.7679 50.8011 50.747 50.7893C50.726 50.7775 50.7012 50.7745 50.6781 50.781L50.5035 50.8333C49.8854 50.4321 49.2812 49.6994 48.8761 49.5459C49.4139 50.296 49.8016 50.8333 50.3533 50.8787C50.1717 50.9345 50.0041 50.9973 49.812 51.0636C49.393 50.7879 48.9809 50.3658 48.6422 50.0867C48.6422 50.1669 48.6422 50.2437 48.6422 50.3239C48.9914 50.7775 49.2952 51.081 49.6898 51.1089C49.5536 51.1578 49.4209 51.2101 49.2882 51.2659L49.0612 51.3601C48.9121 51.2478 48.7709 51.1254 48.6387 50.9938C48.6387 51.0915 48.6387 51.1857 48.6387 51.2834C48.7452 51.3464 48.8645 51.3846 48.9879 51.395L48.6387 51.559C48.6387 51.6078 48.6387 51.6567 48.6387 51.7055L49.1101 51.5032C48.8482 51.8939 49.0053 52.4347 49.2219 53.1848C49.3301 52.8359 49.166 52.0788 49.2219 51.4613L49.3685 51.402L49.8365 51.231C49.5362 51.6392 49.6689 52.2358 49.8609 53.0592C49.9971 52.6929 49.8609 51.859 49.9552 51.1927C50.1298 51.1333 50.3044 51.0775 50.479 51.0287C50.1298 51.4718 50.2695 52.1242 50.479 53.0453C50.6292 52.644 50.479 51.7265 50.5873 51.0008L50.727 50.9554Z" fill="#263238"/>
<path d="M48.5688 53.1291C48.5688 53.1709 48.5898 53.2093 48.6038 53.2547C48.6484 52.9516 48.6484 52.6436 48.6038 52.3406C48.5933 52.6092 48.5828 52.8744 48.5688 53.1291Z" fill="#263238"/>
<path d="M49.8051 58.2333L49.6759 58.0274C49.9587 57.4692 50.5245 56.8936 50.6153 56.5377C50.0076 57.0785 49.5676 57.4622 49.6305 57.9542C49.5257 57.7937 49.4175 57.6402 49.3092 57.4832C49.5711 56.9703 50.0879 56.4365 50.1753 56.119C49.6165 56.6144 49.2219 56.9668 49.2638 57.4204L48.974 57.0226L48.9041 56.9284C49.173 56.4819 49.6829 56.0492 49.7911 55.7527C49.2359 56.1574 48.8517 56.4505 48.8867 56.9075L48.5933 56.5342C48.8447 56.1225 49.3127 55.7248 49.4105 55.4526C48.9006 55.8259 48.5479 56.0841 48.5758 56.4993L48.3593 56.2411V56.3877L48.485 56.5412C48.4414 56.5308 48.3971 56.5238 48.3524 56.5202C48.3524 56.5726 48.3524 56.6214 48.3524 56.6738L48.5549 56.6249L48.7749 56.918C48.6336 56.8763 48.4832 56.8763 48.3419 56.918V57.1343C48.5081 57.076 48.6785 57.0305 48.8517 56.9982L48.9076 57.0715L49.1905 57.4762C48.9017 57.4133 48.6 57.4541 48.3384 57.5913C48.3384 57.6541 48.3384 57.7204 48.3384 57.7832C48.6467 57.7037 48.9592 57.6408 49.2743 57.5948C49.3756 57.7483 49.4733 57.9018 49.5676 58.0588C49.2359 57.9053 48.8692 58.0205 48.3628 58.2368C48.3628 58.2821 48.3628 58.3345 48.3628 58.3763H48.4397C48.8274 58.277 49.2202 58.199 49.6165 58.1426L49.7003 58.2787L49.8505 58.5473L50.046 58.5717C49.9552 58.4775 49.8819 58.3554 49.8051 58.2333Z" fill="#263238"/>
<path d="M48.4397 55.0654V55.2294C48.538 55.1376 48.6206 55.0303 48.6841 54.9119L48.4397 55.0654Z" fill="#263238"/>
<path d="M50.4932 58.6521L50.804 58.6869C51.066 58.3387 51.2787 57.9559 51.436 57.5496C51.0728 57.8723 50.7556 58.2432 50.4932 58.6521Z" fill="#263238"/>
<path d="M50.1403 58.631C50.4301 58.0413 50.9435 57.4343 51.0168 57.0645C50.4092 57.6715 49.9692 58.1111 50.025 58.617L50.1403 58.631Z" fill="#263238"/>
<path d="M48.3942 55.69C48.3942 55.7842 48.3942 55.8749 48.3767 55.9656C48.6244 55.7306 48.8489 55.4724 49.0472 55.1946C48.8085 55.3301 48.5889 55.4967 48.3942 55.69Z" fill="#263238"/>
</g>
<path d="M72.6369 47.1595L74.1804 45.5232L76.3211 48.5341C76.3211 48.5341 74.5157 49.8111 72.7871 49.7622L72.588 49.3191C72.4283 48.9799 72.3496 48.6083 72.358 48.2336C72.3665 47.8588 72.462 47.4911 72.6369 47.1595Z" fill="#FFB573"/>
<path d="M76.6703 45.6837L77.2744 46.8176C77.407 47.0666 77.4354 47.358 77.3536 47.628C77.2718 47.898 77.0864 48.1246 76.8379 48.2585L76.335 48.5341L74.1943 45.5232L75.4201 45.1743C75.6553 45.1025 75.9081 45.1139 76.1359 45.2067C76.3637 45.2995 76.5524 45.468 76.6703 45.6837Z" fill="#FFB573"/>
<path d="M64.493 41.2877L64.6257 41.9541L64.7724 42.6518C64.8772 43.1228 64.9784 43.5973 65.0972 44.0474C65.3242 44.9824 65.5966 45.9 65.8864 46.7862C66.1755 47.6371 66.5256 48.4662 66.934 49.2668C67.2606 49.9253 67.6923 50.5263 68.2122 51.0461L67.4718 50.6973C67.2553 50.6693 67.2134 50.7356 67.3287 50.7321C67.5121 50.7124 67.6906 50.6605 67.856 50.5786C68.3793 50.3387 68.8776 50.0477 69.3436 49.7099C69.864 49.361 70.3913 48.9493 70.9116 48.5272C71.4319 48.105 71.9593 47.6549 72.4691 47.2398L72.525 47.1979C72.7436 47.0195 73.017 46.9217 73.2993 46.921C73.5815 46.9202 73.8554 47.0166 74.075 47.1938C74.2945 47.371 74.4464 47.6183 74.505 47.8941C74.5636 48.17 74.5254 48.4576 74.3968 48.7086C74.0462 49.377 73.6555 50.0236 73.2269 50.6449C72.7902 51.2742 72.3143 51.8755 71.8021 52.4452C71.2433 53.0739 70.6114 53.6337 69.9198 54.1129C69.4865 54.4051 69.0169 54.6396 68.523 54.8107C68.2045 54.9217 67.8739 54.9943 67.5382 55.027C67.1216 55.0639 66.7018 55.0333 66.295 54.9363C66.0572 54.8791 65.833 54.776 65.635 54.6327L65.5512 54.5699C64.4785 53.7673 63.5753 52.7606 62.8936 51.6079C62.5747 51.0892 62.2883 50.5658 62.0346 50.0379C61.7808 49.5099 61.548 48.9819 61.3361 48.4539C60.932 47.4118 60.5892 46.3471 60.3094 45.265C60.1732 44.7277 60.044 44.1939 59.9358 43.6532C59.8834 43.381 59.8275 43.1124 59.7821 42.8368C59.7367 42.5611 59.6948 42.303 59.6494 41.975C59.5686 41.3481 59.7343 40.7144 60.1114 40.207C60.4886 39.6996 61.048 39.3581 61.672 39.2542C62.296 39.1503 62.9361 39.2921 63.4576 39.6499C63.9791 40.0076 64.3415 40.5534 64.4686 41.1726L64.493 41.2877Z" fill="#FFB573"/>
<path d="M61.1441 37.6245C63.1766 37.8338 64.8004 39.1805 65.9354 43.4684C65.0623 44.6756 59.5622 47.3236 59.5622 47.3236C59.5622 47.3236 56.4996 37.1465 61.1441 37.6245Z" fill="#263238"/>
</g>
<defs>
<clipPath id="clip0_314_5986">
<rect width="174.608" height="130" fill="white"/>
</clipPath>
</defs>
</svg>
